SplineFontDB: 3.2
FontName: Purisa
FullName: Purisa
FamilyName: Purisa
Weight: Regular
Copyright: Purisa, Thai handwriting outline font.\n\nCopyright (C) 2003, 2004 Poonlap Veerathanabutr <poonlap@linux.thai.net>
UComments: "2003-11-27: Created.+AAoACgAA-Acknowlegement:+AAoA-Hanwriting by Ms.Purisa Cholasueksa. +AAoA-Co-operated by Mr.Teeratep Sosakul.+AAoACgAA-2004-02-14:+AAoA-Modified most characters. Make numbers bigger."
Version: 004.003
ItalicAngle: 0
UnderlinePosition: -100
UnderlineWidth: 50
Ascent: 800
Descent: 200
InvalidEm: 0
LayerCount: 3
Layer: 0 0 "Back" 1
Layer: 1 0 "Fore" 0
Layer: 2 1 "Quad" 0
FSType: 8
OS2Version: 4
OS2_WeightWidthSlopeOnly: 0
OS2_UseTypoMetrics: 1
CreationTime: 1153666222
ModificationTime: 1587960964
PfmFamily: 65
TTFWeight: 400
TTFWidth: 5
LineGap: 0
VLineGap: 0
Panose: 2 0 6 3 0 0 0 0 0 0
OS2TypoAscent: 1109
OS2TypoAOffset: 0
OS2TypoDescent: -503
OS2TypoDOffset: 0
OS2TypoLinegap: 0
OS2WinAscent: 0
OS2WinAOffset: 1
OS2WinDescent: 0
OS2WinDOffset: 1
HheadAscent: 0
HheadAOffset: 1
HheadDescent: 0
HheadDOffset: 1
OS2Vendor: 'PfEd'
Lookup: 4 8 1 "'liga' Standard Ligatures lookup 2" { "'liga' Standard Ligatures lookup 2 subtable"  } ['liga' ('latn' <'dflt' > ) ]
Lookup: 6 0 0 "'ccmp' Thai Tone Tilde Reordering" { "'ccmp' Thai Tone Tilde Reordering"  } ['ccmp' ('DFLT' <'dflt' > 'latn' <'dflt' > 'thai' <'KUY ' 'MLY ' 'PAL ' 'SAN ' 'THA ' 'dflt' > ) ]
Lookup: 6 0 0 "'ccmp' Thai Tone Macron Reordering" { "'ccmp' Thai Tone Macron Reordering"  } ['ccmp' ('DFLT' <'dflt' > 'latn' <'dflt' > 'thai' <'KUY ' 'MLY ' 'PAL ' 'SAN ' 'THA ' 'dflt' > ) ]
Lookup: 6 0 0 "'ccmp' Thai Below Vowel Macron Reordering" { "'ccmp' Thai Below Vowel Macron Reordering"  } ['ccmp' ('DFLT' <'dflt' > 'latn' <'dflt' > 'thai' <'KUY ' 'MLY ' 'PAL ' 'SAN ' 'THA ' 'dflt' > ) ]
Lookup: 4 0 0 "'ccmp' Patani Malay Ligatures" { "'ccmp' Patani Malay Ligatures"  } ['ccmp' ('DFLT' <'dflt' > 'thai' <'KUY ' 'MLY ' 'PAL ' 'SAN ' 'THA ' 'dflt' > ) ]

StartChar: uni0E34
Encoding: 3636 3636 0
Width: 0
Flags: W
HStem: 566 21G<-90.5 -79.5> 584 47<-410.301 -132.259> 726 40<-329.215 -205.66>
VStem: -105 40<566.003 579.862>
AnchorPoint: "AboveMark" -97 560 mark 0
AnchorPoint: "AboveMark" -97 780 basemark 0
AnchorPoint: "AboveBase" -62 560 mark 0
LayerCount: 3
Back
SplineSet
-319 757 m 0
 -298 763 -264 767 -243 765 c 0
 -193 761 -131 733 -127 713 c 0
 -125 704 -116 688 -106 676 c 0
 -91 659 -65 591 -65 572 c 0
 -65 569 -74 566 -85 566 c 0
 -96 566 -105 570 -105 575 c 0
 -105 580 -151 584 -223 584 c 0
 -379 585 -448 593 -461 609 c 0
 -468 619 -465 633 -448 661 c 0
 -423 703 -375 739 -319 757 c 0
-217 714 m 0
 -270 737 -307 729 -362 682 c 2
 -411 639 l 1
 -377 633 l 2
 -357 629 -330 628 -315 630 c 0
 -300 633 -252 631 -210 626 c 0
 -168 621 -131 618 -129 619 c 0
 -121 626 -192 703 -217 714 c 0
EndSplineSet
Fore
SplineSet
-465 621 m 0x70
 -465 655 -388 766 -255 766 c 0
 -205 766 -131 735 -127 713 c 0
 -125 704 -116 688 -106 676 c 0
 -91 659 -65 591 -65 572 c 0
 -65 569 -74 566 -85 566 c 0xb0
 -96 566 -105 570 -105 575 c 0
 -105 580 -151 584 -223 584 c 0
 -437 585 -465 599 -465 621 c 0x70
-131 619 m 0
 -129 619 -128 619 -128 621 c 0
 -128 634 -193 704 -217 714 c 0
 -236 722 -253 726 -269 726 c 0
 -299 726 -327 712 -362 682 c 2
 -411 639 l 1
 -377 633 l 2
 -364 630 -347 629 -333 629 c 0
 -312 629 -317 631 -292 631 c 0x70
 -239 631 -157 619 -131 619 c 0
EndSplineSet
Validated: 1
Layer: 2
SplineSet
-465 621 m 0,0,1
 -465 657 -465 657 -404 711.5 c 128,-1,2
 -343 766 -343 766 -255 766 c 0,3,4
 -218 766 -218 766 -174 748 c 128,-1,5
 -130 730 -130 730 -127 713 c 0,6,7
 -123 697 -123 697 -106 676 c 0,8,9
 -95 663 -95 663 -80 625 c 128,-1,10
 -65 587 -65 587 -65 572 c 0,11,12
 -65 566 -65 566 -85 566 c 128,-1,13
 -105 566 -105 566 -105 575 c 128,-1,14
 -105 584 -105 584 -223 584 c 0,15,16
 -326 584 -326 584 -380.5 589 c 128,-1,17
 -435 594 -435 594 -450 601.5 c 128,-1,18
 -465 609 -465 609 -465 621 c 0,0,1
-131 619 m 0,19,20
 -128 619 -128 619 -128 621 c 0,21,22
 -128 631 -128 631 -163.5 669 c 128,-1,23
 -199 707 -199 707 -217 714 c 0,24,25
 -245 726 -245 726 -269 726 c 0,26,27
 -311 726 -311 726 -362 682 c 2,28,-1
 -411 639 l 1,29,-1
 -377 633 l 2,30,31
 -360 629 -360 629 -333 629 c 0,32,33
 -323 629 -323 629 -314 630 c 128,-1,34
 -305 631 -305 631 -292 631 c 0,35,36
 -262 631 -262 631 -201.5 625 c 128,-1,37
 -141 619 -141 619 -131 619 c 0,19,20
EndSplineSet
EndChar

StartChar: uni0E35
Encoding: 3637 3637 1
Width: 0
Flags: W
HStem: 591 90<-136.95 -81.5> 641 40<-172 -122> 647 51<-418.971 -222.032> 714 17<-467 -394> 731 39<-411.609 -236.218>
VStem: -523 104<664.5 706.994>
AnchorPoint: "AboveMark" -83 560 mark 0
AnchorPoint: "AboveMark" -83 780 basemark 0
AnchorPoint: "AboveBase" -62 560 mark 0
LayerCount: 3
Back
SplineSet
-105 799 m 0
 -100 808 -87 814 -74 814 c 2
 -52 814 l 5
 -58 725 l 2
 -66 618 -72 595 -92 591 c 0
 -100 589 -122 600 -139 614 c 0
 -156 628 -171 640 -172 641 c 0
 -173 641 -249 644 -342 647 c 0
 -488 651 -512 654 -520 666 c 0
 -527 677 -524 686 -503 706 c 0
 -489 720 -473 731 -467 731 c 0
 -461 731 -451 736 -446 742 c 0
 -441 748 -409 758 -376 764 c 0
 -282 780 -223 766 -167 713 c 0
 -143 690 -123 677 -119 682 c 0
 -115 687 -113 712 -113 738 c 0
 -113 763 -110 791 -105 799 c 0
-254 719 m 0
 -289 733 -336 735 -356 723 c 0
 -364 718 -381 714 -394 714 c 0
 -408 714 -419 711 -419 706 c 0
 -419 701 -380 698 -321 698 c 0
 -266 698 -222 700 -222 702 c 0
 -222 705 -237 712 -254 719 c 0
EndSplineSet
Fore
SplineSet
-113 738 m 0x8c
 -113 783 -112 814 -74 814 c 2
 -52 814 l 1
 -58 725 l 1
 -65 637 -69 591 -94 591 c 0x8c
 -117 591 -172 641 -172 641 c 2x44
 -173 641 -249 644 -342 647 c 0
 -495 651 -523 653 -523 676 c 0
 -523 694 -477 731 -467 731 c 0x34
 -445 731 -466 748 -376 764 c 0
 -352 768 -330 770 -310 770 c 0
 -186 770 -153 681 -122 681 c 0
 -117 681 -113 693 -113 738 c 0x8c
-222 702 m 0
 -222 707 -270 731 -317 731 c 0x2c
 -361 731 -355 714 -394 714 c 0
 -408 714 -419 711 -419 706 c 0
 -419 701 -380 698 -321 698 c 0x34
 -266 698 -222 700 -222 702 c 0
EndSplineSet
Validated: 1
Layer: 2
SplineSet
-113 738 m 0,0,1
 -113 766 -113 766 -111.5 779 c 128,-1,2
 -110 792 -110 792 -101 803 c 128,-1,3
 -92 814 -92 814 -74 814 c 2,4,-1
 -52 814 l 1,5,-1
 -58 725 l 2,6,7
 -64 648 -64 648 -70.5 619.5 c 128,-1,8
 -77 591 -77 591 -94 591 c 0,9,10
 -104 591 -104 591 -123.5 603.5 c 128,-1,11
 -143 616 -143 616 -157.5 628.5 c 2,12,-1
 -172 641 l 1,13,-1
 -194 642 l 2,14,15
 -216 643 -216 643 -258.5 644.5 c 128,-1,16
 -301 646 -301 646 -342 647 c 0,17,18
 -461 650 -461 650 -492 654.5 c 128,-1,19
 -523 659 -523 659 -523 676 c 0,20,21
 -523 688 -523 688 -499.5 709.5 c 128,-1,22
 -476 731 -476 731 -467 731 c 0,23,24
 -460 731 -460 731 -456 734 c 128,-1,25
 -452 737 -452 737 -447.5 741.5 c 128,-1,26
 -443 746 -443 746 -424.5 752.5 c 128,-1,27
 -406 759 -406 759 -376 764 c 0,28,29
 -340 770 -340 770 -310 770 c 0,30,31
 -268 770 -268 770 -233 756 c 128,-1,32
 -198 742 -198 742 -180.5 725.5 c 128,-1,33
 -163 709 -163 709 -147 695 c 128,-1,34
 -131 681 -131 681 -122 681 c 128,-1,35
 -113 681 -113 681 -113 738 c 0,0,1
-222 702 m 0,36,37
 -222 705 -222 705 -235.5 711.5 c 128,-1,38
 -249 718 -249 718 -272.5 724.5 c 128,-1,39
 -296 731 -296 731 -317 731 c 0,40,41
 -340 731 -340 731 -357.5 722.5 c 128,-1,42
 -375 714 -375 714 -394 714 c 0,43,44
 -419 714 -419 714 -419 706 c 128,-1,45
 -419 698 -419 698 -321 698 c 0,46,47
 -222 698 -222 698 -222 702 c 0,36,37
EndSplineSet
EndChar

StartChar: uni0E36
Encoding: 3638 3638 2
Width: 0
Flags: W
HStem: 546 21G<-253 -234> 571 46<-169.604 -136.339> 590 57<-223.332 -208.012> 596 29<-507.991 -331.266> 663 45<-169.593 -129.405> 708 40<-453.803 -318.057>
VStem: -556 48<625.001 657.004> -129 40<621.386 684.5>
AnchorPoint: "AboveMark" -148 560 mark 0
AnchorPoint: "AboveMark" -148 780 basemark 0
AnchorPoint: "AboveBase" -92 560 mark 0
LayerCount: 3
Back
SplineSet
-472 718 m 0
 -430 743 -415 748 -380 748 c 0
 -327 748 -293 728 -266 682 c 0
 -255 663 -243 647 -239 647 c 0
 -234 647 -215 661 -194 679 c 0
 -162 705 -151 710 -127 708 c 0
 -101 706 -96 702 -91 681 c 0
 -86 662 -89 649 -100 628 c 0
 -124 582 -157 560 -175 577 c 0
 -179 580 -189 586 -198 588 c 0
 -212 593 -217 589 -223 569 c 0
 -235 537 -265 539 -271 573 c 0
 -274 596 -276 597 -313 595 c 0
 -335 594 -397 592 -453 591 c 2
 -553 589 l 1
 -556 613 l 2
 -557 626 -553 642 -547 648 c 0
 -542 654 -534 665 -529 673 c 0
 -525 681 -499 701 -472 718 c 0
-316 687 m 0
 -335 705 -345 709 -373 708 c 0
 -432 707 -444 702 -480 664 c 0
 -514 629 -514 628 -495 625 c 0
 -485 624 -435 627 -385 632 c 0
 -284 644 -278 648 -316 687 c 0
-136 639 m 0
 -125 662 -126 663 -144 663 c 0
 -165 663 -175 647 -167 628 c 0
 -160 610 -149 614 -136 639 c 0
EndSplineSet
Fore
SplineSet
-136 708 m 0xab
 -109 708 -89 704 -89 665 c 0
 -89 635 -129 571 -161 571 c 0xcb
 -173 571 -188 590 -207 590 c 0xa3
 -225 590 -220 546 -248 546 c 0
 -258 546 -268 555 -271 573 c 0
 -273 591 -275 596 -294 596 c 0
 -310 596 -326 593 -453 591 c 2
 -553 589 l 1
 -556 613 l 2
 -556 615 -556 617 -556 619 c 0
 -556 643 -544 650 -529 673 c 0
 -524 680 -499 701 -472 718 c 0
 -430 743 -415 748 -380 748 c 0x97
 -327 748 -293 728 -266 682 c 0
 -255 663 -243 647 -239 647 c 0
 -221 647 -178 708 -136 708 c 0xab
-508 631 m 0
 -508 626 -496 625 -489 625 c 0
 -472 625 -429 628 -385 632 c 1
 -320 640 -294 644 -294 657 c 0
 -294 664 -302 673 -316 687 c 0
 -333 703 -343 708 -366 708 c 0x97
 -434 708 -446 700 -480 664 c 0
 -499 644 -508 635 -508 631 c 0
-156 617 m 0xcb
 -145 617 -129 651 -129 658 c 0
 -129 663 -134 663 -144 663 c 0
 -160 663 -170 654 -170 641 c 0
 -170 632 -164 617 -156 617 c 0xcb
EndSplineSet
Validated: 1
Layer: 2
SplineSet
-136 708 m 128,-1,1
 -112 708 -112 708 -100.5 700 c 128,-1,2
 -89 692 -89 692 -89 665 c 0,3,4
 -89 641 -89 641 -113.5 606 c 128,-1,5
 -138 571 -138 571 -161 571 c 0,6,7
 -166 571 -166 571 -181.5 580.5 c 128,-1,8
 -197 590 -197 590 -207 590 c 0,9,10
 -215 590 -215 590 -224 568 c 128,-1,11
 -233 546 -233 546 -248 546 c 0,12,13
 -266 546 -266 546 -271 573 c 0,14,15
 -273 587 -273 587 -276.5 591.5 c 128,-1,16
 -280 596 -280 596 -294 596 c 0,17,18
 -299 596 -299 596 -312 595 c 128,-1,19
 -325 594 -325 594 -361 593 c 128,-1,20
 -397 592 -397 592 -453 591 c 2,21,-1
 -553 589 l 1,22,-1
 -556 613 l 1,23,-1
 -556 619 l 2,24,25
 -556 630 -556 630 -553.5 637 c 128,-1,26
 -551 644 -551 644 -541.5 656 c 128,-1,27
 -532 668 -532 668 -529 673 c 0,28,29
 -517 690 -517 690 -472 718 c 0,30,31
 -440 737 -440 737 -423 742.5 c 128,-1,32
 -406 748 -406 748 -380 748 c 0,33,34
 -305 748 -305 748 -266 682 c 0,35,36
 -246 647 -246 647 -239 647 c 0,37,38
 -233 647 -233 647 -196.5 677.5 c 128,-1,0
 -160 708 -160 708 -136 708 c 128,-1,1
-508 631 m 0,39,40
 -508 625 -508 625 -489 625 c 0,41,42
 -462 625 -462 625 -385 632 c 0,43,44
 -331 639 -331 639 -312.5 643.5 c 128,-1,45
 -294 648 -294 648 -294 657 c 0,46,47
 -294 665 -294 665 -316 687 c 0,48,49
 -338 708 -338 708 -366 708 c 0,50,51
 -415 708 -415 708 -434 700 c 128,-1,52
 -453 692 -453 692 -480 664 c 0,53,54
 -508 635 -508 635 -508 631 c 0,39,40
-156 617 m 0,55,56
 -149 617 -149 617 -139 634 c 128,-1,57
 -129 651 -129 651 -129 658 c 0,58,59
 -129 663 -129 663 -144 663 c 0,60,61
 -170 663 -170 663 -170 641 c 0,62,63
 -170 633 -170 633 -166 625 c 128,-1,64
 -162 617 -162 617 -156 617 c 0,55,56
EndSplineSet
EndChar

StartChar: uni0E37
Encoding: 3639 3639 3
Width: 0
Flags: W
HStem: 614 30<-429.727 -296.054> 724 42<-459.378 -332.52>
VStem: -551 55<627.5 693.203> -296 96<644.627 692.698> -251 70<710.159 842.794> -132 71<652.721 841.047>
AnchorPoint: "AboveMark" -156 560 mark 0
AnchorPoint: "AboveMark" -156 780 basemark 0
AnchorPoint: "AboveBase" -62 560 mark 0
LayerCount: 3
Back
SplineSet
-123 833 m 0
 -107 856 -100 856 -78 837 c 0
 -66 826 -61 803 -61 748 c 0
 -61 671 -76 637 -105 648 c 0
 -128 655 -142 805 -123 833 c 0
-231 843 m 0
 -211 855 -205 854 -189 837 c 0
 -178 825 -178 808 -188 749 c 0
 -194 709 -200 663 -200 646 c 0
 -200 630 -203 609 -206 601 c 0
 -215 582 -249 582 -262 602 c 0
 -269 614 -280 616 -308 611 c 0
 -443 587 -543 599 -550 640 c 0
 -555 675 -522 724 -478 746 c 0
 -413 779 -331 771 -279 727 c 2
 -256 709 l 1
 -251 772 l 2
 -247 810 -239 839 -231 843 c 0
-327 700 m 0
 -376 731 -413 732 -459 704 c 0
 -484 689 -498 674 -496 664 c 0
 -493 650 -478 647 -394 645 c 0
 -303 642 -296 643 -296 661 c 0
 -296 672 -310 689 -327 700 c 0
EndSplineSet
Fore
SplineSet
-132 776 m 0xe4
 -132 837 -112 851 -102 851 c 0
 -96 851 -88 846 -78 837 c 0
 -66 826 -61 803 -61 748 c 0
 -61 680 -73 646 -95 646 c 0
 -98 646 -101 647 -105 648 c 0
 -120 653 -132 722 -132 776 c 0xe4
-200 646 m 0xf4
 -200 614 -203 587 -232 587 c 0
 -265 587 -256 614 -285 614 c 0
 -304 614 -363 599 -433 599 c 0
 -492 599 -551 608 -551 647 c 0
 -551 695 -492 766 -392 766 c 0
 -350 766 -310 753 -279 727 c 1
 -256 709 l 1
 -251 772 l 2
 -247 810 -239 839 -231 843 c 0
 -222 848 -216 851 -211 851 c 0
 -206 851 -181 843 -181 810 c 0xec
 -181 777 -200 687 -200 646 c 0xf4
-296 661 m 0xf4
 -296 686 -353 724 -397 724 c 0
 -442 724 -496 683 -496 666 c 0
 -496 653 -487 644 -338 644 c 0
 -300 644 -296 648 -296 661 c 0xf4
EndSplineSet
Validated: 1
Layer: 2
SplineSet
-132 776 m 0,0,1
 -132 804 -132 804 -126.5 822 c 128,-1,2
 -121 840 -121 840 -114.5 845.5 c 128,-1,3
 -108 851 -108 851 -102 851 c 0,4,5
 -94 851 -94 851 -78 837 c 0,6,7
 -61 821 -61 821 -61 748 c 0,8,9
 -61 646 -61 646 -95 646 c 0,10,11
 -97 646 -97 646 -105 648 c 0,12,13
 -116 652 -116 652 -124 692.5 c 128,-1,14
 -132 733 -132 733 -132 776 c 0,0,1
-200 646 m 0,15,16
 -200 617 -200 617 -206 602 c 128,-1,17
 -212 587 -212 587 -232 587 c 0,18,19
 -249 587 -249 587 -260 600.5 c 128,-1,20
 -271 614 -271 614 -285 614 c 0,21,22
 -288 614 -288 614 -340 606.5 c 128,-1,23
 -392 599 -392 599 -433 599 c 0,24,25
 -551 599 -551 599 -551 647 c 0,26,27
 -551 688 -551 688 -506 727 c 128,-1,28
 -461 766 -461 766 -392 766 c 0,29,30
 -326 766 -326 766 -279 727 c 2,31,-1
 -256 709 l 1,32,-1
 -251 772 l 2,33,34
 -244 836 -244 836 -231 843 c 0,35,36
 -217 851 -217 851 -211 851 c 0,37,38
 -207 851 -207 851 -201 848 c 128,-1,39
 -195 845 -195 845 -188 835 c 128,-1,40
 -181 825 -181 825 -181 810 c 0,41,42
 -181 794 -181 794 -190.5 731 c 128,-1,43
 -200 668 -200 668 -200 646 c 0,15,16
-296 661 m 0,44,45
 -296 680 -296 680 -330.5 702 c 128,-1,46
 -365 724 -365 724 -397 724 c 0,47,48
 -428 724 -428 724 -462 702 c 128,-1,49
 -496 680 -496 680 -496 666 c 0,50,51
 -496 658 -496 658 -488.5 654 c 128,-1,52
 -481 650 -481 650 -445 647 c 128,-1,53
 -409 644 -409 644 -338 644 c 0,54,55
 -311 644 -311 644 -303.5 647.5 c 128,-1,56
 -296 651 -296 651 -296 661 c 0,44,45
EndSplineSet
EndChar

StartChar: uni0E38
Encoding: 3640 3640 4
Width: 0
Flags: W
HStem: -133 26<-288.988 -224.697> -68 30<-280.296 -228.075>
VStem: -323 34<-118 -74.5886> -220 37<-283.494 -132.029>
AnchorPoint: "BelowMark" -182 -38 mark 0
AnchorPoint: "BelowMark" -182 -327 basemark 0
AnchorPoint: "BelowBase" -182 -38 mark 0
LayerCount: 3
Back
SplineSet
-281 -50 m 0
 -250 -28 -216 -36 -199 -71 c 0
 -191 -88 -188 -113 -186 -191 c 2
 -183 -289 l 1
 -197 -285 l 2
 -204 -282 -213 -277 -215 -274 c 0
 -218 -270 -220 -237 -220 -200 c 2
 -220 -132 l 1
 -267 -133 l 2
 -314 -133 -315 -133 -321 -118 c 0
 -325 -105 -324 -98 -313 -82 c 0
 -306 -72 -291 -57 -281 -50 c 0
-228 -87 m 0
 -228 -71 -231 -69 -246 -68 c 0
 -266 -66 -274 -70 -283 -88 c 0
 -293 -107 -292 -108 -259 -106 c 0
 -230 -104 -228 -103 -228 -87 c 0
EndSplineSet
Fore
SplineSet
-323 -106 m 0
 -323 -87 -283 -38 -246 -38 c 0
 -227 -38 -210 -49 -199 -71 c 0
 -191 -88 -188 -113 -186 -191 c 2
 -183 -289 l 1
 -197 -285 l 2
 -220 -279 -220 -269 -220 -200 c 2
 -220 -132 l 1
 -243 -132 -265 -133 -288 -133 c 0
 -309 -133 -323 -130 -323 -106 c 0
-276 -107 m 0
 -228 -107 -228 -102 -228 -87 c 0
 -228 -74 -229 -68 -254 -68 c 0
 -279 -68 -289 -98 -289 -102 c 0
 -289 -106 -285 -107 -276 -107 c 0
EndSplineSet
Validated: 1
Layer: 2
SplineSet
-323 -106 m 0,0,1
 -323 -90 -323 -90 -297.5 -64 c 128,-1,2
 -272 -38 -272 -38 -246 -38 c 0,3,4
 -216 -38 -216 -38 -199 -71 c 0,5,6
 -189 -93 -189 -93 -186 -191 c 2,7,-1
 -183 -289 l 1,8,-1
 -197 -285 l 2,9,10
 -214 -281 -214 -281 -217 -267.5 c 128,-1,11
 -220 -254 -220 -254 -220 -200 c 2,12,-1
 -220 -132 l 1,13,14
 -232 -132 -232 -132 -254 -132.5 c 128,-1,15
 -276 -133 -276 -133 -288 -133 c 0,16,17
 -306 -133 -306 -133 -314.5 -128 c 128,-1,18
 -323 -123 -323 -123 -323 -106 c 0,0,1
-276 -107 m 0,19,20
 -242 -107 -242 -107 -235 -103.5 c 128,-1,21
 -228 -100 -228 -100 -228 -87 c 0,22,23
 -228 -79 -228 -79 -229 -76 c 128,-1,24
 -230 -73 -230 -73 -236 -70.5 c 128,-1,25
 -242 -68 -242 -68 -254 -68 c 0,26,27
 -270 -68 -270 -68 -279.5 -81.5 c 128,-1,28
 -289 -95 -289 -95 -289 -102 c 0,29,30
 -289 -107 -289 -107 -276 -107 c 0,19,20
EndSplineSet
Substitution2: "Thai Sara U Macron Reordering" macronbelowcmb
Substitution2: "Thai Sara U Phinthu Reordering" uni0E3A
Substitution2: "Thai Sara U Mai Ek Reordering" uni0E48.low
Substitution2: "Thai Sara U Mai Tho Reordering" uni0E49.low
Substitution2: "Thai Sara U Mai Tri Reordering" uni0E4A.low
Substitution2: "Thai Sara U Mai Chattawa Reordering" uni0E4B.low
Substitution2: "Thai Sara U Thanthakhat Reordering" uni0E4C.low
Substitution2: "Thai Sara U Nikhahit Reordering" uni0E4D
EndChar

StartChar: uni0E39
Encoding: 3641 3641 5
Width: 0
Flags: W
HStem: -125 18<-331.109 -284.559> -69 18<-324.681 -284.873>
VStem: -369 35<-106.09 -76.7879> -280 33<-104.689 -70.1426> -214 49<-165 -59.4797>
AnchorPoint: "BelowMark" -182 -38 mark 0
AnchorPoint: "BelowMark" -182 -280 basemark 0
AnchorPoint: "BelowBase" -182 -38 mark 0
LayerCount: 3
Back
SplineSet
-332 -62 m 0
 -322 -56 -306 -51 -296 -51 c 0
 -276 -51 -247 -70 -247 -84 c 0
 -247 -88 -244 -92 -241 -92 c 0
 -238 -92 -235 -99 -235 -106 c 0
 -235 -114 -232 -135 -228 -152 c 2
 -221 -183 l 1
 -214 -165 l 2
 -211 -155 -206 -129 -203 -107 c 0
 -199 -61 -189 -44 -173 -57 c 0
 -162 -66 -162 -86 -173 -137 c 0
 -184 -187 -204 -237 -216 -241 c 0
 -229 -246 -247 -224 -247 -203 c 0
 -247 -177 -264 -115 -272 -115 c 0
 -275 -115 -287 -119 -298 -122 c 0
 -320 -131 -362 -121 -368 -106 c 0
 -372 -96 -356 -77 -332 -62 c 0
-290 -73 m 0
 -298 -67 -305 -68 -321 -75 c 0
 -350 -90 -324 -116 -294 -104 c 0
 -277 -97 -276 -83 -290 -73 c 0
EndSplineSet
Fore
SplineSet
-369 -103 m 0
 -369 -86 -328 -51 -296 -51 c 0
 -276 -51 -247 -70 -247 -84 c 0
 -247 -88 -244 -92 -241 -92 c 0
 -238 -92 -235 -99 -235 -106 c 0
 -235 -114 -232 -135 -228 -152 c 2
 -221 -183 l 1
 -214 -165 l 1
 -201 -120 -204 -53 -183 -53 c 0
 -176 -53 -165 -59 -165 -81 c 0
 -165 -117 -195 -242 -220 -242 c 0
 -232 -242 -247 -222 -247 -203 c 0
 -247 -177 -264 -115 -272 -115 c 0
 -279 -115 -299 -125 -318 -125 c 0
 -338 -125 -369 -116 -369 -103 c 0
-280 -88 m 0
 -280 -81 -290 -69 -301 -69 c 0
 -310 -69 -334 -78 -334 -91 c 0
 -334 -99 -323 -107 -309 -107 c 0
 -296 -107 -280 -100 -280 -88 c 0
EndSplineSet
Validated: 1
Layer: 2
SplineSet
-369 -103 m 0,0,1
 -369 -89 -369 -89 -344 -70 c 128,-1,2
 -319 -51 -319 -51 -296 -51 c 0,3,4
 -281 -51 -281 -51 -264 -62.5 c 128,-1,5
 -247 -74 -247 -74 -247 -84 c 0,6,7
 -247 -92 -247 -92 -241 -92 c 128,-1,8
 -235 -92 -235 -92 -235 -106 c 0,9,10
 -235 -122 -235 -122 -228 -152 c 2,11,-1
 -221 -183 l 1,12,-1
 -214 -165 l 2,13,14
 -209 -149 -209 -149 -205.5 -118 c 128,-1,15
 -202 -87 -202 -87 -197 -70 c 128,-1,16
 -192 -53 -192 -53 -183 -53 c 0,17,18
 -165 -53 -165 -53 -165 -81 c 0,19,20
 -165 -114 -165 -114 -184 -178 c 128,-1,21
 -203 -242 -203 -242 -220 -242 c 0,22,23
 -229 -242 -229 -242 -238 -229.5 c 128,-1,24
 -247 -217 -247 -217 -247 -203 c 0,25,26
 -247 -183 -247 -183 -256.5 -149 c 128,-1,27
 -266 -115 -266 -115 -272 -115 c 0,28,29
 -274 -115 -274 -115 -290.5 -120 c 128,-1,30
 -307 -125 -307 -125 -318 -125 c 0,31,32
 -335 -125 -335 -125 -352 -118.5 c 128,-1,33
 -369 -112 -369 -112 -369 -103 c 0,0,1
-280 -88 m 0,34,35
 -280 -82 -280 -82 -286.5 -75.5 c 128,-1,36
 -293 -69 -293 -69 -301 -69 c 0,37,38
 -310 -69 -310 -69 -322 -75.5 c 128,-1,39
 -334 -82 -334 -82 -334 -91 c 0,40,41
 -334 -97 -334 -97 -326.5 -102 c 128,-1,42
 -319 -107 -319 -107 -309 -107 c 0,43,44
 -298 -107 -298 -107 -289 -101.5 c 128,-1,45
 -280 -96 -280 -96 -280 -88 c 0,34,35
EndSplineSet
Substitution2: "Thai Sara UU Macron Reordering" macronbelowcmb
Substitution2: "Thai Sara UU Phinthu Reordering" uni0E3A
Substitution2: "Thai Sara UU Mai Ek Reordering" uni0E48.low
Substitution2: "Thai Sara UU Mai Tho Reordering" uni0E49.low
Substitution2: "Thai Sara UU Mai Tri Reordering" uni0E4A.low
Substitution2: "Thai Sara UU Mai Chattawa Reordering" uni0E4B.low
Substitution2: "Thai Sara UU Thanthakhat Reordering" uni0E4C.low
Substitution2: "Thai Sara UU Nikhahit Reordering" uni0E4D
EndChar

StartChar: uni0E3A
Encoding: 3642 3642 6
Width: 0
Flags: W
HStem: -199 145<-301.435 -229.486>
VStem: -341 145<-164.965 -93.2739>
AnchorPoint: "BelowMark" -182 -38 mark 0
AnchorPoint: "BelowMark" -182 -237 basemark 0
AnchorPoint: "BelowBase" -182 -38 mark 0
LayerCount: 3
Back
SplineSet
-266 -57 m 4
 -167 -32 -179 -179 -268 -197 c 4
 -380 -218 -349 -77 -266 -57 c 4
EndSplineSet
Fore
SplineSet
-341 -151 m 0
 -341 -107 -300 -54 -245 -54 c 0
 -212 -54 -196 -78 -196 -107 c 0
 -196 -148 -228 -199 -289 -199 c 0
 -325 -199 -341 -178 -341 -151 c 0
EndSplineSet
Validated: 1
Layer: 2
SplineSet
-341 -151 m 0,0,1
 -341 -116 -341 -116 -312.5 -85 c 128,-1,2
 -284 -54 -284 -54 -245 -54 c 0,3,4
 -221 -54 -221 -54 -208.5 -69 c 128,-1,5
 -196 -84 -196 -84 -196 -107 c 0,6,7
 -196 -141 -196 -141 -221 -170 c 128,-1,8
 -246 -199 -246 -199 -289 -199 c 0,9,10
 -315 -199 -315 -199 -328 -185.5 c 128,-1,11
 -341 -172 -341 -172 -341 -151 c 0,0,1
EndSplineSet
Substitution2: "Thai Phinthu Macron Reordering" macronbelowcmb
Substitution2: "Thai Sara UU Phinthu Reordering" uni0E39
Substitution2: "Thai Sara U Phinthu Reordering" uni0E38
Substitution2: "Thai Phinthu Maitaikhu Reordering" uni0E47
Substitution2: "Thai Phinthu Mai Ek Reordering" uni0E48.low
Substitution2: "Thai Phinthu Mai Tho Reordering" uni0E49.low
Substitution2: "Thai Phinthu Mai Tri Reordering" uni0E4A.low
Substitution2: "Thai Phinthu Mai Chattawa Reordering" uni0E4B.low
Substitution2: "Thai Phinthu Thanthakhat Reordering" uni0E4C.low
Substitution2: "Thai Phinthu Nikhahit Reordering" uni0E4D
EndChar

StartChar: uni0E48
Encoding: 3656 3656 7
Width: 0
Flags: W
HStem: 843 127<-121 -89.133>
VStem: -127 38<849.625 970>
AnchorPoint: "AboveMark" -108 1038 basemark 0
AnchorPoint: "AboveMark" -108 780 mark 0
LayerCount: 3
Back
SplineSet
-121 970 m 1
 -89 970 l 1
 -89 877 l 0
 -89 862 -79 844 -127 843 c 1
 -121 970 l 1
EndSplineSet
Fore
SplineSet
-121 970 m 1
 -89 970 l 1
 -89 877 l 2
 -89 873 -88 868 -88 863 c 0
 -88 853 -93 844 -127 843 c 1
 -121 970 l 1
EndSplineSet
Validated: 1
Layer: 2
SplineSet
-121 970 m 1,0,-1
 -89 970 l 1,1,-1
 -89 877 l 2,2,3
 -89 875 -89 875 -88.5 870.5 c 128,-1,4
 -88 866 -88 866 -88 863 c 0,5,6
 -88 844 -88 844 -127 843 c 1,7,-1
 -121 970 l 1,0,-1
EndSplineSet
Substitution2: "Thai Mai Ek Macron Reordering" macronbelowcmb
Substitution2: "Thai Mai Ek Tilde Reordering" tildecomb
MultipleSubs2: "Thai Tone Nikhahit Attachment" uni0E4D uni0E48
Substitution2: "Thai Tone Low Variant" uni0E48.low
Substitution2: "Thai Sara U Mai Ek Reordering" uni0E38
Substitution2: "Thai Sara UU Mai Ek Reordering" uni0E39
Substitution2: "Thai Phinthu Mai Ek Reordering" uni0E3A
EndChar

StartChar: uni0E49
Encoding: 3657 3657 8
Width: 0
Flags: W
HStem: 969 28<-141.908 -119.272>
VStem: -170 28<922.83 968.795> -115 27<922.275 963.146>
AnchorPoint: "AboveMark" -100 1038 basemark 0
AnchorPoint: "AboveMark" -100 780 mark 0
LayerCount: 3
Back
SplineSet
-11 996 m 0
 -4 1007 13 1008 17 999 c 4
 21 987 13 973 -17 943 c 0
 -34 925 -49 909 -49 906 c 0
 -49 904 -65 887 -85 870 c 0
 -142 819 -149 813 -156 813 c 0
 -159 813 -169 807 -177 799 c 0
 -188 789 -196 785 -202 786 c 0
 -223 789 -211 819 -169 864 c 2
 -147 889 l 1
 -153 901 l 2
 -157 908 -162 918 -165 923 c 0
 -171 934 -171 986 -165 992 c 0
 -163 995 -151 997 -139 997 c 0
 -119 997 -116 996 -103 982 c 0
 -89 969 -88 966 -88 945 c 0
 -88 930 -90 919 -95 910 c 0
 -106 892 -99 894 -85 912 c 0
 -79 919 -61 940 -46 956 c 0
 -30 973 -14 991 -11 996 c 0
-125 960 m 0
 -140 972 -142 971 -142 959 c 0
 -142 945 -131 920 -125 922 c 0
 -123 923 -119 930 -117 937 c 0
 -114 949 -114 951 -125 960 c 0
EndSplineSet
Fore
SplineSet
-170 959 m 0
 -170 991 -170 997 -139 997 c 0
 -119 997 -117 996 -103 982 c 0
 -89 968 -88 966 -88 945 c 0
 -88 910 -100 909 -100 897 c 1
 -90 906 -43 958 -11 996 c 0
 -6 1001 0 1005 6 1005 c 0
 12 1005 18 1003 18 993 c 0
 18 968 -49 916 -49 906 c 0
 -49 902 -143 813 -156 813 c 0
 -166 813 -186 786 -200 786 c 0
 -205 786 -212 788 -212 797 c 0
 -212 813 -196 833 -169 864 c 2
 -147 889 l 1
 -153 901 l 2
 -165 925 -170 927 -170 959 c 0
-115 947 m 0
 -115 955 -135 969 -139 969 c 0
 -141 969 -142 965 -142 959 c 0
 -142 946 -132 922 -126 922 c 0
 -122 922 -115 941 -115 947 c 0
EndSplineSet
Validated: 1
Layer: 2
SplineSet
-170 959 m 0,0,1
 -170 984 -170 984 -165.5 990.5 c 128,-1,2
 -161 997 -161 997 -139 997 c 0,3,4
 -124 997 -124 997 -119 995 c 128,-1,5
 -114 993 -114 993 -103 982 c 128,-1,6
 -92 971 -92 971 -90 966 c 128,-1,7
 -88 961 -88 961 -88 945 c 0,8,9
 -88 925 -88 925 -94 912.5 c 128,-1,10
 -100 900 -100 900 -100 897 c 1,11,12
 -77 918 -77 918 -11 996 c 0,13,14
 -2 1005 -2 1005 6 1005 c 0,15,16
 18 1005 18 1005 18 993 c 0,17,18
 18 979 18 979 -15.5 944 c 128,-1,19
 -49 909 -49 909 -49 906 c 0,20,21
 -49 902 -49 902 -98 857.5 c 128,-1,22
 -147 813 -147 813 -156 813 c 0,23,24
 -160 813 -160 813 -176 799.5 c 128,-1,25
 -192 786 -192 786 -200 786 c 0,26,27
 -212 786 -212 786 -212 797 c 0,28,29
 -212 815 -212 815 -169 864 c 2,30,-1
 -147 889 l 1,31,-1
 -153 901 l 2,32,33
 -155 905 -155 905 -159 912.5 c 128,-1,34
 -163 920 -163 920 -164 923 c 128,-1,35
 -165 926 -165 926 -167 931.5 c 128,-1,36
 -169 937 -169 937 -169.5 943.5 c 128,-1,37
 -170 950 -170 950 -170 959 c 0,0,1
-115 947 m 128,-1,39
 -115 952 -115 952 -125 960.5 c 128,-1,40
 -135 969 -135 969 -139 969 c 0,41,42
 -142 969 -142 969 -142 959 c 128,-1,43
 -142 949 -142 949 -136 935.5 c 128,-1,44
 -130 922 -130 922 -126 922 c 0,45,46
 -123 922 -123 922 -119 932 c 128,-1,38
 -115 942 -115 942 -115 947 c 128,-1,39
EndSplineSet
Substitution2: "Thai Mai Tho Macron Reordering" macronbelowcmb
Substitution2: "Thai Mai Tho Tilde Reordering" tildecomb
MultipleSubs2: "Thai Tone Nikhahit Attachment" uni0E4D uni0E49
Substitution2: "Thai Tone Low Variant" uni0E49.low
Substitution2: "Thai Sara U Mai Tho Reordering" uni0E38
Substitution2: "Thai Sara UU Mai Tho Reordering" uni0E39
Substitution2: "Thai Phinthu Mai Tho Reordering" uni0E3A
EndChar

StartChar: uni0E4B
Encoding: 3659 3659 9
Width: 0
Flags: W
HStem: 877 48<-201.517 -110.359> 898 28<-78.8643 -12>
VStem: -117 28<821 839> -111 32<926.84 996.92>
AnchorPoint: "AboveMark" -103 1038 basemark 0
AnchorPoint: "AboveMark" -103 780 mark 0
LayerCount: 3
Back
SplineSet
-109 993 m 0
 -108 996 -102 997 -96 997 c 0
 -84 995 -80 985 -79 948 c 2
 -79 926 l 1
 -45 925 l 1
 -12 924 l 1
 -12 911 l 1
 -12 899 l 1
 -45 897 l 2
 -84 896 -83 911 -87 839 c 6
 -89 821 l 1
 -103 821 l 1
 -117 821 l 1
 -116 841 l 2
 -115 867 -114 879 -113 886 c 2
 -110 898 l 1
 -133 895 l 2
 -146 894 -163 889 -171 884 c 0
 -192 872 -202 874 -203 891 c 0
 -205 903 -203 905 -185 914 c 0
 -173 920 -155 924 -136 925 c 2
 -106 927 l 1
 -109 958 l 2
 -111 975 -111 991 -109 993 c 0
EndSplineSet
Fore
SplineSet
-193 877 m 0xa0
 -200 877 -204 886 -204 897 c 0
 -204 913 -159 924 -136 925 c 2xa0
 -106 927 l 1
 -109 958 l 2
 -110 968 -111 975 -111 981 c 0
 -111 995 -107 997 -96 997 c 0
 -86 997 -79 985 -79 948 c 2
 -79 926 l 1x50
 -12 924 l 1
 -12 899 l 1
 -24 898 -36 897 -49 897 c 0
 -58 897 -64 898 -69 898 c 0
 -84 898 -84 891 -87 839 c 1
 -89 821 l 1
 -117 821 l 1
 -116 841 l 2
 -115 867 -114 879 -113 886 c 2
 -110 898 l 1x60
 -133 895 l 2
 -172 890 -175 877 -193 877 c 0xa0
EndSplineSet
Validated: 1
Layer: 2
SplineSet
-193 877 m 0,0,1
 -204 877 -204 877 -204 897 c 0,2,3
 -204 908 -204 908 -180.5 916 c 128,-1,4
 -157 924 -157 924 -136 925 c 2,5,-1
 -106 927 l 1,6,-1
 -109 958 l 2,7,8
 -111 978 -111 978 -111 981 c 0,9,10
 -111 991 -111 991 -108 994 c 128,-1,11
 -105 997 -105 997 -96 997 c 0,12,13
 -79 997 -79 997 -79 948 c 2,14,-1
 -79 926 l 1,15,-1
 -12 924 l 1,16,-1
 -12 899 l 1,17,18
 -36 897 -36 897 -49 897 c 0,19,20
 -54 897 -54 897 -60.5 897.5 c 128,-1,21
 -67 898 -67 898 -69 898 c 0,22,23
 -80 898 -80 898 -82.5 889 c 128,-1,24
 -85 880 -85 880 -87 839 c 2,25,-1
 -89 821 l 1,26,-1
 -117 821 l 1,27,-1
 -116 841 l 2,28,29
 -115 874 -115 874 -113 886 c 2,30,-1
 -110 898 l 1,31,-1
 -133 895 l 2,32,33
 -154 892 -154 892 -169.5 884.5 c 128,-1,34
 -185 877 -185 877 -193 877 c 0,0,1
EndSplineSet
Substitution2: "Thai Mai Chattawa Macron Reordering" macronbelowcmb
Substitution2: "Thai Mai Chattawa Tilde Reordering" tildecomb
MultipleSubs2: "Thai Tone Nikhahit Attachment" uni0E4D uni0E4B
Substitution2: "Thai Tone Low Variant" uni0E4B.low
Substitution2: "Thai Sara U Mai Chattawa Reordering" uni0E38
Substitution2: "Thai Sara UU Mai Chattawa Reordering" uni0E39
Substitution2: "Thai Phinthu Mai Chattawa Reordering" uni0E3A
EndChar

StartChar: uni0E4C
Encoding: 3660 3660 10
Width: 0
Flags: W
HStem: 824 19<-142 -94.884> 911 49<-57.1643 -19.5> 941 33<-128.103 -45.7135>
VStem: -187 39<865 922.978> -94 23<843.647 865.796> 1 27<1014.65 1051.99>
AnchorPoint: "AboveMark" -95 1038 basemark 0
AnchorPoint: "AboveMark" -95 780 mark 0
LayerCount: 3
Back
SplineSet
1 1045 m 0
 9 1055 23 1054 27 1042 c 0
 33 1026 -13 911 -25 911 c 0
 -28 911 -39 918 -48 926 c 0
 -74 948 -104 945 -136 918 c 0
 -157 900 -150 889 -115 886 c 0
 -76 882 -71 879 -71 862 c 4
 -71 843 -89 828 -117 825 c 0
 -137 822 -145 824 -162 837 c 0
 -186 856 -192 875 -182 901 c 0
 -172 925 -127 968 -108 973 c 0
 -92 977 -53 971 -43 963 c 0
 -35 956 -34 958 -17 1003 c 0
 -10 1021 -2 1041 1 1045 c 0
-94 855 m 0
 -94 866 -109 870 -121 862 c 0
 -129 856 -129 854 -122 848 c 0
 -112 839 -94 844 -94 855 c 0
EndSplineSet
Fore
SplineSet
-131 824 m 0xbc
 -153 824 -187 851 -187 879 c 0
 -187 914 -131 974 -95 974 c 0xbc
 -76 974 -51 969 -43 963 c 0
 -41 961 -39 960 -38 960 c 0
 -29 960 -8 1033 1 1045 c 0
 5 1050 10 1052 14 1052 c 0
 21 1052 28 1047 28 1038 c 0
 28 1012 -14 911 -25 911 c 0xdc
 -37 911 -53 941 -85 941 c 0
 -112 941 -148 914 -148 901 c 0
 -148 893 -137 888 -115 886 c 0
 -76 882 -71 879 -71 862 c 0
 -71 831 -113 824 -131 824 c 0xbc
-127 855 m 0
 -127 853 -120 843 -109 843 c 0
 -101 843 -94 848 -94 855 c 0
 -94 862 -100 866 -108 866 c 0
 -117 866 -127 859 -127 855 c 0
EndSplineSet
Validated: 1
Layer: 2
SplineSet
-131 824 m 0,0,1
 -149 824 -149 824 -168 841.5 c 128,-1,2
 -187 859 -187 859 -187 879 c 0,3,4
 -187 906 -187 906 -154.5 940 c 128,-1,5
 -122 974 -122 974 -95 974 c 0,6,7
 -58 974 -58 974 -43 963 c 0,8,9
 -40 960 -40 960 -38 960 c 0,10,11
 -34 960 -34 960 -26.5 978.5 c 128,-1,12
 -19 997 -19 997 -10.5 1018.5 c 128,-1,13
 -2 1040 -2 1040 1 1045 c 0,14,15
 7 1052 7 1052 14 1052 c 0,16,17
 28 1052 28 1052 28 1038 c 0,18,19
 28 1018 28 1018 5.5 964.5 c 128,-1,20
 -17 911 -17 911 -25 911 c 0,21,22
 -28 911 -28 911 -47 926 c 128,-1,23
 -66 941 -66 941 -85 941 c 128,-1,24
 -104 941 -104 941 -126 926 c 128,-1,25
 -148 911 -148 911 -148 901 c 0,26,27
 -148 889 -148 889 -115 886 c 0,28,29
 -86 883 -86 883 -78.5 879 c 128,-1,30
 -71 875 -71 875 -71 862 c 0,31,32
 -71 842 -71 842 -91 833 c 128,-1,33
 -111 824 -111 824 -131 824 c 0,0,1
-127 855 m 0,34,35
 -127 854 -127 854 -125 851 c 128,-1,36
 -123 848 -123 848 -118.5 845.5 c 128,-1,37
 -114 843 -114 843 -109 843 c 0,38,39
 -94 843 -94 843 -94 855 c 0,40,41
 -94 866 -94 866 -108 866 c 0,42,43
 -114 866 -114 866 -120.5 862 c 128,-1,44
 -127 858 -127 858 -127 855 c 0,34,35
EndSplineSet
Substitution2: "Thai Thanthakhat Macron Reordering" macronbelowcmb
MultipleSubs2: "Thai Tone Nikhahit Attachment" uni0E4D uni0E4C
Substitution2: "Thai Tone Low Variant" uni0E4C.low
Substitution2: "Thai Sara U Thanthakhat Reordering" uni0E38
Substitution2: "Thai Sara UU Thanthakhat Reordering" uni0E39
Substitution2: "Thai Phinthu Thanthakhat Reordering" uni0E3A
EndChar

StartChar: exclam
Encoding: 33 33 12
Width: 519
Flags: W
HStem: 17 106<225.144 273.338> 532 20G<225.5 239.5>
VStem: 201 118<18.783 97.8937>
LayerCount: 3
Back
SplineSet
244 119 m 0
 263 127 302 121 311 110 c 0
 322 96 321 70 309 38 c 0
 296 3 278 -6 253 8 c 0
 243 13 232 17 229 17 c 0
 217 17 201 36 201 50 c 0
 201 69 228 112 244 119 c 0
217 550 m 0
 219 552 233 553 248 551 c 0
 262 549 290 545 309 544 c 2
 344 540 l 1
 341 503 l 2
 339 482 330 445 322 421 c 0
 308 381 288 301 279 251 c 0
 275 228 267 219 254 226 c 0
 244 231 240 255 232 361 c 0
 231 382 227 412 225 429 c 0
 222 446 221 472 223 486 c 0
 224 502 223 513 219 516 c 0
 211 520 210 543 217 550 c 0
EndSplineSet
Fore
SplineSet
274 2 m 0
 260 2 238 17 229 17 c 0
 217 17 201 36 201 50 c 0
 201 69 228 112 244 119 c 0
 250 122 258 123 267 123 c 0
 315 123 319 100 319 83 c 0
 319 60 304 2 274 2 c 0
212 534 m 0
 212 552 219 552 232 552 c 0
 247 552 278 546 309 544 c 1
 344 540 l 1
 341 503 l 2
 336 447 302 376 279 251 c 0
 276 233 270 224 262 224 c 0
 235 224 242 284 225 429 c 0
 223 440 222 455 222 468 c 0
 222 477 224 489 224 499 c 0
 224 507 223 513 219 516 c 0
 215 518 212 526 212 534 c 0
EndSplineSet
Validated: 1
Layer: 2
SplineSet
274 2 m 0,0,1
 266 2 266 2 249.5 9.5 c 128,-1,2
 233 17 233 17 229 17 c 0,3,4
 220 17 220 17 210.5 28 c 128,-1,5
 201 39 201 39 201 50 c 0,6,7
 201 64 201 64 216.5 89 c 128,-1,8
 232 114 232 114 244 119 c 0,9,10
 252 123 252 123 267 123 c 0,11,12
 319 123 319 123 319 83 c 0,13,14
 319 60 319 60 306.5 31 c 128,-1,15
 294 2 294 2 274 2 c 0,0,1
212 534 m 0,16,17
 212 546 212 546 216 549 c 128,-1,18
 220 552 220 552 232 552 c 0,19,20
 239 552 239 552 266 548.5 c 128,-1,21
 293 545 293 545 309 544 c 2,22,-1
 344 540 l 1,23,-1
 341 503 l 2,24,25
 339 477 339 477 315 396.5 c 128,-1,26
 291 316 291 316 279 251 c 0,27,28
 274 224 274 224 262 224 c 0,29,30
 254 224 254 224 249.5 230.5 c 128,-1,31
 245 237 245 237 242 255.5 c 128,-1,32
 239 274 239 274 237.5 293.5 c 128,-1,33
 236 313 236 313 232.5 353 c 128,-1,34
 229 393 229 393 225 429 c 0,35,36
 222 446 222 446 222 468 c 0,37,38
 222 472 222 472 223 483 c 128,-1,39
 224 494 224 494 224 499 c 0,40,41
 224 512 224 512 219 516 c 0,42,43
 212 520 212 520 212 534 c 0,16,17
EndSplineSet
EndChar

StartChar: quotedbl
Encoding: 34 34 13
Width: 572
Flags: W
HStem: 470 265<330.002 353.168>
VStem: 186 99<517.273 638.429> 186 88<525.894 673.501> 308 72<492.437 704.989>
LayerCount: 3
Back
SplineSet
194 695 m 0
 215 722 243 710 254 669 c 0
 259 649 269 615 274 594 c 0
 300 503 279 449 229 478 c 0
 201 494 172 667 194 695 c 0
311 717 m 0
 321 744 336 741 357 708 c 0
 367 691 376 641 378 577 c 0
 382 488 379 474 363 470 c 0
 351 468 338 477 330 492 c 0
 315 522 301 688 311 717 c 0
EndSplineSet
Fore
SplineSet
186 652 m 0xb0
 186 685 194 709 218 709 c 0
 247 709 258 663 274 594 c 1xb0
 282 567 285 544 285 525 c 0xd0
 285 491 274 470 254 470 c 0
 246 470 238 473 229 478 c 0
 208 490 186 591 186 652 c 0xb0
308 677 m 0
 308 704 311 735 328 735 c 0
 336 735 345 726 357 708 c 1
 374 678 380 579 380 522 c 0
 380 485 376 470 360 470 c 0
 349 470 337 478 330 492 c 0
 319 515 308 618 308 677 c 0
EndSplineSet
Validated: 1
Layer: 2
SplineSet
186 652 m 0,0,1
 186 709 186 709 218 709 c 0,2,3
 238 709 238 709 248.5 683 c 128,-1,4
 259 657 259 657 274 594 c 0,5,6
 285 557 285 557 285 525 c 0,7,8
 285 470 285 470 254 470 c 0,9,10
 243 470 243 470 229 478 c 0,11,12
 214 487 214 487 200 545.5 c 128,-1,13
 186 604 186 604 186 652 c 0,0,1
308 677 m 0,14,15
 308 735 308 735 328 735 c 0,16,17
 339 735 339 735 357 708 c 0,18,19
 380 667 380 667 380 522 c 0,20,21
 380 493 380 493 376 481.5 c 128,-1,22
 372 470 372 470 360 470 c 0,23,24
 341 470 341 470 330 492 c 0,25,26
 322 509 322 509 315 570 c 128,-1,27
 308 631 308 631 308 677 c 0,14,15
EndSplineSet
EndChar

StartChar: numbersign
Encoding: 35 35 14
Width: 655
Flags: W
HStem: 145 60<88.8835 196.573> 366 59<105.25 246.72> 378 59<184.125 247.415> 407 59<320.917 396.204> 422 72<480.004 524.104>
VStem: 187 66<4.79251 143.76> 264 54<467.22 569.945> 359 57<105.5 164.131> 428 54<517.651 580.269>
LayerCount: 3
Back
SplineSet
428 537 m 0
 437.996 572.441 443.863 582.282 457.609 582.282 c 0
 458.989 582.282 460.449 582.182 462 582 c 0
 476.925 579.512 481.537 574.275 481.537 552.035 c 0
 481.537 537.902 480.335 530.836 480.335 516.704 c 0
 480.335 495.297 485.058 494 506 494 c 0
 507.292 494.072 508.549 494.108 509.768 494.108 c 0
 522.987 494.108 537.449 489.814 537.449 472.641 c 0
 537.449 451.67 509.2 421.936 490.587 421.936 c 0
 488.599 421.936 486.722 422.275 485 423 c 0
 483.225 423.592 481.602 423.899 480.111 423.899 c 0
 471.52 423.899 467.26 413.709 463 389 c 0
 460 367 453 329 449 305 c 2
 441 261 l 1
 506 267 l 2
 527.373 268.973 541.826 270.297 551.457 270.297 c 0
 565.579 270.297 569.334 267.45 569.334 259.628 c 0
 569.334 256.56 568.756 252.727 568 248 c 0
 565 227 555 220 504 207 c 0
 422 185 417 182 416 131 c 0
 415 58 405 35 373 31 c 2
 344 28 l 1
 351 97 l 1
 359 165 l 1
 324 165 l 2
 273 165 266 156 253 82 c 0
 242.944 20.8931 230.496 -8.50338 214.265 -8.50338 c 0
 209.513 -8.50338 204.436 -5.98289 199 -1 c 0
 191 5.66667 187.444 15 187.444 36.1852 c 0
 187.444 46.7778 188.333 60.3333 190 78 c 2
 197 145 l 1
 140 145 l 2
 108 145 80 149 77 155 c 0
 75.4897 157.517 74.7714 160.114 74.7714 162.739 c 0
 74.7714 180.976 109.419 200.629 154 205 c 0
 210 211 217 219 229 286 c 0
 232 309 238 339 242 353 c 2
 248 378 l 1
 175 370 l 2
 151.333 367.667 135.333 366.222 124.519 366.222 c 0
 102.889 366.222 102 372 102 388 c 0
 102 408 111 414 148 425 c 0
 174 432 205 437 218 437 c 0
 250 437 256 448 264 515 c 0
 269 560 274 569 292 571 c 0
 294.968 571.424 297.556 571.688 299.821 571.688 c 0
 313.585 571.688 315.424 561.934 318 519 c 0
 320.463 474.662 320.904 466.055 337.589 466.055 c 0
 341.225 466.055 345.632 466.463 351 467 c 4
 400 473 414 485 428 537 c 0
387 312 m 0
 392.922 346.14 396.539 368.872 396.539 383.494 c 0
 396.539 400.876 391.428 406.798 379.005 406.798 c 0
 371.88 406.798 362.35 404.85 350 402 c 0
 304 392 305 393 289 272 c 2
 282 217 l 1
 312 223 l 2
 328 227 349 232 358 235 c 0
 370 238 378 261 387 312 c 0
EndSplineSet
Fore
SplineSet
338 466 m 0x9780
 404 466 419 502 428 534 c 0
 435 559 438 582 458 582 c 0
 480 582 482 567 482 552 c 0
 482 538 480 531 480 517 c 0
 480 495 486 494 505 494 c 2
 510 494 l 2
 523 494 537 490 537 473 c 0
 537 452 509 422 491 422 c 0x8f80
 485 422 484 424 480 424 c 0
 468 424 466 410 449 305 c 1
 441 261 l 1
 506 267 l 2
 527 269 542 270 551 270 c 0
 566 270 569 267 569 260 c 0
 569 224 548 218 504 207 c 0
 422 185 417 182 416 131 c 0
 415 58 405 35 373 31 c 2
 344 28 l 1
 351 97 l 1
 359 165 l 1
 324 165 l 2
 273 165 266 156 253 82 c 0
 243 21 230 -9 214 -9 c 0
 209 -9 187 -5 187 36 c 0
 187 47 188 60 190 78 c 2
 197 145 l 1
 140 145 l 2
 83 145 75 152 75 163 c 0
 75 181 109 201 154 205 c 0
 210 211 217 219 229 286 c 1
 232 309 238 339 242 353 c 2
 248 378 l 1xa780
 175 370 l 2
 151 368 135 366 125 366 c 0
 103 366 102 372 102 388 c 0
 102 408 111 414 148 425 c 0xc780
 174 432 205 437 218 437 c 0xa780
 250 437 256 448 264 515 c 0
 269 559 273 572 300 572 c 0
 314 572 315 562 318 519 c 1
 320 475 321 466 338 466 c 0x9780
358 235 m 0
 385 242 397 381 397 383 c 0
 397 401 391 407 379 407 c 0x9780
 372 407 362 405 350 402 c 0
 304 392 305 393 289 272 c 2
 282 217 l 1
 312 223 l 2
 328 227 349 232 358 235 c 0
EndSplineSet
Validated: 1
Layer: 2
SplineSet
338 466 m 0,0,1
 369 466 369 466 388.5 477.5 c 128,-1,2
 408 489 408 489 415 501.5 c 128,-1,3
 422 514 422 514 428 534 c 0,4,5
 429 537 429 537 430.5 543 c 128,-1,6
 432 549 432 549 433 552 c 128,-1,7
 434 555 434 555 435.5 560 c 128,-1,8
 437 565 437 565 438 567.5 c 128,-1,9
 439 570 439 570 441.5 573.5 c 128,-1,10
 444 577 444 577 446 578.5 c 128,-1,11
 448 580 448 580 451 581 c 128,-1,12
 454 582 454 582 458 582 c 0,13,14
 482 582 482 582 482 552 c 0,15,16
 482 545 482 545 481 534.5 c 128,-1,17
 480 524 480 524 480 517 c 0,18,19
 480 501 480 501 485 497.5 c 128,-1,20
 490 494 490 494 505 494 c 2,21,-1
 510 494 l 2,22,23
 537 494 537 494 537 473 c 0,24,25
 537 457 537 457 521 439.5 c 128,-1,26
 505 422 505 422 491 422 c 0,27,28
 488 422 488 422 485 423 c 128,-1,29
 482 424 482 424 480 424 c 0,30,31
 471 424 471 424 466.5 406 c 128,-1,32
 462 388 462 388 449 305 c 2,33,-1
 441 261 l 1,34,-1
 506 267 l 2,35,36
 537.5 270 537.5 270 551 270 c 0,37,38
 569 270 569 270 569 260 c 0,39,40
 569 235 569 235 555.5 225.5 c 128,-1,41
 542 216 542 216 504 207 c 0,42,43
 442 190 442 190 429.5 179.5 c 128,-1,44
 417 169 417 169 416 131 c 0,45,46
 415 76 415 76 406 55 c 128,-1,47
 397 34 397 34 373 31 c 2,48,-1
 344 28 l 1,49,-1
 351 97 l 1,50,-1
 359 165 l 1,51,-1
 324 165 l 2,52,53
 286 165 286 165 274.5 151.5 c 128,-1,54
 263 138 263 138 253 82 c 0,55,56
 238 -9 238 -9 214 -9 c 0,57,58
 210 -9 210 -9 204.5 -7 c 128,-1,59
 199 -5 199 -5 193 6.5 c 128,-1,60
 187 18 187 18 187 36 c 0,61,62
 187 51 187 51 190 78 c 2,63,-1
 197 145 l 1,64,-1
 140 145 l 2,65,66
 113 145 113 145 98 147.5 c 128,-1,67
 83 150 83 150 79 153.5 c 128,-1,68
 75 157 75 157 75 163 c 0,69,70
 75 177 75 177 98 189.5 c 128,-1,71
 121 202 121 202 154 205 c 0,72,73
 196 209 196 209 208 222.5 c 128,-1,74
 220 236 220 236 229 286 c 0,75,76
 234 326 234 326 242 353 c 2,77,-1
 248 378 l 1,78,-1
 175 370 l 2,79,80
 127 366 127 366 125 366 c 0,81,82
 110 366 110 366 106 370.5 c 128,-1,83
 102 375 102 375 102 388 c 0,84,85
 102 403 102 403 111 410 c 128,-1,86
 120 417 120 417 148 425 c 0,87,88
 193 437 193 437 218 437 c 0,89,90
 242 437 242 437 250 451 c 128,-1,91
 258 465 258 465 264 515 c 0,92,93
 268 550 268 550 274.5 561 c 128,-1,94
 281 572 281 572 300 572 c 0,95,96
 310 572 310 572 313 562.5 c 128,-1,97
 316 553 316 553 318 519 c 0,98,99
 319 500 319 500 319.5 491.5 c 128,-1,100
 320 483 320 483 322.5 476 c 128,-1,101
 325 469 325 469 328 467.5 c 128,-1,102
 331 466 331 466 338 466 c 0,0,1
358 235 m 0,103,104
 370 238 370 238 379.5 276 c 128,-1,105
 389 314 389 314 393 345.5 c 128,-1,106
 397 377 397 377 397 383 c 0,107,108
 397 407 397 407 379 407 c 0,109,110
 370 407 370 407 350 402 c 0,111,112
 316 395 316 395 308.5 379 c 128,-1,113
 301 363 301 363 289 272 c 2,114,-1
 282 217 l 1,115,-1
 312 223 l 2,116,117
 352 233 352 233 358 235 c 0,103,104
EndSplineSet
EndChar

StartChar: dollar
Encoding: 36 36 15
Width: 628
Flags: W
HStem: 527 51<372.001 399.96>
VStem: 171 57<402.646 483.155> 214 52<-145.523 3.79688> 278 32<123 312> 336 54<633.64 755.239> 410 56<171.905 303.582>
LayerCount: 3
Back
SplineSet
336 739 m 0
 339 750 351 756 367 756 c 0
 392 756 393 754 387 719 c 0
 370 624 367 578 378 578 c 0
 391 578 472 501 472 488 c 0
 472 466 447 470 410 499 c 0
 387 517 367 529 365 527 c 0
 364 525 359 494 355 458 c 2
 349 391 l 1
 381 375 l 2
 453 338 483 269 457 195 c 0
 434 129 396 86 349 72 c 0
 298 58 291 44 279 -57 c 0
 274 -101 268 -139 266 -141 c 0
 264 -142 251 -145 238 -147 c 0
 214 -149 213 -146 215 -104 c 0
 216 -80 222 -28 229 11 c 2
 241 82 l 1
 205 113 l 2
 140 168 100 281 146 281 c 0
 159 281 172 267 186 239 c 0
 198 217 217 186 227 173 c 2
 246 149 l 1
 253 188 l 2
 257 210 264 242 270 262 c 0
 284 318 281 338 254 344 c 0
 217 354 179 388 172 420 c 0
 163 462 220 553 270 576 c 0
 305 592 308 597 319 657 c 0
 325 693 333 730 336 739 c 0
294 433 m 0
 298 462 299 499 297 514 c 2
 294 544 l 1
 261 500 l 2
 243 476 228 449 228 439 c 0
 228 422 266 380 281 380 c 0
 285 380 291 404 294 433 c 0
386 306 m 0
 372 320 356 331 351 331 c 0
 339 331 320 248 312 161 c 0
 306 87 312 79 351 120 c 0
 413 185 428 266 386 306 c 0
EndSplineSet
Fore
SplineSet
459 474 m 0xdc
 432 474 380 527 366 527 c 0
 364 527 358 486 355 458 c 2
 349 391 l 1
 381 375 l 2
 436 347 466 300 466 247 c 0
 466 190 423 94 349 72 c 1
 298 58 291 44 279 -57 c 0
 274 -101 268 -139 266 -141 c 0
 264 -142 242 -147 229 -147 c 0
 217 -147 214 -143 214 -125 c 0xbc
 214 -84 224 -16 229 11 c 2
 241 82 l 1
 205 113 l 2
 159 152 126 219 126 255 c 0
 126 271 132 281 146 281 c 0
 174 281 186 226 227 173 c 2
 246 149 l 1
 253 188 l 2
 263 243 278 282 278 312 c 0
 278 331 271 340 254 344 c 0
 214 355 171 395 171 430 c 0
 171 475 224 555 270 576 c 0
 305 592 308 597 319 657 c 0
 325 693 333 730 336 739 c 0
 339 750 351 756 367 756 c 0
 384 756 390 755 390 743 c 0
 390 723 372 647 372 599 c 0
 372 585 374 578 378 578 c 0
 391 578 472 501 472 488 c 0
 472 479 467 474 459 474 c 0xdc
281 380 m 0
 288 380 298 446 298 493 c 0
 298 509 295 541 294 544 c 1
 261 500 l 2
 243 476 228 449 228 439 c 0xdc
 228 422 266 380 281 380 c 0
410 246 m 0
 410 309 351 331 351 331 c 1
 335 331 310 185 310 123 c 0
 310 104 313 95 319 95 c 0
 334 95 410 171 410 246 c 0
EndSplineSet
Validated: 1
Layer: 2
SplineSet
459 474 m 0,0,1
 444 474 444 474 407.5 500.5 c 128,-1,2
 371 527 371 527 366 527 c 0,3,4
 362 527 362 527 355 458 c 2,5,-1
 349 391 l 1,6,-1
 381 375 l 2,7,8
 466 332 466 332 466 247 c 0,9,10
 466 198 466 198 433 142.5 c 128,-1,11
 400 87 400 87 349 72 c 0,12,13
 311 62 311 62 299.5 40.5 c 128,-1,14
 288 19 288 19 279 -57 c 0,15,16
 270 -137 270 -137 266 -141 c 0,17,18
 254 -147 254 -147 229 -147 c 0,19,20
 220 -147 220 -147 217 -142.5 c 128,-1,21
 214 -138 214 -138 214 -125 c 0,22,23
 214 -70 214 -70 229 11 c 2,24,-1
 241 82 l 1,25,-1
 205 113 l 2,26,27
 172 141 172 141 149 184 c 128,-1,28
 126 227 126 227 126 255 c 0,29,30
 126 281 126 281 146 281 c 0,31,32
 158 281 158 281 168.5 266.5 c 128,-1,33
 179 252 179 252 195.5 222.5 c 128,-1,34
 212 193 212 193 227 173 c 2,35,-1
 246 149 l 1,36,-1
 253 188 l 2,37,38
 257 208 257 208 267.5 251.5 c 128,-1,39
 278 295 278 295 278 312 c 0,40,41
 278 338 278 338 254 344 c 0,42,43
 223 353 223 353 197 378.5 c 128,-1,44
 171 404 171 404 171 430 c 0,45,46
 171 464 171 464 203.5 512 c 128,-1,47
 236 560 236 560 270 576 c 0,48,49
 296 588 296 588 303.5 600 c 128,-1,50
 311 612 311 612 319 657 c 0,51,52
 329 719 329 719 336 739 c 0,53,54
 341 756 341 756 367 756 c 0,55,56
 381 756 381 756 385.5 754 c 128,-1,57
 390 752 390 752 390 743 c 0,58,59
 390 736 390 736 381 681 c 128,-1,60
 372 626 372 626 372 599 c 0,61,62
 372 578 372 578 378 578 c 0,63,64
 388 578 388 578 430 538 c 128,-1,65
 472 498 472 498 472 488 c 0,66,67
 472 474 472 474 459 474 c 0,0,1
281 380 m 0,68,69
 286 380 286 380 292 419 c 128,-1,70
 298 458 298 458 298 493 c 0,71,72
 298 532 298 532 294 544 c 1,73,-1
 261 500 l 2,74,75
 228 456 228 456 228 439 c 0,76,77
 228 426 228 426 249 403 c 128,-1,78
 270 380 270 380 281 380 c 0,68,69
410 246 m 0,79,80
 410 274 410 274 395 295 c 128,-1,81
 380 316 380 316 365.5 323.5 c 2,82,-1
 351 331 l 1,83,84
 340 331 340 331 325 251.5 c 128,-1,85
 310 172 310 172 310 123 c 0,86,87
 310 95 310 95 319 95 c 128,-1,88
 328 95 328 95 349 116.5 c 128,-1,89
 370 138 370 138 390 175 c 128,-1,90
 410 212 410 212 410 246 c 0,79,80
EndSplineSet
EndChar

StartChar: percent
Encoding: 37 37 16
Width: 734
Flags: W
HStem: 342 144<169.579 235.398> 544 20G<604.5 623>
VStem: 154 101<361.114 468.974>
LayerCount: 3
Back
SplineSet
491 172 m 0
 522 204 542 203 566 170 c 0
 584 144 584 138 563 99 c 0
 536 48 484 26 454 55 c 0
 437 70 436 77 450 109 c 0
 459 129 477 158 491 172 c 0
176 473 m 0
 193 491 208 490 233 469 c 0
 277 433 249 342 194 342 c 0
 151 342 139 433 176 473 c 0
546 518 m 0
 610 572 632 577 632 538 c 0
 632 510 595 464 462 320 c 0
 431 286 388 235 368 208 c 0
 348 180 283 110 223 52 c 0
 144 -27 110 -52 95 -46 c 0
 58 -33 74 0 160 85 c 0
 251 175 381 323 449 415 c 0
 472 446 514 491 546 518 c 0
EndSplineSet
Fore
SplineSet
440 78 m 0
 440 104 492 195 530 195 c 0
 554 195 579 156 579 140 c 0
 579 121 542 42 486 42 c 0
 461 42 440 64 440 78 c 0
154 408 m 0
 154 457 181 486 200 486 c 0
 212 486 255 467 255 419 c 0
 255 381 230 342 194 342 c 0
 169 342 154 374 154 408 c 0
100 -47 m 0
 97 -47 76 -43 76 -25 c 0
 76 -5 103 28 160 85 c 0
 251 175 381 323 449 415 c 0
 497 480 591 564 618 564 c 0
 628 564 632 555 632 538 c 0
 632 484 464 337 368 208 c 0
 348 180 283 110 223 52 c 1
 151 -20 117 -47 100 -47 c 0
EndSplineSet
Validated: 1
Layer: 2
SplineSet
440 78 m 0,0,1
 440 101 440 101 472 148 c 128,-1,2
 504 195 504 195 530 195 c 0,3,4
 547 195 547 195 563 174.5 c 128,-1,5
 579 154 579 154 579 140 c 0,6,7
 579 119 579 119 551 80.5 c 128,-1,8
 523 42 523 42 486 42 c 0,9,10
 468 42 468 42 454 54.5 c 128,-1,11
 440 67 440 67 440 78 c 0,0,1
154 408 m 0,12,13
 154 442 154 442 169 464 c 128,-1,14
 184 486 184 486 200 486 c 0,15,16
 214 486 214 486 234.5 468 c 128,-1,17
 255 450 255 450 255 419 c 0,18,19
 255 389 255 389 237.5 365.5 c 128,-1,20
 220 342 220 342 194 342 c 0,21,22
 176 342 176 342 165 361.5 c 128,-1,23
 154 381 154 381 154 408 c 0,12,13
100 -47 m 0,24,25
 97 -47 97 -47 92 -45.5 c 128,-1,26
 87 -44 87 -44 81.5 -38.5 c 128,-1,27
 76 -33 76 -33 76 -25 c 0,28,29
 76 1 76 1 160 85 c 0,30,31
 229 153 229 153 313.5 249.5 c 128,-1,32
 398 346 398 346 449 415 c 0,33,34
 485 464 485 464 541.5 514 c 128,-1,35
 598 564 598 564 618 564 c 0,36,37
 632 564 632 564 632 538 c 0,38,39
 632 514 632 514 589 462 c 128,-1,40
 546 410 546 410 475.5 333.5 c 128,-1,41
 405 257 405 257 368 208 c 0,42,43
 331 157 331 157 223 52 c 0,44,45
 124 -47 124 -47 100 -47 c 0,24,25
EndSplineSet
EndChar

StartChar: ampersand
Encoding: 38 38 17
Width: 734
Flags: W
HStem: -45 70<181.022 252.261> 34 82<541.086 623.623> 551 62<251.194 314.122>
VStem: 116 61<26.966 156.675> 157 76<395.408 531.413> 301 64<452.279 550.396>
DStem2: 202 302 211 182 0.435302 0.900284<-217.613 -29.8974>
LayerCount: 3
Back
SplineSet
229 586 m 0
 259 604 291 616 299 613 c 0
 307 610 322 608 329 608 c 0
 338 608 351 588 358 564 c 0
 373 517 370 507 305 369 c 0
 282 321 280 307 291 292 c 0
 318 258 363 217 389 204 c 0
 419 189 436 203 489 288 c 0
 524 344 555 364 578 344 c 0
 602 325 599 317 542 245 c 0
 484 170 472 148 492 148 c 0
 499 148 513 141 522 132 c 0
 531 123 549 116 562 116 c 0
 599 116 651 84 651 61 c 0
 651 15 566 30 484 90 c 2
 446 117 l 1
 389 67 l 2
 330 16 241 -41 213 -45 c 0
 186 -48 146 -26 131 2 c 0
 104 51 112 116 158 211 c 2
 202 302 l 1
 184 357 l 2
 139 491 148 536 229 586 c 0
301 498 m 0
 301 558 297 561 259 535 c 0
 237 521 233 508 233 460 c 0
 233 428 237 399 242 396 c 0
 248 393 263 403 276 417 c 0
 294 437 301 458 301 498 c 0
339 165 m 0
 311 182 278 208 266 222 c 2
 245 248 l 1
 211 182 l 2
 174 112 167 50 192 29 c 0
 204 20 222 27 275 60 c 0
 312 83 353 104 364 106 c 0
 400 113 392 133 339 165 c 0
EndSplineSet
Fore
SplineSet
208 -45 m 0xec
 184 -45 116 -23 116 65 c 0xf4
 116 105 129 152 158 211 c 2
 202 302 l 1
 184 357 l 2
 166 409 157 448 157 479 c 0
 157 527 180 556 229 586 c 0
 256 602 284 613 296 613 c 0
 299 613 314 608 329 608 c 0
 344 608 365 555 365 527 c 0
 365 473 285 346 285 311 c 0
 285 285 377 199 408 199 c 0
 457 199 502 352 559 352 c 0
 574 352 592 335 592 323 c 0
 592 294 483 183 483 154 c 0
 483 150 486 148 492 148 c 0
 514 148 527 116 562 116 c 0
 599 116 651 84 651 61 c 0
 651 43 638 34 616 34 c 0
 584 34 533 54 484 90 c 2
 446 117 l 1
 389 67 l 2
 355 37 244 -45 208 -45 c 0xec
233 460 m 0xec
 233 446 234 395 245 395 c 0
 252 395 265 405 276 417 c 0
 294 437 301 458 301 498 c 0
 301 535 299 551 289 551 c 0
 283 551 273 545 259 535 c 0
 237 521 233 508 233 460 c 0xec
177 71 m 0xf4
 177 45 187 25 203 25 c 0
 232 25 329 100 364 106 c 0
 379 109 386 114 386 121 c 0
 386 146 304 178 266 222 c 1
 245 248 l 1
 211 182 l 2
 189 140 177 100 177 71 c 0xf4
EndSplineSet
Validated: 1
Layer: 2
SplineSet
208 -45 m 0,0,1
 180 -45 180 -45 148 -18.5 c 128,-1,2
 116 8 116 8 116 65 c 0,3,4
 116 126 116 126 158 211 c 2,5,-1
 202 302 l 1,6,-1
 184 357 l 2,7,8
 157 435 157 435 157 479 c 0,9,10
 157 514 157 514 174 538.5 c 128,-1,11
 191 563 191 563 229 586 c 0,12,13
 275 613 275 613 296 613 c 1,14,-1
 308 610.5 l 2,15,16
 320 608 320 608 329 608 c 0,17,18
 340 608 340 608 352.5 578.5 c 128,-1,19
 365 549 365 549 365 527 c 0,20,21
 365 498 365 498 325 412 c 128,-1,22
 285 326 285 326 285 311 c 0,23,24
 285 291 285 291 335 245 c 128,-1,25
 385 199 385 199 408 199 c 0,26,27
 424 199 424 199 444 223 c 128,-1,28
 464 247 464 247 480.5 275.5 c 128,-1,29
 497 304 497 304 518.5 328 c 128,-1,30
 540 352 540 352 559 352 c 0,31,32
 570 352 570 352 581 342 c 128,-1,33
 592 332 592 332 592 323 c 0,34,35
 592 308 592 308 537.5 238 c 128,-1,36
 483 168 483 168 483 154 c 0,37,38
 483 148 483 148 492 148 c 128,-1,39
 501 148 501 148 522 132 c 128,-1,40
 543 116 543 116 562 116 c 0,41,42
 590 116 590 116 620.5 97 c 128,-1,43
 651 78 651 78 651 61 c 0,44,45
 651 34 651 34 616 34 c 0,46,47
 560 34 560 34 484 90 c 2,48,-1
 446 117 l 1,49,-1
 389 67 l 2,50,51
 354 36 354 36 293 -4.5 c 128,-1,52
 232 -45 232 -45 208 -45 c 0,0,1
233 460 m 0,53,54
 233 395 233 395 245 395 c 0,55,56
 256 395 256 395 276 417 c 0,57,58
 301 445 301 445 301 498 c 128,-1,59
 301 551 301 551 289 551 c 0,60,61
 281 551 281 551 259 535 c 0,62,63
 243 525 243 525 238 510.5 c 128,-1,64
 233 496 233 496 233 460 c 0,53,54
177 71 m 0,65,66
 177 51 177 51 184 38 c 128,-1,67
 191 25 191 25 203 25 c 0,68,69
 218 25 218 25 282.5 64 c 128,-1,70
 347 103 347 103 364 106 c 0,71,72
 386 110 386 110 386 121 c 128,-1,73
 386 132 386 132 365 147 c 128,-1,74
 344 162 344 162 312.5 183 c 128,-1,75
 281 204 281 204 266 222 c 2,76,-1
 245 248 l 1,77,-1
 211 182 l 2,78,79
 177 117 177 117 177 71 c 0,65,66
EndSplineSet
EndChar

StartChar: quotesingle
Encoding: 39 39 18
Width: 613
Flags: W
HStem: 453 248<283.139 347.875>
VStem: 255 151<602.038 630.355 632.8 684.903> 255 103<483.82 595.78>
LayerCount: 3
Back
SplineSet
250 684 m 0
 260 703 268 704 326 698 c 0
 362 694 396 688 401 685 c 0
 413 677 400 619 382 599 c 0
 374 590 363 554 358 519 c 0
 351 467 345 455 328 453 c 0
 292 448 257 495 255 551 c 0
 254 577 249 601 245 605 c 0
 234 616 237 660 250 684 c 0
EndSplineSet
Fore
SplineSet
250 684 m 0xa0
 257 697 262 701 282 701 c 0
 308 701 392 690 401 685 c 0
 404 683 406 677 406 669 c 0xc0
 406 649 395 614 382 599 c 0
 374 590 363 554 358 519 c 0
 350 463 344 453 323 453 c 0
 289 453 257 498 255 551 c 0
 252 619 238 596 238 632 c 0
 238 649 242 670 250 684 c 0xa0
EndSplineSet
Validated: 1
Layer: 2
SplineSet
250 684 m 0,0,1
 259 701 259 701 282 701 c 0,2,3
 302 701 302 701 348 695 c 128,-1,4
 394 689 394 689 401 685 c 0,5,6
 406 682 406 682 406 669 c 0,7,8
 406 654 406 654 398.5 632 c 128,-1,9
 391 610 391 610 382 599 c 0,10,11
 367 582 367 582 358 519 c 0,12,13
 352 477 352 477 345.5 465 c 128,-1,14
 339 453 339 453 323 453 c 0,15,16
 297 453 297 453 276.5 482 c 128,-1,17
 256 511 256 511 255 551 c 0,18,19
 253 589 253 589 245.5 603 c 128,-1,20
 238 617 238 617 238 632 c 0,21,22
 238 663 238 663 250 684 c 0,0,1
EndSplineSet
EndChar

StartChar: parenleft
Encoding: 40 40 19
Width: 651
Flags: W
VStem: 183 87<192.193 423.869>
LayerCount: 3
Back
SplineSet
345 796 m 0
 389 842 438 860 438 829 c 0
 438 820 420 783 398 749 c 0
 342 660 272 420 270 310 c 0
 269 233 275 207 320 121 c 0
 348 66 396 -4 426 -33 c 0
 486 -91 493 -133 444 -140 c 0
 378 -149 221 89 191 245 c 0
 176 318 175 311 248 597 c 0
 272 694 297 745 345 796 c 0
EndSplineSet
Fore
SplineSet
476 -112 m 0
 476 -135 450 -140 440 -140 c 0
 372 -140 220 92 191 245 c 0
 186 268 183 283 183 302 c 0
 183 343 198 402 248 597 c 0
 272 694 297 745 345 796 c 0
 374 826 405 844 423 844 c 0
 432 844 438 840 438 829 c 0
 438 820 420 783 398 749 c 0
 344 663 270 423 270 296 c 0
 270 230 278 202 320 121 c 0
 348 66 396 -4 426 -33 c 0
 459 -65 476 -93 476 -112 c 0
EndSplineSet
Validated: 1
Layer: 2
SplineSet
476 -112 m 0,0,1
 476 -127 476 -127 464 -133.5 c 128,-1,2
 452 -140 452 -140 440 -140 c 0,3,4
 407 -140 407 -140 353 -76.5 c 128,-1,5
 299 -13 299 -13 252 79 c 128,-1,6
 205 171 205 171 191 245 c 0,7,8
 183 282 183 282 183 302 c 0,9,10
 183 331 183 331 195 384 c 128,-1,11
 207 437 207 437 248 597 c 0,12,13
 266 670 266 670 287.5 714 c 128,-1,14
 309 758 309 758 345 796 c 0,15,16
 391 844 391 844 423 844 c 0,17,18
 438 844 438 844 438 829 c 0,19,20
 438 811 438 811 398 749 c 0,21,22
 356 681 356 681 313 534.5 c 128,-1,23
 270 388 270 388 270 296 c 0,24,25
 270 246 270 246 279 214 c 128,-1,26
 288 182 288 182 320 121 c 0,27,28
 372 20 372 20 426 -33 c 0,29,30
 476 -81 476 -81 476 -112 c 0,0,1
EndSplineSet
EndChar

StartChar: parenright
Encoding: 41 41 20
Width: 636
Flags: W
HStem: 763 74<210.375 250.456>
VStem: 363 84<155.457 545.042>
LayerCount: 3
Back
SplineSet
206 830 m 0
 247 870 380 739 414 624 c 0
 450 507 459 269 431 161 c 0
 410 79 370 -17 336 -68 c 0
 329 -80 316 -107 308 -128 c 0
 298 -156 285 -167 259 -167 c 0
 241 -167 221 -161 216 -154 c 0
 211 -146 237 -84 273 -14 c 0
 326 86 342 136 355 229 c 0
 377 398 354 572 294 677 c 0
 269 721 240 759 230 763 c 0
 210 770 194 817 206 830 c 0
EndSplineSet
Fore
SplineSet
202 816 m 0
 202 833 215 837 225 837 c 0
 279 837 384 725 414 624 c 1
 436 554 447 440 447 337 c 0
 447 268 442 204 431 161 c 0
 390 0 335 -57 308 -128 c 0
 298 -156 285 -167 259 -167 c 0
 242 -167 215 -161 215 -151 c 0
 215 -136 240 -78 273 -14 c 0
 312 60 363 154 363 356 c 0
 363 649 235 761 230 763 c 0
 215 768 202 797 202 816 c 0
EndSplineSet
Validated: 1
Layer: 2
SplineSet
202 816 m 0,0,1
 202 837 202 837 225 837 c 0,2,3
 266 837 266 837 329 767.5 c 128,-1,4
 392 698 392 698 414 624 c 0,5,6
 447 519 447 519 447 337 c 0,7,8
 447 224 447 224 431 161 c 0,9,10
 413 90 413 90 389 35 c 128,-1,11
 365 -20 365 -20 341 -62 c 128,-1,12
 317 -104 317 -104 308 -128 c 0,13,14
 294 -167 294 -167 259 -167 c 0,15,16
 244 -167 244 -167 229.5 -162.5 c 128,-1,17
 215 -158 215 -158 215 -151 c 0,18,19
 215 -126 215 -126 273 -14 c 0,20,21
 301 39 301 39 315.5 72.5 c 128,-1,22
 330 106 330 106 346.5 184.5 c 128,-1,23
 363 263 363 263 363 356 c 0,24,25
 363 438 363 438 349.5 510 c 128,-1,26
 336 582 336 582 317.5 626 c 128,-1,27
 299 670 299 670 278.5 703 c 128,-1,28
 258 736 258 736 245.5 749 c 128,-1,29
 233 762 233 762 230 763 c 0,30,31
 219 767 219 767 210.5 784 c 128,-1,32
 202 801 202 801 202 816 c 0,0,1
EndSplineSet
EndChar

StartChar: asterisk
Encoding: 42 42 21
Width: 772
Flags: W
HStem: 318 90<531.1 634.611>
VStem: 184 75<516.359 597.566>
LayerCount: 3
Back
SplineSet
322 607 m 0
 343 646 375 636 380 588 c 0
 383 568 388 534 393 514 c 0
 400 476 400 476 437 529 c 0
 485 599 537 640 564 630 c 0
 593 619 592 584 561 558 c 0
 539 539 477 431 477 411 c 0
 477 406 513 404 558 406 c 0
 633 410 640 408 645 377 c 0
 650 341 645 336 564 318 c 2
 517 308 l 1
 561 273 l 2
 600 242 604 234 587 204 c 0
 564 160 558 161 480 218 c 0
 422 260 414 263 414 237 c 0
 414 221 423 198 433 188 c 0
 461 160 418 118 369 128 c 0
 343 133 318 125 296 105 c 0
 259 71 212 81 212 123 c 0
 212 138 230 168 251 192 c 0
 305 249 301 263 231 263 c 0
 161 263 110 303 159 319 c 0
 222 339 306 377 306 386 c 0
 306 391 281 422 252 454 c 0
 190 521 170 570 194 593 c 0
 217 617 259 596 259 560 c 0
 259 545 270 522 282 512 c 0
 302 496 306 500 306 535 c 0
 306 558 313 589 322 607 c 0
EndSplineSet
Fore
SplineSet
600 408 m 0
 630 408 646 405 646 362 c 0
 646 339 632 333 564 318 c 2
 517 308 l 1
 561 273 l 2
 586 253 597 243 597 230 c 0
 597 220 577 173 557 173 c 0
 527 173 443 254 421 254 c 0
 415 254 414 248 414 237 c 0
 414 198 442 187 442 168 c 0
 442 147 416 126 384 126 c 0
 372 126 366 129 354 129 c 0
 300 129 294 85 249 85 c 0
 228 85 212 98 212 123 c 0
 212 162 288 221 288 246 c 0
 288 259 269 263 231 263 c 0
 180 263 140 284 140 302 c 0
 140 308 145 315 159 319 c 0
 222 339 306 377 306 386 c 0
 306 404 184 507 184 568 c 0
 184 591 202 603 218 603 c 0
 238 603 259 585 259 560 c 0
 259 535 284 503 298 503 c 0
 304 503 306 513 306 535 c 0
 306 569 321 631 351 631 c 0
 383 631 379 569 393 514 c 1
 396 497 398 487 402 487 c 0
 408 487 417 500 437 529 c 0
 480 592 527 631 555 631 c 0
 570 631 585 619 585 601 c 0
 585 587 577 571 561 558 c 0
 539 539 477 431 477 411 c 0
 477 407 497 405 525 405 c 0
 555 405 578 408 600 408 c 0
EndSplineSet
Validated: 1
Layer: 2
SplineSet
600 408 m 0,0,1
 626 408 626 408 636 400 c 128,-1,2
 646 392 646 392 646 362 c 0,3,4
 646 345 646 345 631 337 c 128,-1,5
 616 329 616 329 564 318 c 2,6,-1
 517 308 l 1,7,-1
 561 273 l 2,8,9
 597 244 597 244 597 230 c 0,10,11
 597 219 597 219 583.5 196 c 128,-1,12
 570 173 570 173 557 173 c 0,13,14
 541 173 541 173 486 213.5 c 128,-1,15
 431 254 431 254 421 254 c 0,16,17
 414 254 414 254 414 237 c 0,18,19
 414 215 414 215 428 195 c 128,-1,20
 442 175 442 175 442 168 c 0,21,22
 442 152 442 152 425 139 c 128,-1,23
 408 126 408 126 384 126 c 0,24,25
 378 126 378 126 369 127.5 c 128,-1,26
 360 129 360 129 354 129 c 0,27,28
 326 129 326 129 298 107 c 128,-1,29
 270 85 270 85 249 85 c 0,30,31
 233 85 233 85 222.5 95 c 128,-1,32
 212 105 212 105 212 123 c 0,33,34
 212 144 212 144 250 189.5 c 128,-1,35
 288 235 288 235 288 246 c 0,36,37
 288 263 288 263 231 263 c 0,38,39
 194 263 194 263 167 275.5 c 128,-1,40
 140 288 140 288 140 302 c 0,41,42
 140 314 140 314 159 319 c 0,43,44
 207 334 207 334 256.5 356.5 c 128,-1,45
 306 379 306 379 306 386 c 0,46,47
 306 392 306 392 275.5 425 c 128,-1,48
 245 458 245 458 214.5 499.5 c 128,-1,49
 184 541 184 541 184 568 c 0,50,51
 184 584 184 584 194.5 593.5 c 128,-1,52
 205 603 205 603 218 603 c 0,53,54
 234 603 234 603 246.5 590.5 c 128,-1,55
 259 578 259 578 259 560 c 128,-1,56
 259 542 259 542 273 522.5 c 128,-1,57
 287 503 287 503 298 503 c 0,58,59
 306 503 306 503 306 535 c 0,60,61
 306 566 306 566 318.5 598.5 c 128,-1,62
 331 631 331 631 351 631 c 0,63,64
 365 631 365 631 372 616 c 128,-1,65
 379 601 379 601 384 565.5 c 128,-1,66
 389 530 389 530 393 514 c 0,67,68
 398 487 398 487 402 487 c 0,69,70
 408 487 408 487 437 529 c 0,71,72
 469 576 469 576 501.5 603.5 c 128,-1,73
 534 631 534 631 555 631 c 0,74,75
 567 631 567 631 576 622.5 c 128,-1,76
 585 614 585 614 585 601 c 0,77,78
 585 578 585 578 561 558 c 0,79,80
 544 544 544 544 510.5 485 c 128,-1,81
 477 426 477 426 477 411 c 0,82,83
 477 405 477 405 525 405 c 0,84,85
 541 405 541 405 565.5 406.5 c 128,-1,86
 590 408 590 408 600 408 c 0,0,1
EndSplineSet
EndChar

StartChar: plus
Encoding: 43 43 22
Width: 715
Flags: W
HStem: 323 96<407.656 580.983>
VStem: 292 96<403 467.333> 300 79<415.667 577.737> 304 82<57.5 316> 312 66<20 279>
DStem2: 191 383 236 309 0.980952 0.194248<-74.3029 98.61>
LayerCount: 3
Back
SplineSet
300 560 m 0
 305 572 322 581 339 581 c 0
 367 581 371 574 379 488 c 2
 388 395 l 1
 462 403 l 2
 502 407 551 414 570 417 c 0
 596 422 607 417 614 396 c 0
 627 355 614 346 531 337 c 0
 490 333 440 326 421 323 c 2
 386 316 l 1
 382 168 l 1
 378 20 l 1
 345 20 l 1
 312 20 l 1
 308 170 l 1
 304 320 l 1
 236 309 l 2
 110 290 89 293 89 330 c 0
 89 361 96 365 191 383 c 2
 292 403 l 1
 292 471 l 2
 292 508 296 548 300 560 c 0
EndSplineSet
Fore
SplineSet
586 419 m 0xc0
 616 419 618 380 618 374 c 0
 618 336 546 343 421 323 c 1
 386 316 l 1x90
 378 20 l 1
 312 20 l 1x88
 304 320 l 1x90
 236 309 l 2
 187 302 154 298 131 298 c 0
 97 298 89 307 89 330 c 0
 89 361 96 365 191 383 c 2
 292 403 l 1
 292 471 l 2xc0
 292 508 296 548 300 560 c 0
 305 572 322 581 339 581 c 0
 367 581 371 574 379 488 c 2xa0
 388 395 l 1
 462 403 l 1
 537 410 574 419 586 419 c 0xc0
EndSplineSet
Validated: 1
Layer: 2
SplineSet
586 419 m 0,0,1
 599 419 599 419 607 408 c 128,-1,2
 615 397 615 397 616.5 389 c 128,-1,3
 618 381 618 381 618 374 c 0,4,5
 618 363 618 363 610.5 356 c 128,-1,6
 603 349 603 349 584 345 c 128,-1,7
 565 341 565 341 545.5 338.5 c 128,-1,8
 526 336 526 336 489 332 c 128,-1,9
 452 328 452 328 421 323 c 2,10,-1
 386 316 l 1,11,-1
 378 20 l 1,12,-1
 312 20 l 1,13,-1
 304 320 l 1,14,-1
 236 309 l 2,15,16
 159 298 159 298 131 298 c 0,17,18
 106 298 106 298 97.5 305 c 128,-1,19
 89 312 89 312 89 330 c 0,20,21
 89 353 89 353 104.5 361.5 c 128,-1,22
 120 370 120 370 191 383 c 2,23,-1
 292 403 l 1,24,-1
 292 471 l 2,25,26
 292 536 292 536 300 560 c 0,27,28
 309 581 309 581 339 581 c 0,29,30
 360 581 360 581 366.5 566.5 c 128,-1,31
 373 552 373 552 379 488 c 2,32,-1
 388 395 l 1,33,-1
 462 403 l 2,34,35
 494 406 494 406 523 410 c 128,-1,36
 552 414 552 414 567 416.5 c 128,-1,37
 582 419 582 419 586 419 c 0,0,1
EndSplineSet
EndChar

StartChar: comma
Encoding: 44 44 23
Width: 496
Flags: W
VStem: 147 200
LayerCount: 3
Back
SplineSet
215 45 m 0
 272 159 296 196 315 196 c 0
 366 196 358 149 283 8 c 0
 201 -146 192 -160 170 -160 c 0
 129 -160 142 -102 215 45 c 0
EndSplineSet
Fore
SplineSet
215 45 m 0
 272 159 296 196 315 196 c 0
 336 196 347 188 347 168 c 0
 347 140 326 90 283 8 c 0
 201 -146 192 -160 170 -160 c 0
 155 -160 147 -152 147 -134 c 0
 147 -105 169 -47 215 45 c 0
EndSplineSet
Validated: 1
Layer: 2
SplineSet
215 45 m 0,0,1
 258 131 258 131 279.5 163.5 c 128,-1,2
 301 196 301 196 315 196 c 0,3,4
 347 196 347 196 347 168 c 0,5,6
 347 130 347 130 283 8 c 0,7,8
 221 -108 221 -108 203.5 -134 c 128,-1,9
 186 -160 186 -160 170 -160 c 0,10,11
 147 -160 147 -160 147 -134 c 0,12,13
 147 -91 147 -91 215 45 c 0,0,1
EndSplineSet
EndChar

StartChar: hyphen
Encoding: 45 45 24
Width: 931
Flags: W
HStem: 342 114<244.767 736.007>
LayerCount: 3
Back
SplineSet
229 447 m 0
 284 453 435 457 565 456 c 0
 766 454 803 450 820 423 c 0
 859 361 812 351 459 342 c 2
 118 334 l 1
 123 385 l 2
 128 432 136 437 229 447 c 0
EndSplineSet
Fore
SplineSet
229 447 m 0
 278 452 405 456 524 456 c 0
 746 456 802 452 820 423 c 0
 827 412 831 402 831 394 c 0
 831 357 747 349 459 342 c 2
 118 334 l 1
 123 385 l 2
 128 432 136 437 229 447 c 0
EndSplineSet
Validated: 1
Layer: 2
SplineSet
229 447 m 0,0,1
 317 456 317 456 524 456 c 0,2,3
 695 456 695 456 751 450 c 128,-1,4
 807 444 807 444 820 423 c 0,5,6
 831 406 831 406 831 394 c 0,7,8
 831 367 831 367 756.5 357 c 128,-1,9
 682 347 682 347 459 342 c 2,10,-1
 118 334 l 1,11,-1
 123 385 l 2,12,13
 127 420 127 420 143 430 c 128,-1,14
 159 440 159 440 229 447 c 0,0,1
EndSplineSet
EndChar

StartChar: period
Encoding: 46 46 25
Width: 545
Flags: W
HStem: -93 105<202.5 307.61>
VStem: 276 49<157.494 188.857> 319 96<25.1072 95>
LayerCount: 3
Back
SplineSet
276 173 m 0
 276 181 288 189 301 189 c 0
 314 189 325 181 325 173 c 0
 325 164 338 157 354 157 c 0
 401 157 430 87 407 31 c 0
 346 -116 172 -138 140 -3 c 0
 132 29 142 52 182 98 c 0
 211 130 244 157 255 157 c 0
 267 157 276 164 276 173 c 0
309 36 m 0
 325 54 322 58 295 56 c 0
 277 54 258 44 254 32 c 0
 242 4 285 6 309 36 c 0
EndSplineSet
Fore
SplineSet
137 16 m 0xa0
 137 71 239 157 255 157 c 0
 267 157 276 164 276 173 c 0
 276 181 288 189 301 189 c 0
 314 189 325 181 325 173 c 0xc0
 325 164 338 157 354 157 c 0
 390 157 415 117 415 73 c 0
 415 5 338 -93 246 -93 c 0
 159 -93 137 -8 137 16 c 0xa0
266 12 m 0
 293 12 319 44 319 51 c 0xa0
 319 55 315 56 306 56 c 0
 272 56 252 39 252 23 c 0
 252 16 258 12 266 12 c 0
EndSplineSet
Validated: 1
Layer: 2
SplineSet
137 16 m 0,0,1
 137 52 137 52 187.5 104.5 c 128,-1,2
 238 157 238 157 255 157 c 0,3,4
 276 157 276 157 276 173 c 0,5,6
 276 179 276 179 283.5 184 c 128,-1,7
 291 189 291 189 301 189 c 128,-1,8
 311 189 311 189 318 184 c 128,-1,9
 325 179 325 179 325 173 c 0,10,11
 325 157 325 157 354 157 c 0,12,13
 380 157 380 157 397.5 132 c 128,-1,14
 415 107 415 107 415 73 c 0,15,16
 415 18 415 18 363 -37.5 c 128,-1,17
 311 -93 311 -93 246 -93 c 0,18,19
 190 -93 190 -93 163.5 -54 c 128,-1,20
 137 -15 137 -15 137 16 c 0,0,1
266 12 m 0,21,22
 284 12 284 12 301.5 28 c 128,-1,23
 319 44 319 44 319 51 c 0,24,25
 319 56 319 56 306 56 c 0,26,27
 282 56 282 56 267 46 c 128,-1,28
 252 36 252 36 252 23 c 0,29,30
 252 12 252 12 266 12 c 0,21,22
EndSplineSet
EndChar

StartChar: slash
Encoding: 47 47 26
Width: 772
Flags: W
DStem2: 259 150 219 -88 0.42738 0.904072<-232.73 190.159>
LayerCount: 3
Back
SplineSet
570 850 m 0
 588 873 626 870 639 845 c 0
 648 830 644 811 626 775 c 0
 613 748 591 696 579 661 c 0
 566 625 511 509 456 402 c 0
 402 296 357 204 357 197 c 0
 357 191 334 140 305 84 c 0
 277 29 238 -49 219 -88 c 0
 193 -140 177 -159 159 -159 c 0
 115 -159 119 -124 171 -26 c 0
 199 26 239 106 259 150 c 0
 280 194 312 263 332 304 c 0
 352 345 396 439 432 514 c 0
 467 590 506 672 519 700 c 0
 532 727 546 768 550 792 c 0
 555 816 564 842 570 850 c 0
EndSplineSet
Fore
SplineSet
603 866 m 0
 623 866 644 851 644 828 c 0
 644 797 615 767 579 661 c 1
 543 562 357 216 357 197 c 0
 357 191 334 140 305 84 c 2
 219 -88 l 2
 193 -140 177 -159 159 -159 c 0
 139 -159 129 -152 129 -134 c 0
 129 -89 188 -7 259 150 c 1
 519 700 l 2
 565 795 546 866 603 866 c 0
EndSplineSet
Validated: 1
Layer: 2
SplineSet
603 866 m 0,0,1
 619 866 619 866 631.5 855.5 c 128,-1,2
 644 845 644 845 644 828 c 0,3,4
 644 815 644 815 636 797 c 128,-1,5
 628 779 628 779 611 742 c 128,-1,6
 594 705 594 705 579 661 c 0,7,8
 564 619 564 619 508 506 c 128,-1,9
 452 393 452 393 404.5 299 c 128,-1,10
 357 205 357 205 357 197 c 0,11,12
 357 184 357 184 305 84 c 2,13,-1
 219 -88 l 2,14,15
 184 -159 184 -159 159 -159 c 0,16,17
 129 -159 129 -159 129 -134 c 0,18,19
 129 -114 129 -114 144.5 -80.5 c 128,-1,20
 160 -47 160 -47 196 21.5 c 128,-1,21
 232 90 232 90 259 150 c 2,22,-1
 519 700 l 2,23,24
 533 730 533 730 543 765 c 128,-1,25
 553 800 553 800 557 819.5 c 128,-1,26
 561 839 561 839 572 852.5 c 128,-1,27
 583 866 583 866 603 866 c 0,0,1
EndSplineSet
EndChar

StartChar: zero
Encoding: 48 48 27
Width: 564
Flags: W
HStem: -4 61<180.454 287.259> 550 77<331.178 427.303>
VStem: 81 71<85.5396 240.065> 446 55<307.387 532.285>
LayerCount: 3
Back
SplineSet
333 607 m 0
 352 618 373 627 381 627 c 0
 412 629 453 594 477 546 c 0
 524 452 501 307 415 148 c 0
 368 61 323 20 257 2 c 0
 187 -17 139 8 103 85 c 0
 77 139 76 147 88 194 c 0
 95 222 114 274 130 310 c 0
 183 427 194 456 194 473 c 0
 194 492 283 579 333 607 c 0
433 520 m 0
 416 554 369 559 328 533 c 0
 257 487 152 257 152 145 c 0
 152 97 188 57 232 57 c 0
 261 57 280 68 321 107 c 0
 349 134 372 163 372 171 c 0
 372 178 388 217 406 257 c 0
 444 341 458 472 433 520 c 0
EndSplineSet
Fore
SplineSet
194 473 m 0
 194 497 331 627 384 627 c 0
 420 627 501 566 501 433 c 0
 501 351 472 253 415 148 c 0
 368 61 323 20 257 2 c 0
 242 -2 228 -4 215 -4 c 0
 167 -4 131 24 103 85 c 0
 87 118 81 134 81 152 c 0
 81 231 194 429 194 473 c 0
446 447 m 0
 446 507 432 550 381 550 c 0
 364 550 345 544 328 533 c 0
 257 487 152 257 152 145 c 0
 152 97 188 57 232 57 c 0
 261 57 280 68 321 107 c 0
 349 134 372 163 372 171 c 0
 372 199 446 298 446 447 c 0
EndSplineSet
Validated: 1
Layer: 2
SplineSet
194 473 m 0,0,1
 194 485 194 485 230 522.5 c 128,-1,2
 266 560 266 560 313 593.5 c 128,-1,3
 360 627 360 627 384 627 c 0,4,5
 419 627 419 627 460 574.5 c 128,-1,6
 501 522 501 522 501 433 c 0,7,8
 501 306 501 306 415 148 c 0,9,10
 380 83 380 83 343.5 49.5 c 128,-1,11
 307 16 307 16 257 2 c 0,12,13
 234.5 -4 234.5 -4 215 -4 c 0,14,15
 144 -4 144 -4 103 85 c 0,16,17
 81 130 81 130 81 152 c 0,18,19
 81 196 81 196 137.5 325.5 c 128,-1,20
 194 455 194 455 194 473 c 0,0,1
446 447 m 0,21,22
 446 550 446 550 381 550 c 0,23,24
 354 550 354 550 328 533 c 0,25,26
 275 498 275 498 213.5 363.5 c 128,-1,27
 152 229 152 229 152 145 c 0,28,29
 152 109 152 109 175.5 83 c 128,-1,30
 199 57 199 57 232 57 c 0,31,32
 254 57 254 57 272 67.5 c 128,-1,33
 290 78 290 78 321 107 c 0,34,35
 372 156 372 156 372 171 c 0,36,37
 372 179 372 179 390.5 218 c 128,-1,38
 409 257 409 257 427.5 319.5 c 128,-1,39
 446 382 446 382 446 447 c 0,21,22
EndSplineSet
EndChar

StartChar: one
Encoding: 49 49 28
Width: 352
Flags: W
VStem: 226 60<60.381 315.793>
LayerCount: 3
Back
SplineSet
217 617 m 0
 244 645 261 630 268 567 c 0
 280 469 291 38 283 19 c 0
 270 -9 252 -2 239 37 c 0
 231 60 226 140 226 287 c 0
 225 443 221 503 214 503 c 0
 208 503 189 482 171 457 c 0
 125 390 97 363 79 371 c 0
 59 379 60 406 80 426 c 0
 89 434 106 455 118 472 c 0
 131 490 146 509 151 516 c 0
 156 522 170 544 182 565 c 0
 194 585 209 609 217 617 c 0
EndSplineSet
Fore
SplineSet
86 370 m 0
 77 370 64 377 64 393 c 0
 64 418 84 424 118 472 c 1
 151 516 l 1
 174 544 211 631 240 631 c 0
 254 631 263 610 268 567 c 0
 277 492 286 224 286 92 c 0
 286 51 285 24 283 19 c 0
 278 8 272 2 265 2 c 0
 256 2 247 14 239 37 c 0
 231 60 226 140 226 287 c 0
 225 443 221 503 214 503 c 0
 193 503 125 370 86 370 c 0
EndSplineSet
Validated: 1
Layer: 2
SplineSet
86 370 m 0,0,1
 78 370 78 370 71 376 c 128,-1,2
 64 382 64 382 64 393 c 128,-1,3
 64 404 64 404 69.5 412.5 c 128,-1,4
 75 421 75 421 90 437.5 c 128,-1,5
 105 454 105 454 118 472 c 2,6,-1
 151 516 l 2,7,8
 158 525 158 525 176 556.5 c 128,-1,9
 194 588 194 588 210.5 609.5 c 128,-1,10
 227 631 227 631 240 631 c 0,11,12
 261 631 261 631 268 567 c 0,13,14
 274 513 274 513 280 354.5 c 128,-1,15
 286 196 286 196 286 92 c 0,16,17
 286 27 286 27 283 19 c 0,18,19
 275 2 275 2 265 2 c 0,20,21
 251 2 251 2 239 37 c 0,22,23
 226 74 226 74 226 287 c 0,24,25
 225 503 225 503 214 503 c 0,26,27
 206 503 206 503 182 470 c 128,-1,28
 158 437 158 437 130.5 403.5 c 128,-1,29
 103 370 103 370 86 370 c 0,0,1
EndSplineSet
EndChar

StartChar: two
Encoding: 50 50 29
Width: 772
Flags: W
HStem: 13 71<384.01 673.459> 546 60<268.696 440.215>
VStem: 449 55<383.086 535.849>
LayerCount: 3
Back
SplineSet
285 592 m 0
 377 621 467 605 493 556 c 0
 514 518 504 410 474 333 c 0
 446 265 345 100 306 63 c 0
 290 46 290 45 320 51 c 0
 493 86 679 95 684 68 c 0
 689 34 686 32 618 31 c 0
 580 30 511 22 466 13 c 0
 421 4 357 -6 325 -9 c 0
 294 -12 261 -20 254 -27 c 0
 233 -43 189 -28 189 -4 c 0
 189 13 246 88 284 121 c 0
 325 156 417 332 436 409 c 0
 463 521 450 546 367 546 c 0
 293 546 225 512 150 436 c 0
 113 400 81 370 78 370 c 0
 76 370 73 386 73 404 c 0
 73 430 80 443 99 453 c 0
 114 460 126 472 126 480 c 0
 126 487 138 501 152 512 c 0
 167 522 193 541 210 554 c 0
 227 568 260 584 285 592 c 0
EndSplineSet
Fore
SplineSet
605 84 m 0
 685 84 686 74 686 52 c 0
 686 16 632 46 466 13 c 0
 346 -11 271 -10 254 -27 c 0
 248 -32 240 -34 232 -34 c 0
 211 -34 189 -21 189 -4 c 0
 189 13 246 88 284 121 c 0
 320 151 449 367 449 489 c 0
 449 534 425 546 367 546 c 0
 293 546 225 512 150 436 c 1
 113 400 81 370 78 370 c 0
 76 370 73 386 73 404 c 0
 73 430 80 443 99 453 c 0
 114 460 126 472 126 480 c 0
 126 498 170 524 210 554 c 1
 228 569 293 606 375 606 c 0
 430 606 476 588 493 556 c 0
 501 542 504 519 504 492 c 0
 504 444 493 382 474 333 c 1
 446 265 345 100 306 63 c 0
 299 56 295 52 295 49 c 0
 295 48 296 48 299 48 c 0
 309 48 470 84 605 84 c 0
EndSplineSet
Validated: 1
Layer: 2
SplineSet
605 84 m 0,0,1
 644 84 644 84 661.5 80 c 128,-1,2
 679 76 679 76 682.5 70.5 c 128,-1,3
 686 65 686 65 686 52 c 0,4,5
 686 36 686 36 669.5 34 c 128,-1,6
 653 32 653 32 593 29 c 128,-1,7
 533 26 533 26 466 13 c 0,8,9
 419 4 419 4 365 -3.5 c 128,-1,10
 311 -11 311 -11 286 -15.5 c 128,-1,11
 261 -20 261 -20 254 -27 c 0,12,13
 246 -34 246 -34 232 -34 c 0,14,15
 216 -34 216 -34 202.5 -25 c 128,-1,16
 189 -16 189 -16 189 -4 c 0,17,18
 189 9 189 9 222.5 52.5 c 128,-1,19
 256 96 256 96 284 121 c 0,20,21
 320 151 320 151 384.5 279.5 c 128,-1,22
 449 408 449 408 449 489 c 0,23,24
 449 522 449 522 430.5 534 c 128,-1,25
 412 546 412 546 367 546 c 0,26,27
 259 546 259 546 150 436 c 0,28,29
 82 370 82 370 78 370 c 0,30,31
 73 370 73 370 73 404 c 0,32,33
 73 439 73 439 99 453 c 0,34,35
 126 466 126 466 126 480 c 0,36,37
 126 485 126 485 130.5 491.5 c 128,-1,38
 135 498 135 498 144.5 505.5 c 128,-1,39
 154 513 154 513 162.5 519.5 c 128,-1,40
 171 526 171 526 186 536.5 c 128,-1,41
 201 547 201 547 210 554 c 0,42,43
 230 571 230 571 275.5 588.5 c 128,-1,44
 321 606 321 606 375 606 c 0,45,46
 466 606 466 606 493 556 c 0,47,48
 504 537 504 537 504 492 c 0,49,50
 504 410 504 410 474 333 c 0,51,52
 452 281 452 281 393.5 185.5 c 128,-1,53
 335 90 335 90 306 63 c 0,54,55
 295 52 295 52 295 49 c 0,56,57
 295 48 295 48 299 48 c 0,58,59
 300 48 300 48 349 57 c 128,-1,60
 398 66 398 66 471.5 75 c 128,-1,61
 545 84 545 84 605 84 c 0,0,1
EndSplineSet
EndChar

StartChar: three
Encoding: 51 51 30
Width: 568
Flags: W
HStem: -10 56<210.737 335.369> 303 52<210.546 245.111> 348 62<360.239 418.486>
VStem: 143 67<47.4413 121.319> 373 122<532 601.285> 438 68<157.467 329.442>
LayerCount: 3
Back
SplineSet
415 620 m 0
 437 624 458 629 461 629 c 0
 473 631 495 604 495 587 c 0
 495 579 464 538 427 497 c 0
 389 457 358 420 358 416 c 0
 358 413 373 410 391 410 c 0
 429 410 490 351 502 304 c 0
 515 254 497 167 463 114 c 0
 391 -1 196 -53 157 31 c 0
 136 75 139 134 162 134 c 0
 185 134 210 102 210 71 c 0
 211 49 216 46 256 46 c 0
 310 46 378 83 414 132 c 0
 432 157 438 181 438 235 c 0
 438 328 415 355 345 346 c 0
 319 343 287 331 274 320 c 0
 244 293 206 298 201 330 c 0
 199 345 204 355 213 355 c 0
 221 355 239 369 254 385 c 0
 349 495 381 537 372 539 c 0
 362 543 229 522 133 503 c 0
 104 497 97 499 97 513 c 0
 97 523 92 531 85 531 c 0
 79 531 74 535 74 541 c 0
 74 552 175 579 290 598 c 0
 337 605 394 615 415 620 c 0
EndSplineSet
Fore
SplineSet
367 539 m 0xd8
 319 539 118 500 110 500 c 0
 100 500 97 504 97 513 c 0
 97 523 92 531 85 531 c 0
 79 531 74 535 74 541 c 0
 74 565 393 615 415 620 c 1
 443 625 457 629 462 629 c 0
 475 629 495 603 495 587 c 0xd8
 495 565 358 427 358 416 c 0
 358 413 373 410 391 410 c 0
 429 410 490 351 502 304 c 0
 505 293 506 280 506 266 c 0
 506 217 489 155 463 114 c 0
 415 38 314 -10 240 -10 c 0
 202 -10 170 2 157 31 c 0
 147 51 143 74 143 93 c 0
 143 116 149 134 162 134 c 0
 185 134 210 102 210 71 c 1
 211 49 216 46 256 46 c 0
 310 46 378 83 414 132 c 0
 432 157 438 181 438 235 c 0
 438 317 420 348 368 348 c 0xb4
 283 348 270 303 234 303 c 0
 214 303 201 316 201 336 c 0
 201 348 205 355 213 355 c 0
 221 355 239 369 254 385 c 0
 339 483 373 527 373 537 c 0
 373 539 372 539 367 539 c 0xd8
EndSplineSet
Validated: 1
Layer: 2
SplineSet
367 539 m 0,0,1
 346 539 346 539 283.5 529.5 c 128,-1,2
 221 520 221 520 166.5 510 c 128,-1,3
 112 500 112 500 110 500 c 0,4,5
 97 500 97 500 97 513 c 0,6,7
 97 531 97 531 85 531 c 0,8,9
 74 531 74 531 74 541 c 0,10,11
 74 548 74 548 106.5 558 c 128,-1,12
 139 568 139 568 188 578 c 128,-1,13
 237 588 237 588 284.5 597 c 128,-1,14
 332 606 332 606 371.5 612.5 c 128,-1,15
 411 619 411 619 415 620 c 0,16,17
 426 622 426 622 437.5 624.5 c 128,-1,18
 449 627 449 627 454.5 628 c 128,-1,19
 460 629 460 629 462 629 c 0,20,21
 472 629 472 629 483.5 614 c 128,-1,22
 495 599 495 599 495 587 c 128,-1,23
 495 575 495 575 426.5 497.5 c 128,-1,24
 358 420 358 420 358 416 c 0,25,26
 358 410 358 410 391 410 c 0,27,28
 419 410 419 410 456 374.5 c 128,-1,29
 493 339 493 339 502 304 c 0,30,31
 506 289 506 289 506 266 c 0,32,33
 506 182 506 182 463 114 c 0,34,35
 428 59 428 59 363 24.5 c 128,-1,36
 298 -10 298 -10 240 -10 c 0,37,38
 175 -10 175 -10 157 31 c 0,39,40
 143 59 143 59 143 93 c 0,41,42
 143 134 143 134 162 134 c 0,43,44
 179 134 179 134 194.5 114 c 128,-1,45
 210 94 210 94 210 71 c 0,46,47
 211 54 211 54 218.5 50 c 128,-1,48
 226 46 226 46 256 46 c 0,49,50
 297 46 297 46 342 70.5 c 128,-1,51
 387 95 387 95 414 132 c 0,52,53
 438 165 438 165 438 235 c 0,54,55
 438 297 438 297 422.5 322.5 c 128,-1,56
 407 348 407 348 368 348 c 0,57,58
 331 348 331 348 305.5 337 c 128,-1,59
 280 326 280 326 264 314.5 c 128,-1,60
 248 303 248 303 234 303 c 0,61,62
 219 303 219 303 210 312 c 128,-1,63
 201 321 201 321 201 336 c 0,64,65
 201 355 201 355 213 355 c 0,66,67
 226 355 226 355 254 385 c 0,68,69
 373 522 373 522 373 537 c 0,70,71
 373 539 373 539 367 539 c 0,0,1
EndSplineSet
EndChar

StartChar: four
Encoding: 52 52 31
Width: 564
Flags: W
HStem: -17 21G<342.5 360.5> 180 59<81.4935 228.411> 266 61<406.192 507.746>
VStem: 62 81<191.842 247.829> 301 48<298.989 450.953> 306 80<12.7673 113.996>
LayerCount: 3
Back
SplineSet
353 600 m 0
 361 621 391 614 395 589 c 0
 396 579 387 558 373 544 c 0
 351 519 349 511 349 417 c 0
 349 362 353 312 357 305 c 0
 363 296 373 296 402 304 c 0
 423 310 444 318 450 323 c 0
 457 329 471 328 487 322 c 0
 523 308 517 270 477 266 c 0
 462 264 428 256 403 248 c 2
 358 233 l 1
 362 149 l 2
 364 102 372 53 379 38 c 0
 389 15 389 8 376 -5 c 0
 340 -42 318 4 306 141 c 0
 299 213 298 217 279 213 c 0
 268 210 222 200 178 191 c 0
 49 164 34 182 100 282 c 0
 196 425 316 583 331 584 c 0
 340 584 350 592 353 600 c 0
300 293 m 0
 302 306 299 348 295 385 c 2
 288 452 l 1
 246 401 l 2
 206 352 137 244 143 239 c 0
 144 238 180 244 221 253 c 0
 291 268 297 271 300 293 c 0
EndSplineSet
Fore
SplineSet
331 584 m 1xf4
 354 584 350 612 370 612 c 0
 385 612 395 597 395 587 c 0
 395 577 386 557 373 544 c 1
 351 519 349 511 349 417 c 0xf8
 349 298 357 298 371 298 c 0
 392 298 442 317 450 323 c 0
 453 326 458 327 464 327 c 0
 482 327 511 315 511 294 c 0
 511 281 499 268 477 266 c 0
 462 264 428 256 403 248 c 2
 358 233 l 1
 362 149 l 2
 366 45 386 30 386 14 c 0
 386 1 367 -17 354 -17 c 0
 331 -17 315 34 306 141 c 0
 300 202 298 214 287 214 c 0
 277 214 148 180 98 180 c 0
 73 180 62 187 62 202 c 0
 62 218 75 244 100 282 c 0
 196 425 316 583 331 584 c 1xf4
221 253 m 0
 294 269 301 271 301 305 c 0
 301 324 298 356 295 385 c 2
 288 452 l 1
 246 401 l 2
 208 354 143 253 143 240 c 0
 143 239 143 239 144 239 c 0
 149 239 183 245 221 253 c 0
EndSplineSet
Validated: 1
Layer: 2
SplineSet
331 584 m 1,0,1
 343 584 343 584 351.5 598 c 128,-1,2
 360 612 360 612 370 612 c 128,-1,3
 380 612 380 612 387.5 603.5 c 128,-1,4
 395 595 395 595 395 587 c 0,5,6
 395 566 395 566 373 544 c 0,7,8
 356 525 356 525 352.5 506 c 128,-1,9
 349 487 349 487 349 417 c 0,10,11
 349 360 349 360 352 333.5 c 128,-1,12
 355 307 355 307 358.5 302.5 c 128,-1,13
 362 298 362 298 371 298 c 0,14,15
 385 298 385 298 414 308 c 128,-1,16
 443 318 443 318 450 323 c 0,17,18
 454 327 454 327 464 327 c 0,19,20
 480 327 480 327 495.5 317.5 c 128,-1,21
 511 308 511 308 511 294 c 0,22,23
 511 284 511 284 502 275.5 c 128,-1,24
 493 267 493 267 477 266 c 0,25,26
 447 262 447 262 403 248 c 2,27,-1
 358 233 l 1,28,-1
 362 149 l 2,29,30
 364 103 364 103 370 73 c 128,-1,31
 376 43 376 43 381 31 c 128,-1,32
 386 19 386 19 386 14 c 0,33,34
 386 4 386 4 375 -6.5 c 128,-1,35
 364 -17 364 -17 354 -17 c 0,36,37
 319 -17 319 -17 306 141 c 0,38,39
 301 188 301 188 298 201 c 128,-1,40
 295 214 295 214 287 214 c 2,41,-1
 207.5 197 l 2,42,43
 128 180 128 180 98 180 c 0,44,45
 62 180 62 180 62 202 c 128,-1,46
 62 224 62 224 100 282 c 0,47,48
 173 391 173 391 246.5 487 c 128,-1,49
 320 583 320 583 331 584 c 1,0,1
221 253 m 0,50,51
 277 265 277 265 289 272.5 c 128,-1,52
 301 280 301 280 301 305 c 0,53,54
 301 327 301 327 295 385 c 2,55,-1
 288 452 l 1,56,-1
 246 401 l 2,57,58
 217 365 217 365 180 307.5 c 128,-1,59
 143 250 143 250 143 240 c 0,60,61
 143 239 143 239 144 239 c 0,62,63
 154 239 154 239 221 253 c 0,50,51
EndSplineSet
EndChar

StartChar: five
Encoding: 53 53 32
Width: 497
Flags: W
HStem: -12 58<125.349 287.891> 368 51<248.801 339.221>
VStem: 113 48<348.97 514.511> 355 57<142.003 355.008>
LayerCount: 3
Back
SplineSet
392 595 m 0
 440 606 459 605 464 590 c 0
 472 568 312 523 238 526 c 0
 179 529 151 502 165 453 c 0
 170 436 171 408 168 390 c 2
 162 359 l 1
 196 380 l 2
 249 413 314 428 347 414 c 0
 393 394 424 288 407 202 c 0
 379 53 311 -12 183 -12 c 0
 140 -12 132 -8 104 27 c 0
 71 67 59 97 66 127 c 0
 69 142 73 139 87 113 c 0
 113 65 147 47 210 46 c 0
 278 44 307 67 336 147 c 0
 368 233 359 352 319 367 c 0
 298 376 218 336 188 301 c 0
 158 268 152 266 130 288 c 0
 109 309 107 559 127 572 c 0
 134 576 187 581 246 583 c 0
 304 584 370 590 392 595 c 0
EndSplineSet
Fore
SplineSet
355 260 m 0
 355 323 338 368 311 368 c 0
 283 368 215 333 188 301 c 0
 171 282 162 273 153 273 c 0
 146 273 139 279 130 288 c 0
 119 299 113 375 113 445 c 0
 113 508 118 566 127 572 c 0
 147 584 331 581 392 595 c 0
 413 600 429 602 440 602 c 0
 459 602 464 594 464 588 c 0
 464 567 320 526 245 526 c 2
 229 526 l 2
 186 526 161 508 161 476 c 0
 161 456 170 449 170 413 c 0
 170 405 169 397 168 390 c 2
 162 359 l 1
 196 380 l 2
 236 405 282 419 316 419 c 0
 328 419 339 418 347 414 c 0
 384 398 412 325 412 252 c 0
 412 235 410 218 407 202 c 0
 379 53 311 -12 183 -12 c 0
 140 -12 132 -8 104 27 c 0
 77 60 64 86 64 111 c 0
 64 120 67 136 71 136 c 0
 74 136 79 129 87 113 c 0
 114 63 149 46 218 46 c 0
 280 46 308 70 336 147 c 0
 349 182 355 223 355 260 c 0
EndSplineSet
Validated: 1
Layer: 2
SplineSet
355 260 m 0,0,1
 355 308 355 308 343 338 c 128,-1,2
 331 368 331 368 311 368 c 0,3,4
 289 368 289 368 248.5 346 c 128,-1,5
 208 324 208 324 188 301 c 0,6,7
 163 273 163 273 153 273 c 0,8,9
 145 273 145 273 130 288 c 0,10,11
 113 305 113 305 113 445 c 0,12,13
 113 563 113 563 127 572 c 0,14,15
 137 578 137 578 249 583 c 128,-1,16
 361 588 361 588 392 595 c 0,17,18
 421 602 421 602 440 602 c 0,19,20
 464 602 464 602 464 588 c 0,21,22
 464 572 464 572 382.5 549 c 128,-1,23
 301 526 301 526 245 526 c 2,24,-1
 229 526 l 2,25,26
 161 526 161 526 161 476 c 0,27,28
 161 468 161 468 165.5 450.5 c 128,-1,29
 170 433 170 433 170 413 c 0,30,31
 170 404 170 404 168 390 c 2,32,-1
 162 359 l 1,33,-1
 196 380 l 2,34,35
 258 419 258 419 316 419 c 0,36,37
 337 419 337 419 347 414 c 0,38,39
 374 402 374 402 393 354.5 c 128,-1,40
 412 307 412 307 412 252 c 0,41,42
 412 229 412 229 407 202 c 0,43,44
 386 90 386 90 332.5 39 c 128,-1,45
 279 -12 279 -12 183 -12 c 0,46,47
 151 -12 151 -12 138 -5.5 c 128,-1,48
 125 1 125 1 104 27 c 0,49,50
 64 76 64 76 64 111 c 0,51,52
 64 136 64 136 71 136 c 0,53,54
 76 136 76 136 87 113 c 0,55,56
 107 76 107 76 136.5 61 c 128,-1,57
 166 46 166 46 218 46 c 0,58,59
 264 46 264 46 289.5 67.5 c 128,-1,60
 315 89 315 89 336 147 c 0,61,62
 355 198 355 198 355 260 c 0,0,1
EndSplineSet
EndChar

StartChar: six
Encoding: 54 54 33
Width: 443
Flags: W
HStem: -7 53<141.813 223.123> 262 50<193.792 306.923>
VStem: 60 61<66.165 203.737> 164 61<502.457 611.542> 326 56<141.68 241.57>
LayerCount: 3
Back
SplineSet
181 607 m 0
 195 624 218 623 224 605 c 0
 227 597 218 551 204 503 c 0
 145 304 139 272 160 272 c 0
 166 272 182 281 196 292 c 0
 210 303 233 312 248 312 c 0
 283 312 337 288 359 264 c 0
 383 237 389 182 372 152 c 0
 363 138 353 119 348 108 c 0
 336 80 262 14 232 2 c 0
 218 -3 190 -7 170 -7 c 0
 109 -7 60 64 60 151 c 0
 60 189 105 375 137 476 c 0
 148 509 160 549 164 566 c 0
 168 583 175 601 181 607 c 0
297 246 m 0
 282 255 260 262 250 262 c 0
 223 261 177 237 146 207 c 0
 121 182 118 174 122 130 c 0
 125 98 134 73 147 60 c 0
 170 38 169 37 257 87 c 0
 286 103 326 169 326 201 c 0
 326 224 320 235 297 246 c 0
EndSplineSet
Fore
SplineSet
160 272 m 0
 178 272 209 312 248 312 c 0
 283 312 337 288 359 264 c 0
 374 247 382 220 382 195 c 0
 382 155 367 150 348 108 c 0
 336 80 262 14 232 2 c 0
 218 -3 190 -7 170 -7 c 0
 109 -7 60 64 60 151 c 0
 60 228 164 566 164 566 c 2
 170 590 180 619 204 619 c 0
 215 619 225 612 225 600 c 0
 225 543 149 344 149 288 c 0
 149 276 153 272 160 272 c 0
121 155 m 0
 121 64 161 46 171 46 c 0
 184 46 205 57 257 87 c 0
 286 103 326 169 326 201 c 0
 326 224 320 235 297 246 c 1
 282 255 260 262 250 262 c 0
 223 261 177 237 146 207 c 0
 127 188 121 179 121 155 c 0
EndSplineSet
Validated: 1
Layer: 2
SplineSet
160 272 m 0,0,1
 166 272 166 272 196 292 c 128,-1,2
 226 312 226 312 248 312 c 0,3,4
 274 312 274 312 308 297 c 128,-1,5
 342 282 342 282 359 264 c 0,6,7
 382 238 382 238 382 195 c 0,8,9
 382 177 382 177 378 166 c 128,-1,10
 374 155 374 155 364 138.5 c 128,-1,11
 354 122 354 122 348 108 c 0,12,13
 339 87 339 87 297 49 c 128,-1,14
 255 11 255 11 232 2 c 0,15,16
 207 -7 207 -7 170 -7 c 0,17,18
 124 -7 124 -7 92 39.5 c 128,-1,19
 60 86 60 86 60 151 c 0,20,21
 60 185 60 185 86 289 c 128,-1,22
 112 393 112 393 138 479.5 c 2,23,-1
 164 566 l 2,24,25
 177 619 177 619 204 619 c 0,26,27
 225 619 225 619 225 600 c 0,28,29
 225 571 225 571 187 443.5 c 128,-1,30
 149 316 149 316 149 288 c 0,31,32
 149 272 149 272 160 272 c 0,0,1
121 155 m 0,33,34
 121 129 121 129 125.5 109 c 128,-1,35
 130 89 130 89 136 77.5 c 128,-1,36
 142 66 142 66 149.5 58.5 c 128,-1,37
 157 51 157 51 162 48.5 c 128,-1,38
 167 46 167 46 171 46 c 0,39,40
 186 46 186 46 257 87 c 0,41,42
 279 99 279 99 302.5 138 c 128,-1,43
 326 177 326 177 326 201 c 0,44,45
 326 219 326 219 320 228.5 c 128,-1,46
 314 238 314 238 297 246 c 0,47,48
 270 262 270 262 250 262 c 0,49,50
 230 261 230 261 199.5 245 c 128,-1,51
 169 229 169 229 146 207 c 0,52,53
 131 192 131 192 126 182 c 128,-1,54
 121 172 121 172 121 155 c 0,33,34
EndSplineSet
EndChar

StartChar: seven
Encoding: 55 55 34
Width: 439
Flags: W
HStem: 555 69<204.703 354>
VStem: 104 52<360.395 546.203> 318 65<413.238 591>
LayerCount: 3
Back
SplineSet
266 614 m 0
 389 638 396 628 371 471 c 0
 362 411 347 330 338 287 c 0
 323 221 312 169 283 25 c 0
 277 -3 272 -8 252 -8 c 0
 231 -8 228 -5 229 20 c 0
 230 52 245 132 266 225 c 0
 286 313 323 548 318 554 c 0
 315 556 277 556 232 553 c 2
 151 547 l 1
 155 496 l 2
 157 469 156 426 152 402 c 0
 147 364 143 358 125 361 c 0
 105 364 104 368 104 473 c 2
 104 583 l 1
 161 594 l 2
 193 600 240 609 266 614 c 0
EndSplineSet
Fore
SplineSet
132 360 m 0
 106 360 104 374 104 433 c 0
 104 483 104 533 104 583 c 1
 266 614 l 2
 297 620 320 624 338 624 c 0
 370 624 383 610 383 572 c 0
 383 482 317 195 283 25 c 0
 277 -3 272 -8 252 -8 c 0
 233 -8 229 -6 229 13 c 0
 229 55 252 162 266 225 c 0
 285 308 318 519 318 550 c 0
 318 555 318 555 295 555 c 0
 279 555 257 555 232 553 c 2
 151 547 l 1
 155 496 l 2
 156 487 156 476 156 465 c 0
 156 442 155 418 152 402 c 1
 148 369 144 360 132 360 c 0
EndSplineSet
Validated: 1
Layer: 2
SplineSet
132 360 m 0,0,1
 113 360 113 360 108.5 373.5 c 128,-1,2
 104 387 104 387 104 433 c 2,3,-1
 104 583 l 1,4,-1
 266 614 l 2,5,6
 318 624 318 624 338 624 c 0,7,8
 362 624 362 624 372.5 612 c 128,-1,9
 383 600 383 600 383 572 c 0,10,11
 383 541 383 541 371.5 469 c 128,-1,12
 360 397 360 397 347 332.5 c 128,-1,13
 334 268 334 268 312.5 166 c 128,-1,14
 291 64 291 64 283 25 c 0,15,16
 279 4 279 4 273 -2 c 128,-1,17
 267 -8 267 -8 252 -8 c 128,-1,18
 237 -8 237 -8 233 -4.5 c 128,-1,19
 229 -1 229 -1 229 13 c 0,20,21
 229 58 229 58 266 225 c 0,22,23
 280 286 280 286 299 406 c 128,-1,24
 318 526 318 526 318 550 c 0,25,26
 318 554 318 554 315 554.5 c 128,-1,27
 312 555 312 555 295 555 c 0,28,29
 257 555 257 555 232 553 c 2,30,-1
 151 547 l 1,31,-1
 155 496 l 2,32,33
 156 487 156 487 156 465 c 0,34,35
 156 423 156 423 152 402 c 0,36,37
 149 377 149 377 145 368.5 c 128,-1,38
 141 360 141 360 132 360 c 0,0,1
EndSplineSet
EndChar

StartChar: eight
Encoding: 56 56 35
Width: 500
Flags: W
HStem: -22 57<229.194 309.504> 232 99<196.856 239.611> 567 45<228.991 340.139>
VStem: 90 52<389.124 497.494> 108 63<92.9522 196.695> 162 120<251.436 322.82> 325 51<50.1891 154.526> 396 44<460.855 518.442>
LayerCount: 3
Back
SplineSet
227 601 m 0
 231 607 257 612 286 612 c 0
 349 612 402 583 425 536 c 0
 453 478 448 466 346 369 c 0
 266 293 266 297 319 230 c 0
 392 137 395 49 327 -2 c 0
 277 -39 234 -25 165 49 c 0
 134 83 108 120 108 132 c 0
 108 144 122 183 139 217 c 0
 172 284 172 284 126 344 c 0
 86 397 79 455 106 511 c 0
 129 558 168 590 200 590 c 0
 212 590 224 595 227 601 c 0
355 535 m 0
 311 568 282 575 253 558 c 0
 245 553 224 543 207 535 c 0
 174 519 154 492 144 450 c 0
 139 430 146 412 172 377 c 0
 190 352 208 331 212 331 c 0
 216 331 246 356 278 385 c 0
 310 415 351 447 367 455 c 0
 409 478 406 496 355 535 c 0
265 204 m 0
 232 242 218 242 192 203 c 0
 161 158 164 122 204 79 c 0
 249 31 278 23 305 51 c 0
 341 89 330 131 265 204 c 0
EndSplineSet
Fore
SplineSet
200 590 m 0xf7
 237 590 207 612 286 612 c 0
 406 612 440 517 440 490 c 0
 440 428 282 334 282 291 c 0xf7
 282 256 376 192 376 94 c 0
 376 21 314 -22 275 -22 c 0
 205 -22 108 113 108 132 c 0xeb
 108 167 162 251 162 279 c 0
 162 320 90 357 90 443 c 0
 90 519 153 590 200 590 c 0xf7
396 486 m 0
 396 510 325 567 284 567 c 0
 264 567 271 565 207 535 c 0
 151 508 142 448 142 438 c 0
 142 402 208 331 212 331 c 0
 224 331 323 433 367 455 c 1
 386 466 396 475 396 486 c 0
273 35 m 0
 299 35 325 68 325 97 c 0
 325 125 306 158 265 204 c 0
 249 223 237 232 226 232 c 0
 207 232 171 182 171 147 c 0xeb
 171 97 240 35 273 35 c 0
EndSplineSet
Validated: 1
Layer: 2
SplineSet
200 590 m 0,0,1
 212 590 212 590 218 593.5 c 128,-1,2
 224 597 224 597 227 601 c 128,-1,3
 230 605 230 605 244.5 608.5 c 128,-1,4
 259 612 259 612 286 612 c 0,5,6
 328 612 328 612 360 597 c 128,-1,7
 392 582 392 582 408.5 560.5 c 128,-1,8
 425 539 425 539 432.5 520.5 c 128,-1,9
 440 502 440 502 440 490 c 0,10,11
 440 469 440 469 415.5 439 c 128,-1,12
 391 409 391 409 361 383.5 c 128,-1,13
 331 358 331 358 306.5 331.5 c 128,-1,14
 282 305 282 305 282 291 c 0,15,16
 282 278 282 278 305.5 249 c 128,-1,17
 329 220 329 220 352.5 178.5 c 128,-1,18
 376 137 376 137 376 94 c 0,19,20
 376 44 376 44 342.5 11 c 128,-1,21
 309 -22 309 -22 275 -22 c 0,22,23
 229 -22 229 -22 168.5 44.5 c 128,-1,24
 108 111 108 111 108 132 c 0,25,26
 108 150 108 150 135 208 c 128,-1,27
 162 266 162 266 162 279 c 0,28,29
 162 295 162 295 144 318.5 c 128,-1,30
 126 342 126 342 108 374 c 128,-1,31
 90 406 90 406 90 443 c 0,32,33
 90 498 90 498 126.5 544 c 128,-1,34
 163 590 163 590 200 590 c 0,0,1
396 486 m 0,35,36
 396 505 396 505 355 536 c 128,-1,37
 314 567 314 567 284 567 c 0,38,39
 278 567 278 567 275 566.5 c 128,-1,40
 272 566 272 566 266.5 564 c 128,-1,41
 261 562 261 562 256 559.5 c 128,-1,42
 251 557 251 557 237 550 c 128,-1,43
 223 543 223 543 207 535 c 0,44,45
 171 518 171 518 156.5 487 c 128,-1,46
 142 456 142 456 142 438 c 0,47,48
 142 422 142 422 159 395.5 c 128,-1,49
 176 369 176 369 192.5 350 c 128,-1,50
 209 331 209 331 212 331 c 0,51,52
 217 331 217 331 246 357 c 128,-1,53
 275 383 275 383 311.5 414.5 c 128,-1,54
 348 446 348 446 367 455 c 0,55,56
 396 472 396 472 396 486 c 0,35,36
273 35 m 0,57,58
 292 35 292 35 308.5 55 c 128,-1,59
 325 75 325 75 325 97 c 0,60,61
 325 137 325 137 265 204 c 0,62,63
 241 232 241 232 226 232 c 128,-1,64
 211 232 211 232 191 202 c 128,-1,65
 171 172 171 172 171 147 c 0,66,67
 171 112 171 112 208.5 73.5 c 128,-1,68
 246 35 246 35 273 35 c 0,57,58
EndSplineSet
EndChar

StartChar: nine
Encoding: 57 57 36
Width: 462
Flags: W
HStem: 298 44<128.675 241.352> 559 57<238.22 334.884>
VStem: 69 53<348.529 465.888> 309 54<-0.303349 326.082> 336 62<435.081 557.624>
LayerCount: 3
Back
SplineSet
252 600 m 0
 305 619 314 620 350 607 c 0
 393 591 407 554 392 489 c 0
 386 460 377 412 373 381 c 0
 362 312 359 63 368 41 c 0
 380 12 366 -22 341 -22 c 0
 309 -22 305 10 312 199 c 0
 319 376 323 367 262 322 c 0
 236 302 220 298 176 298 c 0
 128 299 119 302 99 324 c 0
 70 357 63 390 75 430 c 0
 99 513 153 563 252 600 c 0
336 519 m 0
 336 558 336 558 301 559 c 0
 249 560 212 547 180 515 c 0
 121 454 103 367 146 347 c 0
 177 333 228 349 274 387 c 0
 315 420 336 466 336 519 c 0
EndSplineSet
Fore
SplineSet
309 80 m 0xf0
 309 172 316 264 316 310 c 0
 316 339 313 350 305 350 c 0
 297 350 284 338 262 322 c 0
 236 302 220 298 176 298 c 0
 128 299 119 302 99 324 c 0
 79 347 69 370 69 395 c 0
 69 406 71 418 75 430 c 0
 99 513 153 563 252 600 c 0
 282 611 298 616 312 616 c 0
 321 616 398 611 398 534 c 0xe8
 398 468 363 451 363 151 c 0
 363 18 372 40 372 19 c 0
 372 -3 360 -22 341 -22 c 0
 317 -22 309 -5 309 80 c 0xf0
172 342 m 0
 219 342 336 396 336 519 c 0
 336 556 335 559 296 559 c 0
 246 559 211 546 180 515 c 0
 143 477 122 429 122 393 c 0
 122 368 132 342 172 342 c 0
EndSplineSet
Validated: 1
Layer: 2
SplineSet
309 80 m 0,0,1
 309 132 309 132 312.5 212.5 c 128,-1,2
 316 293 316 293 316 310 c 0,3,4
 316 350 316 350 305 350 c 0,5,6
 300 350 300 350 262 322 c 0,7,8
 243 307 243 307 226 302.5 c 128,-1,9
 209 298 209 298 176 298 c 0,10,11
 140 299 140 299 127 303.5 c 128,-1,12
 114 308 114 308 99 324 c 0,13,14
 69 358 69 358 69 395 c 0,15,16
 69 412 69 412 75 430 c 0,17,18
 93 492 93 492 135 532 c 128,-1,19
 177 572 177 572 252 600 c 0,20,21
 296 616 296 616 312 616 c 0,22,23
 319 616 319 616 330 613.5 c 128,-1,24
 341 611 341 611 358 604 c 128,-1,25
 375 597 375 597 386.5 579 c 128,-1,26
 398 561 398 561 398 534 c 0,27,28
 398 513 398 513 389 478 c 128,-1,29
 380 443 380 443 371.5 362.5 c 128,-1,30
 363 282 363 282 363 151 c 0,31,32
 363 106 363 106 364.5 78 c 128,-1,33
 366 50 366 50 367.5 43 c 128,-1,34
 369 36 369 36 370.5 30.5 c 128,-1,35
 372 25 372 25 372 19 c 0,36,37
 372 2 372 2 363.5 -10 c 128,-1,38
 355 -22 355 -22 341 -22 c 0,39,40
 322 -22 322 -22 315.5 -2 c 128,-1,41
 309 18 309 18 309 80 c 0,0,1
172 342 m 0,42,43
 191 342 191 342 217.5 353 c 128,-1,44
 244 364 244 364 271.5 384 c 128,-1,45
 299 404 299 404 317.5 440 c 128,-1,46
 336 476 336 476 336 519 c 0,47,48
 336 547 336 547 330.5 553 c 128,-1,49
 325 559 325 559 296 559 c 0,50,51
 224 559 224 559 180 515 c 0,52,53
 122 455 122 455 122 393 c 0,54,55
 122 342 122 342 172 342 c 0,42,43
EndSplineSet
EndChar

StartChar: colon
Encoding: 58 58 37
Width: 401
Flags: W
VStem: 144 87<19.2156 119.686 405.755 501.009>
LayerCount: 3
Back
SplineSet
167 121 m 0
 190 144 214 139 225 109 c 0
 232 88 232 81 227 68 c 0
 223 60 217 44 214 33 c 0
 201 -18 164 -12 149 45 c 0
 140 81 143 95 167 121 c 0
161 507 m 0
 177 526 191 523 213 497 c 0
 227 480 231 468 231 444 c 0
 231 419 229 413 220 413 c 0
 213 413 206 404 203 391 c 0
 199 374 194 369 181 369 c 0
 167 369 161 376 149 404 c 0
 136 436 135 443 142 467 c 0
 146 482 154 500 161 507 c 0
EndSplineSet
Fore
SplineSet
144 75 m 0
 144 105 175 135 195 135 c 0
 224 135 231 91 231 84 c 0
 231 71 220 56 214 33 c 0
 208 10 197 -2 185 -2 c 0
 161 -2 144 48 144 75 c 0
138 444 m 0
 138 462 155 519 181 519 c 0
 190 519 200 512 213 497 c 0
 227 480 231 468 231 444 c 0
 231 419 229 413 220 413 c 0
 213 413 206 404 203 391 c 0
 199 374 194 369 181 369 c 0
 167 369 161 376 149 404 c 0
 141 423 138 433 138 444 c 0
EndSplineSet
Validated: 1
Layer: 2
SplineSet
144 75 m 0,0,1
 144 96 144 96 161.5 115.5 c 128,-1,2
 179 135 179 135 195 135 c 0,3,4
 214 135 214 135 222.5 115.5 c 128,-1,5
 231 96 231 96 231 84 c 0,6,7
 231 77 231 77 224 60 c 128,-1,8
 217 43 217 43 214 33 c 0,9,10
 205 -2 205 -2 185 -2 c 0,11,12
 168 -2 168 -2 156 25 c 128,-1,13
 144 52 144 52 144 75 c 0,0,1
138 444 m 0,14,15
 138 462 138 462 151 490.5 c 128,-1,16
 164 519 164 519 181 519 c 0,17,18
 194 519 194 519 213 497 c 0,19,20
 231 475 231 475 231 444 c 0,21,22
 231 425 231 425 229 419 c 128,-1,23
 227 413 227 413 220 413 c 0,24,25
 208 413 208 413 203 391 c 0,26,27
 200 378 200 378 195.5 373.5 c 128,-1,28
 191 369 191 369 181 369 c 128,-1,29
 171 369 171 369 164.5 376 c 128,-1,30
 158 383 158 383 149 404 c 0,31,32
 138 430 138 430 138 444 c 0,14,15
EndSplineSet
EndChar

StartChar: semicolon
Encoding: 59 59 38
Width: 367
Flags: W
HStem: 295 143<164.854 240.349>
VStem: 148 101<312.613 424.715>
LayerCount: 3
Back
SplineSet
202 126 m 0
 217 141 235 137 238 118 c 0
 240 100 163 -89 150 -95 c 0
 137 -102 120 -91 120 -76 c 0
 120 -56 189 113 202 126 c 0
184 431 m 0
 218 441 221 441 234 428 c 0
 250 411 254 354 241 320 c 0
 231 294 228 292 201 297 c 0
 167 302 148 328 148 370 c 0
 148 409 156 422 184 431 c 0
EndSplineSet
Fore
SplineSet
202 126 m 0
 208 132 215 135 221 135 c 0
 235 135 238 121 238 117 c 0
 238 95 163 -89 150 -95 c 0
 147 -96 144 -97 141 -97 c 0
 131 -97 120 -88 120 -76 c 0
 120 -56 189 113 202 126 c 0
218 295 m 0
 193 295 148 306 148 370 c 0
 148 409 156 422 184 431 c 0
 200 436 209 438 216 438 c 0
 229 438 249 423 249 369 c 0
 249 347 243 295 218 295 c 0
EndSplineSet
Validated: 1
Layer: 2
SplineSet
202 126 m 0,0,1
 211 135 211 135 221 135 c 0,2,3
 238 135 238 135 238 117 c 0,4,5
 238 100 238 100 199 4.5 c 128,-1,6
 160 -91 160 -91 150 -95 c 0,7,8
 144 -97 144 -97 141 -97 c 0,9,10
 133 -97 133 -97 126.5 -91 c 128,-1,11
 120 -85 120 -85 120 -76 c 0,12,13
 120 -61 120 -61 156 27.5 c 128,-1,14
 192 116 192 116 202 126 c 0,0,1
218 295 m 0,15,16
 192 295 192 295 170 311.5 c 128,-1,17
 148 328 148 328 148 370 c 0,18,19
 148 399 148 399 155.5 411.5 c 128,-1,20
 163 424 163 424 184 431 c 0,21,22
 206 438 206 438 216 438 c 0,23,24
 228 438 228 438 238.5 421.5 c 128,-1,25
 249 405 249 405 249 369 c 0,26,27
 249 345 249 345 241.5 320 c 128,-1,28
 234 295 234 295 218 295 c 0,15,16
EndSplineSet
EndChar

StartChar: less
Encoding: 60 60 39
Width: 545
Flags: W
VStem: 74 84<283.035 356.87>
DStem2: 170 442 215 395 0.741874 0.67054<-89.6668 318.153>
LayerCount: 3
Back
SplineSet
326 583 m 0
 399 650 427 661 439 627 c 0
 444 613 435 597 410 576 c 0
 390 559 350 523 323 496 c 0
 295 470 246 423 215 395 c 0
 184 366 158 332 158 321 c 0
 158 295 295 137 351 99 c 0
 376 82 404 57 415 44 c 0
 434 21 434 17 418 -1 c 0
 397 -24 383 -26 373 -7 c 0
 369 1 338 26 304 50 c 0
 193 127 63 290 75 336 c 0
 79 351 121 398 170 442 c 0
 218 485 288 549 326 583 c 0
EndSplineSet
Fore
SplineSet
430 19 m 0
 430 8 404 -20 389 -20 c 0
 383 -20 378 -16 373 -7 c 0
 369 1 338 26 304 50 c 0
 198 124 74 276 74 329 c 0
 74 352 136 411 170 442 c 2
 326 583 l 2
 373 626 401 646 418 646 c 0
 436 646 440 625 440 619 c 0
 440 593 398 571 323 496 c 1
 215 395 l 2
 184 366 158 332 158 321 c 0
 158 295 295 137 351 99 c 0
 387 74 430 35 430 19 c 0
EndSplineSet
Validated: 1
Layer: 2
SplineSet
430 19 m 0,0,1
 430 10 430 10 415 -5 c 128,-1,2
 400 -20 400 -20 389 -20 c 0,3,4
 380 -20 380 -20 373 -7 c 0,5,6
 367 6 367 6 304 50 c 0,7,8
 225 105 225 105 149.5 197 c 128,-1,9
 74 289 74 289 74 329 c 0,10,11
 74 354 74 354 170 442 c 2,12,-1
 326 583 l 2,13,14
 395 646 395 646 418 646 c 0,15,16
 430 646 430 646 435 636.5 c 128,-1,17
 440 627 440 627 440 619 c 0,18,19
 440 607 440 607 429 595 c 128,-1,20
 418 583 418 583 384 553 c 128,-1,21
 350 523 350 523 323 496 c 2,22,-1
 215 395 l 2,23,24
 192 373 192 373 175 351 c 128,-1,25
 158 329 158 329 158 321 c 0,26,27
 158 301 158 301 233.5 214 c 128,-1,28
 309 127 309 127 351 99 c 0,29,30
 381 78 381 78 405.5 54 c 128,-1,31
 430 30 430 30 430 19 c 0,0,1
EndSplineSet
EndChar

StartChar: equal
Encoding: 61 61 40
Width: 515
Flags: W
HStem: 200 62<116.561 376.5> 338 68<112.198 344.048>
VStem: 108 292<222.618 245.863>
LayerCount: 3
Back
SplineSet
173 256 m 0
 212 265 376 263 390 254 c 0
 431 227 340 200 205 200 c 0
 115 200 108 202 108 221 c 0
 108 234 116 244 130 247 c 0
 143 249 163 254 173 256 c 0
194 398 m 0
 239 403 295 407 321 406 c 0
 359 405 366 401 366 384 c 0
 366 359 339 352 208 341 c 0
 123 335 119 335 113 357 c 0
 109 370 107 382 110 384 c 0
 112 386 150 392 194 398 c 0
EndSplineSet
Fore
SplineSet
275 262 m 0
 379 262 400 257 400 241 c 0
 400 219 318 200 205 200 c 0
 115 200 108 202 108 221 c 0
 108 244 123 246 173 256 c 0
 190 260 232 262 275 262 c 0
312 406 m 0
 357 406 366 402 366 384 c 0
 366 359 339 352 208 341 c 0
 179 339 159 338 146 338 c 0
 120 338 117 343 113 357 c 0
 110 366 109 374 109 379 c 0
 109 386 112 387 194 398 c 0
 234 403 283 406 312 406 c 0
EndSplineSet
Validated: 1
Layer: 2
SplineSet
275 262 m 0,0,1
 351 262 351 262 375.5 257.5 c 128,-1,2
 400 253 400 253 400 241 c 0,3,4
 400 224 400 224 344 212 c 128,-1,5
 288 200 288 200 205 200 c 0,6,7
 138 200 138 200 123 203.5 c 128,-1,8
 108 207 108 207 108 221 c 0,9,10
 108 237 108 237 119.5 242.5 c 128,-1,11
 131 248 131 248 173 256 c 0,12,13
 198 262 198 262 275 262 c 0,0,1
312 406 m 0,14,15
 346 406 346 406 356 402 c 128,-1,16
 366 398 366 398 366 384 c 0,17,18
 366 365 366 365 336.5 357 c 128,-1,19
 307 349 307 349 208 341 c 0,20,21
 165 338 165 338 146 338 c 0,22,23
 128 338 128 338 122 342 c 128,-1,24
 116 346 116 346 113 357 c 0,25,26
 109 369 109 369 109 379 c 0,27,28
 109 384 109 384 121 387 c 128,-1,29
 133 390 133 390 194 398 c 0,30,31
 258 406 258 406 312 406 c 0,14,15
EndSplineSet
EndChar

StartChar: greater
Encoding: 62 62 41
Width: 594
Flags: W
VStem: 414 75<272.307 335.847>
LayerCount: 3
Back
SplineSet
143 583 m 0
 152 585 161 588 163 588 c 0
 168 590 218 556 243 532 c 0
 287 492 361 433 411 398 c 0
 437 380 467 355 477 342 c 0
 500 313 502 316 373 143 c 0
 318 69 271 0 268 -9 c 0
 260 -30 218 -41 200 -26 c 0
 188 -16 188 -11 206 17 c 0
 216 35 232 52 239 55 c 0
 251 59 269 84 377 244 c 0
 397 274 414 305 414 313 c 0
 414 320 367 360 309 401 c 0
 140 522 96 570 143 583 c 0
EndSplineSet
Fore
SplineSet
125 566 m 0
 125 581 157 588 164 588 c 0
 171 588 219 555 243 532 c 0
 380 408 489 357 489 319 c 0
 489 298 463 263 373 143 c 0
 318 69 271 0 268 -9 c 0
 263 -23 241 -33 223 -33 c 0
 202 -33 192 -21 192 -13 c 0
 192 0 225 49 239 55 c 1
 251 59 269 84 377 244 c 0
 397 274 414 305 414 313 c 0
 414 320 367 360 309 401 c 0
 182 492 125 542 125 566 c 0
EndSplineSet
Validated: 1
Layer: 2
SplineSet
125 566 m 0,0,1
 125 576 125 576 140 582 c 128,-1,2
 155 588 155 588 164 588 c 0,3,4
 169 588 169 588 197.5 568.5 c 128,-1,5
 226 549 226 549 243 532 c 0,6,7
 297 483 297 483 363.5 433.5 c 128,-1,8
 430 384 430 384 459.5 360 c 128,-1,9
 489 336 489 336 489 319 c 0,10,11
 489 304 489 304 467.5 272.5 c 128,-1,12
 446 241 446 241 373 143 c 0,13,14
 274 10 274 10 268 -9 c 0,15,16
 264 -19 264 -19 250.5 -26 c 128,-1,17
 237 -33 237 -33 223 -33 c 128,-1,18
 209 -33 209 -33 200.5 -26.5 c 128,-1,19
 192 -20 192 -20 192 -13 c 0,20,21
 192 -3 192 -3 210.5 24 c 128,-1,22
 229 51 229 51 239 55 c 0,23,24
 248 58 248 58 271.5 90.5 c 128,-1,25
 295 123 295 123 377 244 c 0,26,27
 414 300 414 300 414 313 c 0,28,29
 414 318 414 318 383 344.5 c 128,-1,30
 352 371 352 371 309 401 c 0,31,32
 125 533 125 533 125 566 c 0,0,1
EndSplineSet
EndChar

StartChar: question
Encoding: 63 63 42
Width: 632
Flags: W
HStem: -19 119<269.74 328.015> 546 31<231.665 281.317> 648 45<273.747 307.996> 794 48<258.533 363.879>
VStem: 143 43<629.871 728.43> 263 92<10.1094 74.772> 281 49<232.316 402> 308 38<600.887 647.553> 417 46<573.472 739.752>
LayerCount: 3
Back
SplineSet
271 82 m 0
 275 91 284 100 290 100 c 0
 301 100 355 63 355 55 c 0
 355 53 348 37 339 19 c 0
 322 -15 292 -29 274 -12 c 0
 261 2 259 56 271 82 c 0
243 820 m 0
 300 851 341 850 387 814 c 0
 414 793 431 770 445 737 c 0
 482 645 464 579 363 448 c 2
 328 402 l 1
 329 327 l 2
 332 240 322 217 294 238 c 0
 279 250 276 389 290 430 c 0
 296 447 318 475 338 493 c 0
 403 550 435 656 407 722 c 0
 397 748 355 785 327 793 c 0
 285 805 186 729 186 685 c 0
 186 662 228 586 244 579 c 0
 259 572 282 586 297 612 c 0
 314 641 312 648 289 648 c 0
 262 648 267 677 295 689 c 0
 311 696 320 694 332 681 c 0
 364 645 337 560 289 549 c 0
 253 541 231 550 192 585 c 0
 152 623 134 675 148 716 c 0
 162 755 199 795 243 820 c 0
EndSplineSet
Fore
SplineSet
263 36 m 0xfc80
 263 90 285 100 290 100 c 0
 301 100 355 63 355 55 c 1
 355 55 332 -19 292 -19 c 0
 275 -19 263 -5 263 36 c 0xfc80
186 685 m 0
 186 665 228 577 252 577 c 0
 284 577 308 630 308 639 c 0
 308 646 302 648 289 648 c 0
 277 648 271 654 271 661 c 0
 271 680 299 693 311 693 c 0
 325 693 346 675 346 639 c 0xf980
 346 611 331 546 267 546 c 0
 217 546 143 617 143 687 c 0
 143 760 246 842 315 842 c 0
 393 842 463 745 463 656 c 0
 463 598 433 538 363 448 c 1
 328 402 l 1
 329 327 l 2
 329 317 330 308 330 300 c 0
 330 252 324 231 310 231 c 0
 288 231 281 258 281 338 c 0xfa80
 281 413 284 444 338 493 c 1
 387 536 417 607 417 667 c 0
 417 687 414 706 407 722 c 0
 396 751 345 794 317 794 c 0
 271 794 186 726 186 685 c 0
EndSplineSet
Validated: 1
Layer: 2
SplineSet
263 36 m 0,0,1
 263 60 263 60 269 76 c 128,-1,2
 275 92 275 92 280.5 96 c 128,-1,3
 286 100 286 100 290 100 c 0,4,5
 298 100 298 100 326.5 80.5 c 128,-1,6
 355 61 355 61 355 55 c 0,7,8
 352 47 352 47 347.5 34.5 c 128,-1,9
 343 22 343 22 326.5 1.5 c 128,-1,10
 310 -19 310 -19 292 -19 c 0,11,12
 263 -19 263 -19 263 36 c 0,0,1
186 685 m 0,13,14
 186 667 186 667 211 622 c 128,-1,15
 236 577 236 577 252 577 c 0,16,17
 273 577 273 577 290.5 602.5 c 128,-1,18
 308 628 308 628 308 639 c 0,19,20
 308 648 308 648 289 648 c 0,21,22
 271 648 271 648 271 661 c 128,-1,23
 271 674 271 674 285.5 683.5 c 128,-1,24
 300 693 300 693 311 693 c 0,25,26
 323 693 323 693 334.5 678.5 c 128,-1,27
 346 664 346 664 346 639 c 0,28,29
 346 608 346 608 327.5 577 c 128,-1,30
 309 546 309 546 267 546 c 0,31,32
 228 546 228 546 185.5 591.5 c 128,-1,33
 143 637 143 637 143 687 c 0,34,35
 143 740 143 740 202 791 c 128,-1,36
 261 842 261 842 315 842 c 0,37,38
 372 842 372 842 417.5 783 c 128,-1,39
 463 724 463 724 463 656 c 0,40,41
 463 577 463 577 363 448 c 2,42,-1
 328 402 l 1,43,-1
 329 327 l 2,44,45
 329 322 329 322 329.5 313 c 128,-1,46
 330 304 330 304 330 300 c 0,47,48
 330 231 330 231 310 231 c 0,49,50
 294 231 294 231 287.5 254.5 c 128,-1,51
 281 278 281 278 281 338 c 0,52,53
 281 400 281 400 290.5 429 c 128,-1,54
 300 458 300 458 338 493 c 0,55,56
 374 525 374 525 395.5 573 c 128,-1,57
 417 621 417 621 417 667 c 0,58,59
 417 699 417 699 407 722 c 0,60,61
 399 744 399 744 368.5 769 c 128,-1,62
 338 794 338 794 317 794 c 0,63,64
 282 794 282 794 234 754.5 c 128,-1,65
 186 715 186 715 186 685 c 0,13,14
EndSplineSet
EndChar

StartChar: at
Encoding: 64 64 43
Width: 704
Flags: W
HStem: -21 48<248.09 425.926> 173 40<232.365 310.341> 182 46<432.152 482.522> 215 77<502.155 532.412> 438 46<298.106 376.997> 593 37<320.439 452.62>
VStem: 80 55<138.283 418.848> 185 47<232.752 352.184> 377 51<228.62 254.998> 404 37<351 409.177> 507 48<251.766 291.997> 535 55<164.769 236> 545 44<294.925 506.576>
LayerCount: 3
Back
SplineSet
307 616 m 0
 361 632 454 635 479 622 c 0
 514 604 563 547 578 506 c 0
 597 458 591 341 568 286 c 0
 551 246 550 249 572 243 c 0
 598 237 596 211 562 131 c 0
 533 62 486 8 435 -13 c 0
 411 -22 302 -25 259 -16 c 0
 221 -9 136 47 130 69 c 0
 126 81 121 90 117 90 c 0
 100 90 78 208 80 293 c 0
 81 398 99 449 157 523 c 0
 201 577 226 593 307 616 c 0
467 567 m 0
 401 604 373 602 276 554 c 0
 213 522 197 505 162 430 c 0
 138 379 135 362 135 288 c 0
 135 209 140 181 165 116 c 0
 181 75 253 35 325 29 c 0
 381 24 389 25 428 50 c 0
 463 72 477 88 503 142 c 0
 521 179 535 211 535 214 c 0
 535 217 524 211 511 201 c 0
 496 189 472 182 451 182 c 0
 422 182 412 187 396 208 c 0
 386 223 377 239 377 245 c 0
 377 263 363 255 344 227 c 0
 323 195 286 173 253 173 c 0
 196 173 165 266 199 340 c 0
 220 387 310 484 332 484 c 0
 359 484 410 443 428 407 c 0
 443 377 444 367 434 326 c 0
 421 276 430 228 451 228 c 0
 464 228 507 270 507 283 c 0
 507 288 513 292 519 292 c 0
 536 292 552 398 542 439 c 0
 516 539 517 538 467 567 c 0
374 418 m 0
 357 429 337 438 329 438 c 0
 308 438 256 386 256 365 c 0
 256 356 252 345 248 343 c 0
 236 335 227 284 234 259 c 0
 241 229 300 200 313 219 c 0
 318 227 321 239 321 248 c 0
 321 257 325 264 330 264 c 0
 336 264 340 276 340 292 c 0
 340 307 344 326 349 335 c 0
 354 344 359 358 362 367 c 0
 365 376 375 383 385 383 c 0
 413 383 410 394 374 418 c 0
EndSplineSet
Fore
SplineSet
555 252 m 0x8f20
 555 239 590 252 590 220 c 0x8f10
 590 191 540 30 435 -13 c 0
 421 -18 378 -21 337 -21 c 0
 307 -21 277 -20 259 -16 c 0
 221 -9 136 47 130 69 c 0
 126 81 121 90 117 90 c 0
 101 90 80 198 80 282 c 0
 80 393 97 447 157 523 c 1
 201 577 226 593 307 616 c 0
 338 625 382 630 419 630 c 0
 446 630 468 627 479 622 c 0
 514 604 563 547 578 506 c 0
 586 486 589 456 589 422 c 0x8f08
 589 303 555 267 555 252 c 0x8f20
441 366 m 0xcf40
 441 336 428 323 428 280 c 0
 428 250 437 228 451 228 c 0
 464 228 507 270 507 283 c 0xafa0
 507 288 513 292 519 292 c 0
 532 292 545 357 545 405 c 0x9f08
 545 418 544 430 542 439 c 0
 516 539 517 538 467 567 c 0
 437 584 415 593 390 593 c 0
 361 593 329 580 276 554 c 0
 213 522 197 505 162 430 c 0
 138 379 135 362 135 288 c 0
 135 209 140 181 165 116 c 0
 176 87 239 27 364 27 c 0
 388 27 400 32 428 50 c 0
 463 72 477 88 503 142 c 0
 521 179 535 211 535 214 c 0
 535 215 535 215 534 215 c 0x9f90
 521 215 503 182 451 182 c 0
 422 182 412 187 396 208 c 1
 386 223 377 239 377 245 c 0xaf90
 377 252 375 255 372 255 c 0
 366 255 356 245 344 227 c 0
 323 195 286 173 253 173 c 0
 212 173 185 220 185 274 c 0
 185 296 189 319 199 340 c 0
 220 387 310 484 332 484 c 0
 367 484 441 418 441 366 c 0xcf40
299 213 m 0xdf40
 319 213 321 242 321 248 c 0
 321 257 325 264 330 264 c 0
 336 264 340 276 340 292 c 0
 340 326 351 333 362 367 c 0
 365 376 375 383 385 383 c 0
 397 383 404 385 404 390 c 0
 404 402 348 438 329 438 c 0
 308 438 256 386 256 365 c 0
 256 337 232 347 232 281 c 0
 232 222 292 213 299 213 c 0xdf40
EndSplineSet
Validated: 1
Layer: 2
SplineSet
555 252 m 0,0,1
 555 248 555 248 572.5 243 c 128,-1,2
 590 238 590 238 590 220 c 0,3,4
 590 201 590 201 574.5 157 c 128,-1,5
 559 113 559 113 521 59.5 c 128,-1,6
 483 6 483 6 435 -13 c 0,7,8
 413 -21 413 -21 337 -21 c 0,9,10
 282 -21 282 -21 259 -16 c 0,11,12
 230 -11 230 -11 182 21 c 128,-1,13
 134 53 134 53 130 69 c 0,14,15
 123 90 123 90 117 90 c 0,16,17
 105 90 105 90 92.5 154.5 c 128,-1,18
 80 219 80 219 80 282 c 0,19,20
 80 365 80 365 96 415.5 c 128,-1,21
 112 466 112 466 157 523 c 0,22,23
 190 564 190 564 218.5 581.5 c 128,-1,24
 247 599 247 599 307 616 c 0,25,26
 355 630 355 630 419 630 c 0,27,28
 461 630 461 630 479 622 c 0,29,30
 505 608 505 608 536 572.5 c 128,-1,31
 567 537 567 537 578 506 c 0,32,33
 589 478 589 478 589 422 c 0,34,35
 589 370 589 370 580.5 331 c 128,-1,36
 572 292 572 292 563.5 273.5 c 128,-1,37
 555 255 555 255 555 252 c 0,0,1
441 366 m 0,38,39
 441 353 441 353 434.5 328 c 128,-1,40
 428 303 428 303 428 280 c 0,41,42
 428 228 428 228 451 228 c 0,43,44
 461 228 461 228 484 250.5 c 128,-1,45
 507 273 507 273 507 283 c 0,46,47
 507 292 507 292 519 292 c 0,48,49
 528 292 528 292 536.5 330 c 128,-1,50
 545 368 545 368 545 405 c 0,51,52
 545 426 545 426 542 439 c 0,53,54
 527 495 527 495 520.5 512.5 c 128,-1,55
 514 530 514 530 504.5 540.5 c 128,-1,56
 495 551 495 551 467 567 c 0,57,58
 421 593 421 593 390 593 c 0,59,60
 356 593 356 593 276 554 c 0,61,62
 229 530 229 530 208.5 508 c 128,-1,63
 188 486 188 486 162 430 c 0,64,65
 144 392 144 392 139.5 368 c 128,-1,66
 135 344 135 344 135 288 c 0,67,68
 135 229 135 229 140.5 197 c 128,-1,69
 146 165 146 165 165 116 c 0,70,71
 176 87 176 87 228.5 57 c 128,-1,72
 281 27 281 27 364 27 c 0,73,74
 392 27 392 27 428 50 c 0,75,76
 455 67 455 67 469.5 84.5 c 128,-1,77
 484 102 484 102 503 142 c 0,78,79
 535 208 535 208 535 214 c 0,80,81
 535 215 535 215 534 215 c 0,82,83
 532 215 532 215 507 198.5 c 128,-1,84
 482 182 482 182 451 182 c 0,85,86
 429 182 429 182 418.5 187 c 128,-1,87
 408 192 408 192 396 208 c 0,88,89
 377 236 377 236 377 245 c 0,90,91
 377 255 377 255 372 255 c 0,92,93
 363 255 363 255 344 227 c 0,94,95
 328 203 328 203 303 188 c 128,-1,96
 278 173 278 173 253 173 c 0,97,98
 223 173 223 173 204 202.5 c 128,-1,99
 185 232 185 232 185 274 c 0,100,101
 185 311 185 311 199 340 c 0,102,103
 215 375 215 375 265 429.5 c 128,-1,104
 315 484 315 484 332 484 c 0,105,106
 360 484 360 484 400.5 443.5 c 128,-1,107
 441 403 441 403 441 366 c 0,38,39
299 213 m 0,108,109
 321 213 321 213 321 248 c 0,110,111
 321 264 321 264 330 264 c 0,112,113
 340 264 340 264 340 292 c 0,114,115
 340 307 340 307 343 317.5 c 128,-1,116
 346 328 346 328 352 341.5 c 128,-1,117
 358 355 358 355 362 367 c 0,118,119
 367 383 367 383 385 383 c 0,120,121
 404 383 404 383 404 390 c 0,122,123
 404 399 404 399 373.5 418.5 c 128,-1,124
 343 438 343 438 329 438 c 0,125,126
 313 438 313 438 284.5 409.5 c 128,-1,127
 256 381 256 381 256 365 c 0,128,129
 256 356 256 356 244 337.5 c 128,-1,130
 232 319 232 319 232 281 c 0,131,132
 232 261 232 261 241 246 c 128,-1,133
 250 231 250 231 263 224.5 c 128,-1,134
 276 218 276 218 285 215.5 c 128,-1,135
 294 213 294 213 299 213 c 0,108,109
EndSplineSet
EndChar

StartChar: A
Encoding: 65 65 44
Width: 738
Flags: W
VStem: 503 46<414.556 528.335>
DStem2: 313 360 286 297 0.994528 0.104467<0 193.208>
LayerCount: 3
Back
SplineSet
437 764 m 0
 451 773 455 773 473 762 c 0
 488 752 549 555 549 514 c 0
 550 499 558 460 567 428 c 0
 576 395 588 343 593 312 c 0
 597 281 614 214 630 163 c 0
 663 58 657 34 605 63 c 0
 584 75 575 91 569 122 c 0
 565 145 553 200 543 243 c 2
 524 322 l 1
 475 316 l 2
 448 312 395 306 356 303 c 2
 286 297 l 1
 257 242 l 2
 205 145 167 69 148 23 c 0
 128 -25 111 -38 83 -28 c 0
 61 -19 63 5 88 38 c 0
 100 53 110 74 110 84 c 0
 110 95 116 105 124 108 c 0
 132 111 145 135 153 161 c 0
 161 186 176 217 186 229 c 0
 205 250 218 280 283 449 c 0
 324 555 420 752 437 764 c 0
475 561 m 0
 465 603 453 638 447 640 c 0
 437 643 361 488 325 391 c 2
 313 360 l 1
 392 366 l 2
 507 376 509 377 500 436 c 0
 496 464 485 519 475 561 c 0
EndSplineSet
Fore
SplineSet
68 -6 m 0
 68 24 110 55 110 84 c 0
 110 95 116 105 124 108 c 0
 145 116 157 195 186 229 c 0
 205 250 218 280 283 449 c 0
 324 555 420 752 437 764 c 0
 444 768 448 771 453 771 c 0
 458 771 464 768 473 762 c 0
 488 752 549 555 549 514 c 1
 552 473 580 393 593 312 c 1
 604 230 650 116 650 73 c 0
 650 58 646 52 636 52 c 0
 629 52 618 56 605 63 c 0
 569 84 576 102 543 243 c 2
 524 322 l 1
 475 316 l 2
 448 312 395 306 356 303 c 2
 286 297 l 1
 257 242 l 2
 205 145 167 69 148 23 c 0
 132 -15 118 -31 99 -31 c 0
 89 -31 68 -26 68 -6 c 0
503 406 m 0
 503 434 463 640 447 640 c 0
 436 640 361 487 325 391 c 1
 313 360 l 1
 392 366 l 1
 483 374 503 376 503 406 c 0
EndSplineSet
Validated: 1
Layer: 2
SplineSet
68 -6 m 0,0,1
 68 9 68 9 89 39.5 c 128,-1,2
 110 70 110 70 110 84 c 0,3,4
 110 103 110 103 124 108 c 0,5,6
 135 112 135 112 153.5 162 c 128,-1,7
 172 212 172 212 186 229 c 0,8,9
 200 245 200 245 217 283 c 128,-1,10
 234 321 234 321 283 449 c 0,11,12
 314 529 314 529 369 642 c 128,-1,13
 424 755 424 755 437 764 c 0,14,15
 449 771 449 771 453 771 c 0,16,17
 460 771 460 771 473 762 c 0,18,19
 484 754 484 754 516.5 649 c 128,-1,20
 549 544 549 544 549 514 c 0,21,22
 550 494 550 494 568 423.5 c 128,-1,23
 586 353 586 353 593 312 c 0,24,25
 599 271 599 271 624.5 182.5 c 128,-1,26
 650 94 650 94 650 73 c 128,-1,27
 650 52 650 52 636 52 c 0,28,29
 625 52 625 52 605 63 c 0,30,31
 596 68 596 68 590 74 c 128,-1,32
 584 80 584 80 580.5 87 c 128,-1,33
 577 94 577 94 573 109 c 128,-1,34
 569 124 569 124 566 138 c 128,-1,35
 563 152 563 152 556.5 183 c 128,-1,36
 550 214 550 214 543 243 c 2,37,-1
 524 322 l 1,38,-1
 475 316 l 2,39,40
 421 308 421 308 356 303 c 2,41,-1
 286 297 l 1,42,-1
 257 242 l 2,43,44
 176 91 176 91 148 23 c 0,45,46
 125 -31 125 -31 99 -31 c 0,47,48
 88 -31 88 -31 78 -25 c 128,-1,49
 68 -19 68 -19 68 -6 c 0,0,1
503 406 m 0,50,51
 503 433 503 433 480.5 536.5 c 128,-1,52
 458 640 458 640 447 640 c 0,53,54
 439 640 439 640 395.5 551.5 c 128,-1,55
 352 463 352 463 325 391 c 2,56,-1
 313 360 l 1,57,-1
 392 366 l 2,58,59
 465 372 465 372 484 378.5 c 128,-1,60
 503 385 503 385 503 406 c 0,50,51
EndSplineSet
EndChar

StartChar: B
Encoding: 66 66 45
Width: 655
Flags: W
HStem: 12 55<342.268 429.859> 24 44<282.681 378.671> 412 67<423.004 485.147> 731 56<239.188 458.779>
VStem: 471 54<635.943 717.65> 521 53<176.595 373.919>
DStem2: 237 509 160 677 0.0905357 -0.995893<-174.281 87.1945 193.871 318.842>
LayerCount: 3
Back
SplineSet
225 771 m 0
 256 779 325 786 378 787 c 0
 467 788 476 786 500 761 c 0
 513 746 525 724 525 714 c 0
 525 668 500 603 462 549 c 0
 417 485 415 479 437 479 c 0
 464 479 534 436 550 410 c 0
 578 365 582 265 560 196 c 0
 523 81 420 -11 358 17 c 0
 337 26 321 26 296 17 c 0
 225 -9 217 6 204 190 c 0
 198 267 190 367 184 413 c 0
 179 458 171 537 167 587 c 2
 160 677 l 1
 121 677 l 2
 79 677 60 693 78 713 c 0
 93 729 155 753 225 771 c 0
457 715 m 0
 441 732 383 736 318 726 c 0
 218 709 225 715 225 652 c 0
 225 620 230 557 237 509 c 0
 247 436 252 424 270 424 c 0
 299 424 413 556 446 628 c 0
 477 696 477 693 457 715 c 0
486 391 m 0
 451 421 395 418 323 385 c 0
 306 377 284 368 273 364 c 0
 254 357 253 348 259 230 c 0
 267 80 272 71 355 68 c 0
 413 66 413 66 462 123 c 0
 502 168 513 190 518 231 c 0
 528 307 516 366 486 391 c 0
EndSplineSet
Fore
SplineSet
328 24 m 0x74
 303 24 278 7 256 7 c 0
 195 7 216 170 184 413 c 0
 179 458 171 537 167 587 c 2
 160 677 l 1
 121 677 l 2
 90 677 71 686 71 699 c 0
 71 728 171 757 225 771 c 0
 260 780 334 787 407 787 c 0
 469 787 479 783 500 761 c 0
 513 746 525 724 525 714 c 0x78
 525 609 423 507 423 485 c 0
 423 480 428 479 437 479 c 0
 464 479 534 436 550 410 c 0
 566 384 574 341 574 295 c 0
 574 121 448 12 382 12 c 0xb4
 361 12 352 24 328 24 c 0x74
457 715 m 0
 447 726 419 731 384 731 c 0
 364 731 342 730 318 726 c 0
 230 711 225 714 225 672 c 2
 225 652 l 2
 225 620 230 557 237 509 c 0
 247 436 252 424 270 424 c 0
 299 424 413 556 446 628 c 0
 463 666 471 682 471 692 c 0
 471 700 466 705 457 715 c 0
521 281 m 0xb4
 521 347 502 412 424 412 c 0
 368 412 318 380 273 364 c 0
 260 359 256 354 256 317 c 0
 256 297 257 270 259 230 c 0
 267 80 272 71 355 68 c 0x74
 364 68 372 67 379 67 c 0
 414 67 421 75 462 123 c 1
 502 168 521 194 521 281 c 0xb4
EndSplineSet
Validated: 1
Layer: 2
SplineSet
328 24 m 0,0,1
 315 24 315 24 291 15.5 c 128,-1,2
 267 7 267 7 256 7 c 0,3,4
 243 7 243 7 234.5 16.5 c 128,-1,5
 226 26 226 26 220.5 45.5 c 128,-1,6
 215 65 215 65 212 90 c 128,-1,7
 209 115 209 115 206.5 152 c 128,-1,8
 204 189 204 189 201.5 226 c 128,-1,9
 199 263 199 263 194.5 314.5 c 128,-1,10
 190 366 190 366 184 413 c 0,11,12
 173 512 173 512 167 587 c 2,13,-1
 160 677 l 1,14,-1
 121 677 l 2,15,16
 71 677 71 677 71 699 c 0,17,18
 71 731 71 731 225 771 c 0,19,20
 287 787 287 787 407 787 c 0,21,22
 453 787 453 787 468.5 782.5 c 128,-1,23
 484 778 484 778 500 761 c 0,24,25
 525 732 525 732 525 714 c 0,26,27
 525 668 525 668 499.5 616 c 128,-1,28
 474 564 474 564 448.5 528 c 128,-1,29
 423 492 423 492 423 485 c 0,30,31
 423 479 423 479 437 479 c 0,32,33
 457 479 457 479 497.5 454.5 c 128,-1,34
 538 430 538 430 550 410 c 0,35,36
 574 371 574 371 574 295 c 0,37,38
 574 176 574 176 507.5 94 c 128,-1,39
 441 12 441 12 382 12 c 0,40,41
 372 12 372 12 356 18 c 128,-1,42
 340 24 340 24 328 24 c 0,0,1
457 715 m 0,43,44
 442 731 442 731 384 731 c 0,45,46
 348 731 348 731 318 726 c 0,47,48
 244.237603546 713.426864241 244.237603546 713.426864241 235.243764895 707.172233225 c 0,49,50
 225 700.048359635 225 700.048359635 225 672 c 2,51,-1
 225 652 l 2,52,53
 225 591 225 591 237 509 c 0,54,55
 244 455 244 455 250 439.5 c 128,-1,56
 256 424 256 424 270 424 c 0,57,58
 292 424 292 424 356.5 499 c 128,-1,59
 421 574 421 574 446 628 c 0,60,61
 471 684 471 684 471 692 c 0,62,63
 471 699 471 699 457 715 c 0,43,44
521 281 m 0,64,65
 521 412 521 412 424 412 c 0,66,67
 399 412 399 412 373.5 404.5 c 128,-1,68
 348 397 348 397 316.5 382.5 c 128,-1,69
 285 368 285 368 273 364 c 0,70,71
 263 360 263 360 259.5 352 c 128,-1,72
 256 344 256 344 256 317 c 128,-1,73
 256 290 256 290 259 230 c 0,74,75
 261 194 261 194 262.5 173.5 c 128,-1,76
 264 153 264 153 266.5 133 c 128,-1,77
 269 113 269 113 274 104 c 128,-1,78
 279 95 279 95 284.5 86.5 c 128,-1,79
 290 78 290 78 301 75 c 128,-1,80
 312 72 312 72 323.5 70.5 c 128,-1,81
 335 69 335 69 355 68 c 0,82,83
 360 68 360 68 368 67.5 c 128,-1,84
 376 67 376 67 379 67 c 0,85,86
 404 67 404 67 417 76 c 128,-1,87
 430 85 430 85 462 123 c 0,88,89
 496 161 496 161 508.5 190.5 c 128,-1,90
 521 220 521 220 521 281 c 0,64,65
EndSplineSet
EndChar

StartChar: C
Encoding: 67 67 46
Width: 727
Flags: W
HStem: 10 70<263.8 398.969> 749 61<394.465 516.361>
VStem: 121 60<175.068 523.44>
LayerCount: 3
Back
SplineSet
382 799 m 0
 444 815 470 814 511 795 c 0
 547 779 573 744 573 715 c 0
 573 692 530 702 517 727 c 0
 506 750 498 752 454 745 c 0
 388 735 291 684 248 636 c 0
 204 588 186 508 182 353 c 0
 179 254 182 223 200 181 c 0
 225 121 278 80 329 80 c 0
 363 80 443 117 468 145 c 0
 476 153 498 175 519 196 c 0
 540 216 569 252 584 275 c 0
 628 343 651 354 651 307 c 0
 651 276 583 171 525 112 c 0
 374 -41 221 -21 131 164 c 0
 114 199 121 510 141 579 c 0
 167 674 274 770 382 799 c 0
EndSplineSet
Fore
SplineSet
651 307 m 0
 651 269 501 10 327 10 c 0
 250 10 181 62 131 164 c 0
 124 178 121 233 121 300 c 0
 121 404 129 537 141 579 c 0
 176 707 339 810 450 810 c 0
 511 810 573 763 573 715 c 0
 573 706 566 702 558 702 c 0
 544 702 525 712 517 727 c 1
 510 743 503 749 486 749 c 0
 417 749 300 693 248 636 c 0
 208 593 181 515 181 298 c 0
 181 240 186 214 200 181 c 0
 225 121 278 80 329 80 c 0
 363 80 443 117 468 145 c 1
 519 196 l 1
 579 253 615 336 640 336 c 0
 647 336 651 326 651 307 c 0
EndSplineSet
Validated: 1
Layer: 2
SplineSet
651 307 m 0,0,1
 651 295 651 295 634.5 262 c 128,-1,2
 618 229 618 229 586.5 186 c 128,-1,3
 555 143 555 143 516.5 103.5 c 128,-1,4
 478 64 478 64 427 37 c 128,-1,5
 376 10 376 10 327 10 c 0,6,7
 206 10 206 10 131 164 c 0,8,9
 121 184 121 184 121 300 c 0,10,11
 121 509 121 509 141 579 c 0,12,13
 166 671 166 671 264 740.5 c 128,-1,14
 362 810 362 810 450 810 c 0,15,16
 496 810 496 810 534.5 780.5 c 128,-1,17
 573 751 573 751 573 715 c 0,18,19
 573 702 573 702 558 702 c 0,20,21
 547 702 547 702 535 709 c 128,-1,22
 523 716 523 716 517 727 c 0,23,24
 507 749 507 749 486 749 c 0,25,26
 434 749 434 749 360.5 714 c 128,-1,27
 287 679 287 679 248 636 c 0,28,29
 215 600 215 600 198 525 c 128,-1,30
 181 450 181 450 181 298 c 0,31,32
 181 226 181 226 200 181 c 128,-1,33
 219 136 219 136 255 108 c 128,-1,34
 291 80 291 80 329 80 c 0,35,36
 355 80 355 80 402 102 c 128,-1,37
 449 124 449 124 468 145 c 2,38,-1
 519 196 l 2,39,40
 543 219 543 219 569.5 255.5 c 128,-1,41
 596 292 596 292 612.5 314 c 128,-1,42
 629 336 629 336 640 336 c 128,-1,43
 651 336 651 336 651 307 c 0,0,1
EndSplineSet
EndChar

StartChar: D
Encoding: 68 68 47
Width: 855
Flags: W
HStem: 631 94<70.1892 120.894> 711 81<250.974 517.202>
VStem: 225 72<615.312 690.878> 284 70<77.1692 320.848> 284 60<77.5416 120.625> 709 72<362.158 609.992>
LayerCount: 3
Back
SplineSet
223 782 m 0
 352 795 388 795 464 781 c 0
 741 733 811 647 771 406 c 0
 740 221 581 40 415 0 c 0
 386 -7 371 -20 366 -43 c 0
 361 -66 349 -76 328 -76 c 0
 311 -76 297 -70 297 -64 c 0
 297 -57 285 -48 271 -44 c 0
 241 -36 236 17 265 29 c 0
 288 39 290 137 271 261 c 0
 263 308 250 423 241 518 c 2
 225 691 l 1
 189 688 l 2
 168 686 139 672 122 654 c 0
 95 626 90 625 72 645 c 0
 55 663 54 673 66 696 c 0
 74 713 87 725 95 725 c 0
 103 725 116 736 125 749 c 0
 136 766 166 776 223 782 c 0
526 691 m 0
 468 702 390 711 357 711 c 0
 286 711 287 718 316 504 c 0
 327 424 341 319 347 269 c 0
 354 219 356 155 352 127 c 2
 344 76 l 1
 398 76 l 2
 460 76 522 115 600 202 c 0
 674 285 707 372 709 490 c 0
 711 582 708 591 673 629 c 0
 642 662 615 674 526 691 c 0
EndSplineSet
Fore
SplineSet
58 671 m 0xa4
 58 689 80 725 95 725 c 0xa4
 103 725 116 736 125 749 c 0
 136 766 166 776 223 782 c 0
 286 788 327 792 361 792 c 0
 397 792 425 788 464 781 c 0
 694 741 781 675 781 516 c 0
 781 221 565 36 415 0 c 0
 340 -18 386 -76 328 -76 c 0
 311 -76 297 -70 297 -64 c 0x64
 297 -42 246 -53 246 -5 c 0
 246 10 252 24 265 29 c 0
 278 34 284 66 284 114 c 0x54
 284 210 265 261 241 518 c 2
 225 691 l 1
 189 688 l 2
 135 683 109 631 91 631 c 0
 82 631 58 655 58 671 c 0xa4
297 668 m 0
 297 595 354 281 354 167 c 0x54
 354 150 353 137 352 127 c 2
 344 76 l 1
 398 76 l 2
 460 76 522 115 600 202 c 0
 690 303 709 395 709 525 c 0
 709 585 703 596 673 629 c 0
 642 662 615 674 526 691 c 0
 508 694 417 711 345 711 c 0x4c
 311 711 297 709 297 668 c 0
EndSplineSet
Validated: 1
Layer: 2
SplineSet
58 671 m 0,0,1
 58 685 58 685 71 705 c 128,-1,2
 84 725 84 725 95 725 c 0,3,4
 108 725 108 725 125 749 c 0,5,6
 141 773 141 773 223 782 c 0,7,8
 328 792 328 792 361 792 c 0,9,10
 403 792 403 792 464 781 c 0,11,12
 639 751 639 751 710 692.5 c 128,-1,13
 781 634 781 634 781 516 c 0,14,15
 781 411 781 411 745.5 317 c 128,-1,16
 710 223 710 223 654 160 c 128,-1,17
 598 97 598 97 536 55.5 c 128,-1,18
 474 14 474 14 415 0 c 0,19,20
 390 -6 390 -6 378 -19.5 c 128,-1,21
 366 -33 366 -33 365 -45 c 128,-1,22
 364 -57 364 -57 355.5 -66.5 c 128,-1,23
 347 -76 347 -76 328 -76 c 0,24,25
 297 -76 297 -76 297 -64 c 0,26,27
 297 -57 297 -57 289 -52 c 128,-1,28
 281 -47 281 -47 271.5 -44 c 128,-1,29
 262 -41 262 -41 254 -31 c 128,-1,30
 246 -21 246 -21 246 -5 c 0,31,32
 246 22 246 22 265 29 c 128,-1,33
 284 36 284 36 284 114 c 0,34,35
 284 155 284 155 279 197.5 c 128,-1,36
 274 240 274 240 262.5 326.5 c 128,-1,37
 251 413 251 413 241 518 c 2,38,-1
 225 691 l 1,39,-1
 189 688 l 2,40,41
 166 686 166 686 145 671.5 c 128,-1,42
 124 657 124 657 111 644 c 128,-1,43
 98 631 98 631 91 631 c 128,-1,44
 84 631 84 631 71 645.5 c 128,-1,45
 58 660 58 660 58 671 c 0,0,1
297 668 m 0,46,47
 297 637 297 637 325.5 433 c 128,-1,48
 354 229 354 229 354 167 c 0,49,50
 354 147 354 147 352 127 c 2,51,-1
 344 76 l 1,52,-1
 398 76 l 2,53,54
 487 76 487 76 600 202 c 0,55,56
 664 274 664 274 686.5 347 c 128,-1,57
 709 420 709 420 709 525 c 0,58,59
 709 569 709 569 702.5 586 c 128,-1,60
 696 603 696 603 673 629 c 0,61,62
 650 654 650 654 621 666 c 128,-1,63
 592 678 592 678 526 691 c 0,64,65
 406 711 406 711 345 711 c 0,66,67
 317 711 317 711 307 704 c 128,-1,68
 297 697 297 697 297 668 c 0,46,47
EndSplineSet
EndChar

StartChar: E
Encoding: 69 69 48
Width: 579
Flags: W
HStem: -11 75<164 340.546> 733 60<293.254 472.696>
VStem: 66 68<389.69 653.403>
LayerCount: 3
Back
SplineSet
285 782 m 0
 391 802 485 794 485 764 c 0
 485 756 446 743 389 733 c 0
 284 716 181 679 149 648 c 0
 135 633 131 616 135 584 c 0
 138 560 144 500 148 451 c 0
 154 373 157 362 172 371 c 0
 193 384 364 425 406 427 c 0
 424 428 435 421 438 407 c 0
 443 380 415 367 269 330 c 0
 162 304 158 301 159 270 c 0
 159 251 160 199 161 150 c 2
 164 64 l 1
 215 64 l 2
 275 64 383 93 445 126 c 0
 485 148 491 148 506 132 c 0
 533 101 510 77 418 36 c 0
 312 -11 145 -27 120 8 c 0
 109 22 101 83 95 204 c 0
 90 301 80 439 73 513 c 0
 63 621 63 653 75 677 c 0
 83 693 97 707 105 707 c 0
 113 707 146 722 177 740 c 0
 208 757 258 776 285 782 c 0
EndSplineSet
Fore
SplineSet
66 623 m 0
 66 689 97 707 105 707 c 0
 142 707 215 793 394 793 c 0
 448 793 485 783 485 764 c 0
 485 756 446 743 389 733 c 0
 284 716 181 679 149 648 c 0
 138 637 134 624 134 605 c 0
 134 590 140 543 148 451 c 0
 153 387 156 368 165 368 c 0
 167 368 169 369 172 371 c 0
 195 385 376 427 409 427 c 0
 433 427 439 412 439 402 c 0
 439 378 405 364 269 330 c 0
 169 306 159 301 159 275 c 0
 159 250 160 212 161 150 c 1
 164 64 l 1
 215 64 l 2
 275 64 383 93 445 126 c 0
 467 138 478 143 487 143 c 0
 500 143 517 123 517 109 c 0
 517 64 339 -11 196 -11 c 0
 158 -11 129 -5 120 8 c 1
 96 38 97 263 73 513 c 0
 68 565 66 599 66 623 c 0
EndSplineSet
Validated: 1
Layer: 2
SplineSet
66 623 m 0,0,1
 66 653 66 653 74.5 673.5 c 128,-1,2
 83 694 83 694 91 700.5 c 128,-1,3
 99 707 99 707 105 707 c 0,4,5
 116 707 116 707 141 720.5 c 128,-1,6
 166 734 166 734 195.5 750 c 128,-1,7
 225 766 225 766 279 779.5 c 128,-1,8
 333 793 333 793 394 793 c 0,9,10
 485 793 485 793 485 764 c 0,11,12
 485 750 485 750 389 733 c 0,13,14
 311 720 311 720 242 695.5 c 128,-1,15
 173 671 173 671 149 648 c 0,16,17
 134 633 134 633 134 605 c 0,18,19
 134 599 134 599 135.5 581.5 c 128,-1,20
 137 564 137 564 141 526 c 128,-1,21
 145 488 145 488 148 451 c 0,22,23
 154 368 154 368 165 368 c 0,24,25
 168 368 168 368 172 371 c 0,26,27
 189 381 189 381 286.5 404 c 128,-1,28
 384 427 384 427 409 427 c 0,29,30
 439 427 439 427 439 402 c 0,31,32
 439 384 439 384 405 370 c 128,-1,33
 371 356 371 356 269 330 c 0,34,35
 194 312 194 312 176.5 303 c 128,-1,36
 159 294 159 294 159 275 c 0,37,38
 159 274 159 274 161 150 c 2,39,-1
 164 64 l 1,40,-1
 215 64 l 2,41,42
 260 64 260 64 329.5 82.5 c 128,-1,43
 399 101 399 101 445 126 c 0,44,45
 476 143 476 143 487 143 c 0,46,47
 497 143 497 143 507 131.5 c 128,-1,48
 517 120 517 120 517 109 c 0,49,50
 517 74 517 74 408.5 31.5 c 128,-1,51
 300 -11 300 -11 196 -11 c 0,52,53
 133 -11 133 -11 120 8 c 0,54,55
 109 21 109 21 103 87.5 c 128,-1,56
 97 154 97 154 89.5 286.5 c 128,-1,57
 82 419 82 419 73 513 c 0,58,59
 66 586 66 586 66 623 c 0,0,1
EndSplineSet
EndChar

StartChar: F
Encoding: 70 70 49
Width: 602
Flags: W
HStem: 356 78<260.8 387.723> 687 102<346.39 407.335>
VStem: 124 69<422.59 666> 159 68<14.5904 283.182>
LayerCount: 3
Back
SplineSet
377 777 m 0
 386 783 424 789 461 789 c 0
 511 789 529 784 534 770 c 0
 544 742 527 731 457 718 c 0
 423 712 349 698 294 687 c 2
 193 666 l 1
 193 586 l 2
 193 542 196 487 200 463 c 2
 207 419 l 1
 271 426 l 2
 371 439 460 436 465 421 c 0
 471 403 400 375 300 356 c 2
 216 341 l 1
 224 182 l 2
 231 15 227 -1 182 14 c 0
 162 20 159 32 159 96 c 0
 159 137 151 216 142 272 c 0
 132 331 124 446 124 544 c 2
 124 713 l 1
 197 739 l 2
 237 753 289 765 314 765 c 0
 340 765 367 770 377 777 c 0
EndSplineSet
Fore
SplineSet
314 765 m 0xe0
 388 765 360 789 461 789 c 0
 515 789 537 784 537 757 c 0
 537 726 487 726 294 687 c 1
 193 666 l 1
 193 586 l 2xe0
 193 542 196 487 200 463 c 2
 207 419 l 1
 271 426 l 1
 314 432 355 434 388 434 c 0
 421 434 465 432 465 419 c 0
 465 401 396 374 300 356 c 2
 216 341 l 1
 224 182 l 2
 226 142 227 111 227 86 c 0
 227 27 221 10 202 10 c 0
 197 10 190 11 182 14 c 0
 162 20 159 32 159 96 c 0xd0
 159 219 124 300 124 544 c 2
 124 713 l 1
 197 739 l 2
 237 753 289 765 314 765 c 0xe0
EndSplineSet
Validated: 1
Layer: 2
SplineSet
314 765 m 0,0,1
 348 765 348 765 377.5 777 c 128,-1,2
 407 789 407 789 461 789 c 0,3,4
 504 789 504 789 520.5 782.5 c 128,-1,5
 537 776 537 776 537 757 c 0,6,7
 537 740 537 740 514.5 732.5 c 128,-1,8
 492 725 492 725 406.438903792 708.728207155 c 0,9,10
 385 705 385 705 372.5 702.5 c 128,-1,11
 360 700 360 700 337.5 695.5 c 128,-1,12
 315 691 315 691 294 687 c 2,13,-1
 193 666 l 1,14,-1
 193 586 l 2,15,16
 193 505 193 505 200 463 c 2,17,-1
 207 419 l 1,18,-1
 271 426 l 2,19,20
 328 434 328 434 388 434 c 0,21,22
 465 434 465 434 465 419 c 0,23,24
 465 405 465 405 418 387 c 128,-1,25
 371 369 371 369 300 356 c 2,26,-1
 216 341 l 1,27,-1
 224 182 l 2,28,29
 227 122 227 122 227 86 c 0,30,31
 227 42 227 42 221.5 26 c 128,-1,32
 216 10 216 10 202 10 c 0,33,34
 193 10 193 10 182 14 c 0,35,36
 167 18 167 18 163 33 c 128,-1,37
 159 48 159 48 159 96 c 0,38,39
 159 142 159 142 141.5 274.5 c 128,-1,40
 124 407 124 407 124 544 c 2,41,-1
 124 713 l 1,42,-1
 197 739 l 2,43,44
 271 765 271 765 314 765 c 0,0,1
EndSplineSet
EndChar

StartChar: G
Encoding: 71 71 50
Width: 700
Flags: W
HStem: -6 75<182.938 323.324> 365 94<368.771 474.748> 693 68<442.398 539.95>
VStem: 85 72<96.5567 376.584> 537 77<0.432144 245.434>
LayerCount: 3
Back
SplineSet
444 744 m 0
 459 770 542 766 575 737 c 0
 599 715 601 708 588 678 c 0
 571 638 549 635 540 672 c 0
 535 694 528 697 496 690 c 0
 385 665 277 567 201 422 c 0
 161 345 157 328 157 238 c 0
 157 107 175 69 238 69 c 0
 304 69 359 97 403 155 c 0
 450 218 487 303 480 332 c 0
 473 361 441 375 424 357 c 0
 409 340 355 340 315 356 c 0
 273 374 274 419 318 430 c 0
 336 435 353 444 357 451 c 0
 370 471 522 448 554 421 c 0
 588 393 607 293 613 116 c 0
 615 31 612 10 596 -1 c 0
 582 -11 571 -10 557 2 c 0
 542 16 537 45 537 132 c 2
 537 246 l 1
 505 193 l 2
 405 30 265 -44 164 13 c 0
 129 32 118 49 100 115 c 0
 82 180 81 209 91 289 c 0
 104 396 120 435 192 541 c 0
 245 620 323 685 393 711 c 0
 415 720 439 735 444 744 c 0
EndSplineSet
Fore
SplineSet
378 344 m 0
 348 344 284 354 284 395 c 0
 284 435 344 428 357 451 c 0
 360 456 374 459 392 459 c 0
 442 459 530 441 554 421 c 0
 595 387 614 233 614 77 c 0
 614 24 609 8 596 -1 c 0
 590 -6 584 -8 578 -8 c 0
 571 -8 565 -5 557 2 c 0
 542 16 537 45 537 132 c 2
 537 246 l 1
 505 193 l 2
 428 67 326 -6 237 -6 c 0
 212 -6 187 0 164 13 c 0
 129 32 118 49 100 115 c 0
 89 153 85 179 85 210 c 0
 85 232 87 256 91 289 c 0
 104 396 120 435 192 541 c 0
 303 706 424 709 444 744 c 0
 451 756 471 761 495 761 c 0
 558 761 596 727 596 705 c 0
 596 694 579 646 559 646 c 0
 535 646 548 693 519 693 c 0
 476 693 319 647 201 422 c 0
 161 345 157 328 157 238 c 0
 157 107 175 69 238 69 c 0
 304 69 359 97 403 155 c 0
 446 213 481 289 481 324 c 0
 481 347 460 365 443 365 c 0
 420 365 430 344 378 344 c 0
EndSplineSet
Validated: 1
Layer: 2
SplineSet
378 344 m 0,0,1
 346 344 346 344 315 356 c 128,-1,2
 284 368 284 368 284 395 c 0,3,4
 284 412 284 412 299 421 c 128,-1,5
 314 430 314 430 333 436 c 128,-1,6
 352 442 352 442 357 451 c 0,7,8
 362 459 362 459 392 459 c 0,9,10
 431 459 431 459 484 447 c 128,-1,11
 537 435 537 435 554 421 c 0,12,13
 583 397 583 397 598.5 300 c 128,-1,14
 614 203 614 203 614 77 c 0,15,16
 614 11 614 11 596 -1 c 0,17,18
 588 -8 588 -8 578 -8 c 128,-1,19
 568 -8 568 -8 557 2 c 0,20,21
 537 21 537 21 537 132 c 2,22,-1
 537 246 l 1,23,-1
 505 193 l 2,24,25
 448 99 448 99 376 46.5 c 128,-1,26
 304 -6 304 -6 237 -6 c 0,27,28
 198 -6 198 -6 164 13 c 0,29,30
 138 27 138 27 125.5 46.5 c 128,-1,31
 113 66 113 66 100 115 c 0,32,33
 85 167 85 167 85 210 c 0,34,35
 85 240 85 240 91 289 c 0,36,37
 101 369 101 369 119.5 415 c 128,-1,38
 138 461 138 461 192 541 c 0,39,40
 230 597 230 597 275 637 c 128,-1,41
 320 677 320 677 352.5 692 c 128,-1,42
 385 707 385 707 411.5 720.5 c 128,-1,43
 438 734 438 734 444 744 c 0,44,45
 454 761 454 761 495 761 c 0,46,47
 539 761 539 761 567.5 742.5 c 128,-1,48
 596 724 596 724 596 705 c 0,49,50
 596 693 596 693 584 669.5 c 128,-1,51
 572 646 572 646 559 646 c 0,52,53
 548 646 548 646 541 669.5 c 128,-1,54
 534 693 534 693 519 693 c 128,-1,55
 504 693 504 693 481 687 c 128,-1,56
 458 681 458 681 422.5 662 c 128,-1,57
 387 643 387 643 351.5 615 c 128,-1,58
 316 587 316 587 275 536.5 c 128,-1,59
 234 486 234 486 201 422 c 0,60,61
 171 364 171 364 164 335 c 128,-1,62
 157 306 157 306 157 238 c 0,63,64
 157 140 157 140 174 104.5 c 128,-1,65
 191 69 191 69 238 69 c 0,66,67
 338 69 338 69 403 155 c 0,68,69
 435 198 435 198 458 248 c 128,-1,70
 481 298 481 298 481 324 c 0,71,72
 481 340 481 340 468.5 352.5 c 128,-1,73
 456 365 456 365 443 365 c 0,74,75
 435 365 435 365 421.5 354.5 c 128,-1,76
 408 344 408 344 378 344 c 0,0,1
EndSplineSet
EndChar

StartChar: H
Encoding: 72 72 51
Width: 666
Flags: W
VStem: 96 90<153.957 324> 515 70<171.777 455.938>
LayerCount: 3
Back
SplineSet
96 801 m 0
 104 821 118 837 127 837 c 0
 139 837 147 785 160 625 c 0
 174 443 179 414 195 421 c 0
 217 432 307 464 404 494 c 0
 440 506 477 521 484 528 c 0
 492 535 501 575 506 617 c 0
 516 713 524 738 547 738 c 0
 576 738 583 682 585 407 c 0
 587 259 591 119 595 95 c 0
 600 61 597 49 580 42 c 0
 533 21 520 66 515 267 c 0
 513 371 506 456 500 456 c 0
 493 456 456 441 418 422 c 0
 380 404 311 374 264 356 c 2
 180 324 l 1
 186 143 l 2
 192 -37 184 -78 149 -53 c 0
 121 -33 112 47 96 405 c 0
 85 679 85 773 96 801 c 0
EndSplineSet
Fore
SplineSet
597 71 m 0
 597 39 566 37 562 37 c 0
 529 37 519 95 515 267 c 0
 513 371 506 456 500 456 c 0
 480 456 402 409 264 356 c 2
 180 324 l 1
 186 143 l 2
 187 108 188 78 188 52 c 0
 188 -28 181 -60 165 -60 c 0
 160 -60 155 -57 149 -53 c 0
 121 -33 112 47 96 405 c 0
 90 542 88 634 88 695 c 0
 88 756 90 787 96 801 c 0
 104 821 118 837 127 837 c 0
 159 837 159 420 191 420 c 0
 198 420 221 437 404 494 c 0
 440 506 477 521 484 528 c 0
 492 535 501 575 506 617 c 0
 516 713 524 738 547 738 c 0
 576 738 583 682 585 407 c 1
 590 71 597 96 597 71 c 0
EndSplineSet
Validated: 1
Layer: 2
SplineSet
597 71 m 0,0,1
 597 57 597 57 588.5 48.5 c 128,-1,2
 580 40 580 40 573.5 38.5 c 128,-1,3
 567 37 567 37 562 37 c 0,4,5
 538 37 538 37 528 86.5 c 128,-1,6
 518 136 518 136 515 267 c 0,7,8
 511 456 511 456 500 456 c 0,9,10
 492 456 492 456 464 443 c 128,-1,11
 436 430 436 430 379 404 c 128,-1,12
 322 378 322 378 264 356 c 2,13,-1
 180 324 l 1,14,-1
 186 143 l 2,15,16
 188 73 188 73 188 52 c 0,17,18
 188 -60 188 -60 165 -60 c 0,19,20
 160 -60 160 -60 149 -53 c 0,21,22
 128 -38 128 -38 118 49 c 128,-1,23
 108 136 108 136 96 405 c 0,24,25
 88 588 88 588 88 695 c 0,26,27
 88 782 88 782 96 801 c 0,28,29
 102 816 102 816 111 826.5 c 128,-1,30
 120 837 120 837 127 837 c 0,31,32
 143 837 143 837 159 628.5 c 128,-1,33
 175 420 175 420 191 420 c 0,34,35
 193 420 193 420 206 425.5 c 128,-1,36
 219 431 219 431 271.5 450 c 128,-1,37
 324 469 324 469 404 494 c 0,38,39
 473 517 473 517 484 528 c 0,40,41
 497 539 497 539 506 617 c 0,42,43
 514 689 514 689 522 713.5 c 128,-1,44
 530 738 530 738 547 738 c 0,45,46
 569 738 569 738 576.5 675 c 128,-1,47
 584 612 584 612 585 407 c 0,48,49
 586 328 586 328 587.5 267.5 c 128,-1,50
 589 207 589 207 590.5 175.5 c 128,-1,51
 592 144 592 144 593 122.5 c 128,-1,52
 594 101 594 101 595 94 c 128,-1,53
 596 87 596 87 596.5 81.5 c 128,-1,54
 597 76 597 76 597 71 c 0,0,1
EndSplineSet
EndChar

StartChar: I
Encoding: 73 73 52
Width: 587
Flags: W
HStem: -18 73<145.261 253.55> 669 111<165 366> 696 84<360 453.463>
VStem: 289 73<348.794 691>
LayerCount: 3
Back
SplineSet
301 775 m 0
 322 783 434 781 454 773 c 0
 464 769 473 753 473 741 c 0
 473 717 455 708 390 700 c 2
 360 696 l 1
 362 522 l 2
 363 426 367 292 372 226 c 0
 379 128 383 108 396 120 c 0
 421 143 467 130 467 101 c 0
 467 72 432 51 309 5 c 0
 241 -21 223 -23 180 -10 c 0
 142 1 129 11 129 30 c 0
 129 50 137 55 168 55 c 0
 189 55 229 66 257 78 c 2
 307 101 l 1
 298 288 l 2
 293 392 289 524 289 584 c 2
 289 691 l 1
 260 683 l 2
 171 658 91 667 110 700 c 0
 114 708 156 726 203 742 c 0
 251 758 294 772 301 775 c 0
EndSplineSet
Fore
SplineSet
390 117 m 0xb0
 394 117 405 132 428 132 c 0
 448 132 467 120 467 101 c 0
 467 72 432 51 309 5 c 0
 267 -11 245 -18 223 -18 c 0
 210 -18 197 -15 180 -10 c 0
 142 1 129 11 129 30 c 0
 129 50 137 55 168 55 c 0
 189 55 229 66 257 78 c 2
 307 101 l 1
 298 288 l 2
 293 392 289 524 289 584 c 2
 289 691 l 1
 260 683 l 2
 225 673 192 669 165 669 c 0
 131 669 107 676 107 691 c 0
 107 721 249 753 301 775 c 0
 310 779 337 780 366 780 c 0xd0
 403 780 443 777 454 773 c 0
 464 769 473 753 473 741 c 0
 473 717 455 708 390 700 c 2
 360 696 l 1
 362 522 l 2
 363 464 368 117 390 117 c 0xb0
EndSplineSet
Validated: 1
Layer: 2
SplineSet
390 117 m 0,0,1
 391 117 391 117 396 120.5 c 128,-1,2
 401 124 401 124 409.5 128 c 128,-1,3
 418 132 418 132 428 132 c 0,4,5
 444 132 444 132 455.5 123.5 c 128,-1,6
 467 115 467 115 467 101 c 0,7,8
 467 79 467 79 434 59.5 c 128,-1,9
 401 40 401 40 309 5 c 0,10,11
 249 -18 249 -18 223 -18 c 0,12,13
 207 -18 207 -18 180 -10 c 0,14,15
 151 -2 151 -2 140 7 c 128,-1,16
 129 16 129 16 129 30 c 0,17,18
 129 45 129 45 137 50 c 128,-1,19
 145 55 145 55 168 55 c 0,20,21
 203 55 203 55 257 78 c 2,22,-1
 307 101 l 1,23,-1
 298 288 l 2,24,25
 289 475 289 475 289 584 c 2,26,-1
 289 691 l 1,27,-1
 260 683 l 2,28,29
 211 669 211 669 165 669 c 0,30,31
 107 669 107 669 107 691 c 0,32,33
 107 704 107 704 142 719.5 c 128,-1,34
 177 735 177 735 231.5 752 c 128,-1,35
 286 769 286 769 301 775 c 0,36,37
 312 780 312 780 366 780 c 0,38,39
 435 780 435 780 454 773 c 0,40,41
 461 770 461 770 467 760 c 128,-1,42
 473 750 473 750 473 741 c 0,43,44
 473 723 473 723 456 714.5 c 128,-1,45
 439 706 439 706 390 700 c 2,46,-1
 360 696 l 1,47,-1
 362 522 l 2,48,49
 369 117 369 117 390 117 c 0,0,1
EndSplineSet
EndChar

StartChar: J
Encoding: 74 74 53
Width: 689
Flags: W
HStem: -53 78<274.511 330.591>
VStem: 98 93<187.204 308.15> 386 66<299.615 640.259>
LayerCount: 3
Back
SplineSet
545 781 m 0
 567 787 587 792 591 793 c 0
 594 794 609 785 622 775 c 0
 656 749 637 731 545 705 c 0
 505 694 467 682 461 677 c 0
 455 673 451 617 452 551 c 0
 455 425 432 164 412 83 c 0
 394 14 352 -53 325 -53 c 0
 291 -53 233 -22 233 -3 c 0
 233 6 226 19 217 25 c 0
 191 41 109 194 100 242 c 0
 91 293 114 321 160 314 c 0
 185 310 189 301 191 238 c 0
 193 183 203 153 232 107 c 0
 287 21 302 10 327 40 c 0
 355 74 386 310 386 494 c 0
 386 670 398 662 211 615 c 0
 110 590 89 588 79 604 c 0
 49 656 69 666 354 734 c 0
 438 754 524 776 545 781 c 0
EndSplineSet
Fore
SplineSet
346 644 m 0
 300 644 149 594 103 594 c 0
 89 594 83 597 79 604 c 0
 73 615 69 624 69 632 c 0
 69 663 128 680 354 734 c 1
 591 793 l 1
 592 793 l 2
 596 793 638 770 638 753 c 0
 638 718 482 694 461 677 c 0
 456 673 452 628 452 571 c 2
 452 527 l 2
 452 394 431 159 412 83 c 0
 394 14 352 -53 325 -53 c 0
 291 -53 233 -22 233 -3 c 0
 233 6 226 19 217 25 c 0
 196 38 98 200 98 263 c 0
 98 296 116 315 147 315 c 0
 187 315 189 299 191 238 c 0
 193 183 203 153 232 107 c 0
 269 49 288 25 304 25 c 0
 312 25 319 30 327 40 c 0
 355 74 386 310 386 494 c 2
 386 547 l 2
 386 619 383 644 346 644 c 0
EndSplineSet
Validated: 1
Layer: 2
SplineSet
346 644 m 0,0,1
 323 644 323 644 224.5 619 c 128,-1,2
 126 594 126 594 103 594 c 0,3,4
 85 594 85 594 79 604 c 0,5,6
 69 622 69 622 69 632 c 0,7,8
 69 654 69 654 123 673 c 128,-1,9
 177 692 177 692 354 734 c 2,10,-1
 591 793 l 1,11,-1
 592 793 l 2,12,13
 597 793 597 793 617.5 778.5 c 128,-1,14
 638 764 638 764 638 753 c 0,15,16
 638 738 638 738 599 723 c 128,-1,17
 560 708 560 708 514 695.5 c 128,-1,18
 468 683 468 683 461 677 c 0,19,20
 452 670 452 670 452 571 c 2,21,-1
 452 527 l 2,22,23
 452 427 452 427 439 283.5 c 128,-1,24
 426 140 426 140 412 83 c 0,25,26
 398 31 398 31 371.5 -11 c 128,-1,27
 345 -53 345 -53 325 -53 c 0,28,29
 299 -53 299 -53 266 -35 c 128,-1,30
 233 -17 233 -17 233 -3 c 0,31,32
 233 14 233 14 217 25 c 0,33,34
 197 37 197 37 147.5 128.5 c 128,-1,35
 98 220 98 220 98 263 c 0,36,37
 98 315 98 315 147 315 c 0,38,39
 176 315 176 315 182.5 301 c 128,-1,40
 189 287 189 287 191 238 c 0,41,42
 192 197 192 197 201 169.5 c 128,-1,43
 210 142 210 142 232 107 c 0,44,45
 261 62 261 62 276.5 43.5 c 128,-1,46
 292 25 292 25 304 25 c 0,47,48
 315 25 315 25 327 40 c 0,49,50
 348 66 348 66 367 211 c 128,-1,51
 386 356 386 356 386 494 c 2,52,-1
 386 547 l 2,53,54
 386 605 386 605 379 624.5 c 128,-1,55
 372 644 372 644 346 644 c 0,0,1
EndSplineSet
EndChar

StartChar: K
Encoding: 75 75 54
Width: 779
Flags: W
HStem: 675 76<509.575 586.183>
VStem: 94 73<524.048 804.311> 115 97<-11.875 215.396>
LayerCount: 3
Back
SplineSet
97 815 m 0
 105 840 138 834 153 805 c 0
 160 791 166 732 167 672 c 0
 167 611 171 538 176 507 c 2
 185 451 l 1
 283 556 l 2
 337 613 389 661 397 661 c 0
 406 661 423 673 436 687 c 0
 448 702 465 713 474 713 c 0
 484 713 499 722 511 734 c 0
 538 763 585 753 590 717 c 0
 593 694 585 686 547 675 c 0
 481 656 192 365 218 342 c 0
 220 340 295 298 385 249 c 0
 476 200 563 149 581 136 c 0
 600 122 622 112 631 112 c 0
 655 112 730 46 730 26 c 0
 730 15 726 7 720 7 c 0
 694 7 573 51 532 75 c 0
 444 127 216 243 203 243 c 0
 193 243 191 223 196 181 c 0
 222 -46 218 -76 170 -63 c 0
 138 -54 133 -28 115 199 c 0
 100 386 88 790 97 815 c 0
EndSplineSet
Fore
SplineSet
94 763 m 0xc0
 94 809 95 831 118 831 c 0
 130 831 144 822 153 805 c 0
 160 791 166 732 167 672 c 1xc0
 167 611 171 538 176 507 c 2
 185 451 l 1
 283 556 l 2
 337 613 389 661 397 661 c 0
 421 661 450 713 474 713 c 0
 501 713 513 751 549 751 c 0
 571 751 591 736 591 709 c 0
 591 692 580 685 547 675 c 0
 484 657 216 389 216 346 c 0
 216 342 216 341 385 249 c 0
 597 135 607 112 631 112 c 0
 655 112 730 46 730 26 c 0
 730 15 726 7 720 7 c 0
 694 7 573 51 532 75 c 0
 444 127 216 243 203 243 c 0
 196 243 193 235 193 217 c 0
 193 184 212 72 212 -6 c 0
 212 -51 204 -66 186 -66 c 0
 132 -66 132 -10 115 199 c 0xa0
 103 352 94 621 94 763 c 0xc0
EndSplineSet
Validated: 1
Layer: 2
SplineSet
94 763 m 0,0,1
 94 802 94 802 98 816.5 c 128,-1,2
 102 831 102 831 118 831 c 0,3,4
 139 831 139 831 153 805 c 0,5,6
 165 781 165 781 167 672 c 0,7,8
 167 563 167 563 176 507 c 2,9,-1
 185 451 l 1,10,-1
 283 556 l 2,11,12
 382 661 382 661 397 661 c 0,13,14
 409 661 409 661 435.5 687 c 128,-1,15
 462 713 462 713 474 713 c 128,-1,16
 486 713 486 713 508 732 c 128,-1,17
 530 751 530 751 549 751 c 0,18,19
 566 751 566 751 578.5 739.5 c 128,-1,20
 591 728 591 728 591 709 c 0,21,22
 591 697 591 697 581.5 690 c 128,-1,23
 572 683 572 683 547 675 c 0,24,25
 500 662 500 662 358 520 c 128,-1,26
 216 378 216 378 216 346 c 0,27,28
 216 341 216 341 385 249 c 0,29,30
 442 218 442 218 489 191.5 c 128,-1,31
 536 165 536 165 557 151.5 c 128,-1,32
 578 138 578 138 594 128 c 128,-1,33
 610 118 610 118 617 115 c 128,-1,34
 624 112 624 112 631 112 c 0,35,36
 649 112 649 112 689.5 76.5 c 128,-1,37
 730 41 730 41 730 26 c 0,38,39
 730 7 730 7 720 7 c 0,40,41
 701 7 701 7 632 32 c 128,-1,42
 563 57 563 57 532 75 c 0,43,44
 467 114 467 114 340 178.5 c 128,-1,45
 213 243 213 243 203 243 c 128,-1,46
 193 243 193 243 193 217 c 0,47,48
 193 206 193 206 202.5 122.5 c 128,-1,49
 212 39 212 39 212 -6 c 0,50,51
 212 -66 212 -66 186 -66 c 0,52,53
 151 -66 151 -66 140.5 -27.5 c 128,-1,54
 130 11 130 11 118.623079676 153.824806639 c 0,55,56
 116 183 116 183 115 199 c 0,57,58
 94 467 94 467 94 763 c 0,0,1
EndSplineSet
EndChar

StartChar: L
Encoding: 76 76 55
Width: 708
Flags: W
HStem: -10 77<200.077 354.32>
VStem: 108 65<206.628 622.799>
LayerCount: 3
Back
SplineSet
98 779 m 0
 109 799 132 786 147 751 c 0
 154 734 166 593 173 436 c 0
 191 61 190 67 238 67 c 0
 270 67 471 114 599 150 c 0
 620 156 635 153 646 138 c 0
 660 119 659 114 636 94 c 0
 592 58 317 -10 215 -10 c 0
 124 -10 126 -19 108 396 c 0
 99 600 95 773 98 779 c 0
EndSplineSet
Fore
SplineSet
97 763 m 0
 97 775 98 788 112 788 c 0
 123 788 137 775 147 751 c 0
 154 734 166 593 173 436 c 0
 190 73 190 67 234 67 c 0
 294 67 607 153 617 153 c 0
 643 153 655 126 655 119 c 0
 655 112 649 106 636 94 c 1
 597 62 333 -10 204 -10 c 0
 124 -10 125 -2 108 396 c 0
 101 564 97 695 97 763 c 0
EndSplineSet
Validated: 1
Layer: 2
SplineSet
97 763 m 0,0,1
 97 788 97 788 112 788 c 0,2,3
 132 788 132 788 147 751 c 0,4,5
 160 718 160 718 173 436 c 0,6,7
 186.792670563 141.4859168 186.792670563 141.4859168 196.190209048 100.766886618 c 0,8,9
 203.230735175 70.2606645545 203.230735175 70.2606645545 221.508995053 67.6070510417 c 0,10,11
 225.690401518 67 225.690401518 67 234 67 c 0,12,13
 260 67 260 67 353.5 88.5 c 128,-1,14
 447 110 447 110 530.5 131.5 c 128,-1,15
 614 153 614 153 617 153 c 0,16,17
 634 153 634 153 644.5 140 c 128,-1,18
 655 127 655 127 655 119 c 0,19,20
 655 112 655 112 636 94 c 0,21,22
 604 68 604 68 450 29 c 128,-1,23
 296 -10 296 -10 204 -10 c 0,24,25
 162.052682666 -10 162.052682666 -10 149.100277114 4.67625475065 c 0,26,27
 127.767956991 28.8477156635 127.767956991 28.8477156635 119.415134511 156.930570377 c 0,28,29
 115.926632867 210.423536419 115.926632867 210.423536419 108 396 c 0,30,31
 97 660 97 660 97 763 c 0,0,1
EndSplineSet
EndChar

StartChar: M
Encoding: 77 77 56
Width: 727
Flags: W
HStem: 320 83<274.5 328.439>
VStem: 71 87<215.579 494> 587 80<-2.25 164.398>
LayerCount: 3
Back
SplineSet
83 789 m 0
 91 800 107 808 120 808 c 0
 137 808 151 779 178 687 c 0
 219 540 281 403 304 403 c 0
 327 403 407 539 502 741 c 0
 526 791 573 818 599 795 c 0
 628 768 634 712 637 413 c 0
 639 222 645 112 657 71 c 0
 669 30 670 7 660 -4 c 0
 642 -23 598 -7 587 24 c 0
 582 37 574 184 569 351 c 0
 563 519 556 658 551 663 c 0
 547 668 529 638 511 597 c 0
 478 522 472 510 418 416 c 0
 390 366 323 320 280 320 c 0
 269 320 237 358 209 407 c 2
 158 494 l 1
 158 236 l 2
 157 -18 149 -71 112 -71 c 0
 80 -71 74 -5 71 374 c 0
 70 652 73 776 83 789 c 0
EndSplineSet
Fore
SplineSet
112 -71 m 0
 79 -71 71 4 71 467 c 0
 71 680 74 778 83 789 c 0
 91 800 107 808 120 808 c 0
 137 808 151 779 178 687 c 1
 219 540 281 403 304 403 c 0
 327 403 407 539 502 741 c 0
 520 779 551 803 577 803 c 0
 585 803 593 801 599 795 c 0
 628 768 634 712 637 413 c 0
 641 17 667 71 667 19 c 0
 667 -6 653 -12 639 -12 c 0
 619 -12 595 2 587 24 c 0
 572 63 566 664 550 664 c 0
 544 664 528 635 511 597 c 0
 478 522 472 510 418 416 c 0
 390 366 323 320 280 320 c 0
 269 320 237 358 209 407 c 2
 158 494 l 1
 158 236 l 1
 157 -18 149 -71 112 -71 c 0
EndSplineSet
Validated: 1
Layer: 2
SplineSet
112 -71 m 0,0,1
 99 -71 99 -71 91.5 -53 c 128,-1,2
 84 -35 84 -35 79 25 c 128,-1,3
 74 85 74 85 72.5 186.5 c 128,-1,4
 71 288 71 288 71 467 c 0,5,6
 71 774 71 774 83 789 c 0,7,8
 97 808 97 808 120 808 c 0,9,10
 133 808 133 808 145.5 782 c 128,-1,11
 158 756 158 756 178 687 c 0,12,13
 208 578 208 578 247.5 490.5 c 128,-1,14
 287 403 287 403 304 403 c 128,-1,15
 321 403 321 403 376 496.5 c 128,-1,16
 431 590 431 590 502 741 c 0,17,18
 515 769 515 769 536 786 c 128,-1,19
 557 803 557 803 577 803 c 0,20,21
 591 803 591 803 599 795 c 0,22,23
 621 775 621 775 628 705.5 c 128,-1,24
 635 636 635 636 637 413 c 0,25,26
 638 278 638 278 643 193 c 128,-1,27
 648 108 648 108 653.5 85.5 c 128,-1,28
 659 63 659 63 663 48 c 128,-1,29
 667 33 667 33 667 19 c 0,30,31
 667 -12 667 -12 639 -12 c 0,32,33
 623 -12 623 -12 608 -2 c 128,-1,34
 593 8 593 8 587 24 c 128,-1,35
 581 40 581 40 575 201 c 128,-1,36
 569 362 569 362 563 513 c 128,-1,37
 557 664 557 664 550 664 c 0,38,39
 541 664 541 664 511 597 c 0,40,41
 475 515 475 515 418 416 c 0,42,43
 397 379 397 379 354.5 349.5 c 128,-1,44
 312 320 312 320 280 320 c 0,45,46
 272 320 272 320 251 345.5 c 128,-1,47
 230 371 230 371 209 407 c 2,48,-1
 158 494 l 1,49,-1
 158 236 l 2,50,51
 157 46 157 46 148.5 -12.5 c 128,-1,52
 140 -71 140 -71 112 -71 c 0,0,1
EndSplineSet
EndChar

StartChar: N
Encoding: 78 78 57
Width: 829
Flags: W
HStem: -21 91<595.263 684.5>
VStem: 82 96<56.7621 309.883>
LayerCount: 3
Back
SplineSet
102 761 m 0
 113 787 149 794 177 775 c 0
 194 764 313 595 313 582 c 0
 313 577 335 540 361 499 c 0
 388 457 444 357 486 275 c 0
 528 192 576 111 593 93 c 0
 620 65 625 64 636 84 c 0
 643 96 656 206 663 329 c 0
 685 673 691 708 731 713 c 0
 777 720 783 690 764 541 c 0
 755 468 742 326 734 222 c 0
 718 -4 707 -31 635 -19 c 0
 561 -7 506 51 435 195 c 0
 401 263 366 327 359 336 c 0
 352 345 342 370 337 391 c 0
 332 412 302 467 272 512 c 0
 241 558 209 607 201 622 c 0
 182 655 160 312 175 215 c 0
 186 144 161 33 135 33 c 0
 79 34 77 47 85 398 c 0
 89 585 97 748 102 761 c 0
EndSplineSet
Fore
SplineSet
170 314 m 0
 170 225 178 211 178 177 c 0
 178 110 157 33 135 33 c 0
 93 34 82 41 82 189 c 0
 82 350 94 740 102 761 c 0
 109 777 125 786 143 786 c 0
 154 786 166 782 177 775 c 0
 194 764 313 595 313 582 c 0
 313 567 374 495 486 275 c 0
 516 216 592 70 622 70 c 0
 633 70 649 75 663 329 c 1
 685 675 687 714 742 714 c 0
 764 714 774 700 774 656 c 0
 774 602 755 493 734 222 c 1
 720 24 710 -21 659 -21 c 0
 569 -21 506 51 435 195 c 0
 351 363 350 338 337 391 c 0
 325 443 222 582 201 622 c 0
 200 624 199 624 198 624 c 0
 185 624 170 443 170 314 c 0
EndSplineSet
Validated: 1
Layer: 2
SplineSet
170 314 m 0,0,1
 170 263 170 263 174 225 c 128,-1,2
 178 187 178 187 178 177 c 0,3,4
 178 126 178 126 164.5 79.5 c 128,-1,5
 151 33 151 33 135 33 c 0,6,7
 111 34 111 34 101.5 42 c 128,-1,8
 92 50 92 50 87 82.5 c 128,-1,9
 82 115 82 115 82 189 c 0,10,11
 82 317 82 317 89 531.5 c 128,-1,12
 96 746 96 746 102 761 c 0,13,14
 113 786 113 786 143 786 c 0,15,16
 160 786 160 786 177 775 c 0,17,18
 190 767 190 767 251.5 679.5 c 128,-1,19
 313 592 313 592 313 582 c 0,20,21
 313 576 313 576 331 548.5 c 128,-1,22
 349 521 349 521 393.5 445.5 c 128,-1,23
 438 370 438 370 486 275 c 0,24,25
 590 70 590 70 622 70 c 0,26,27
 626 70 626 70 629 72 c 128,-1,28
 632 74 632 74 637 88 c 128,-1,29
 642 102 642 102 646 127.5 c 128,-1,30
 650 153 650 153 654.5 204.5 c 128,-1,31
 659 256 659 256 663 329 c 0,32,33
 681.125932473 614.071483441 681.125932473 614.071483441 692.655774737 663.228866277 c 0,34,35
 702.921990295 706.998787576 702.921990295 706.998787576 727.070276046 712.574336207 c 0,36,37
 733.244975424 714 733.244975424 714 742 714 c 0,38,39
 759 714 759 714 766.5 701 c 128,-1,40
 774 688 774 688 774 656 c 0,41,42
 774 634 774 634 769 586 c 128,-1,43
 764 538 764 538 753.5 437 c 128,-1,44
 743 336 743 336 734 222 c 0,45,46
 723 70 723 70 709.5 24.5 c 128,-1,47
 696 -21 696 -21 659 -21 c 0,48,49
 594 -21 594 -21 542 31 c 128,-1,50
 490 83 490 83 435 195 c 0,51,52
 408 249 408 249 387 287.5 c 128,-1,53
 366 326 366 326 359 337.5 c 128,-1,54
 352 349 352 349 347 360.5 c 128,-1,55
 342 372 342 372 337 391 c 0,56,57
 330 422 330 422 266 520.5 c 128,-1,58
 202 619 202 619 201 622 c 0,59,60
 200 624 200 624 198 624 c 0,61,62
 188 624 188 624 179 518.5 c 128,-1,63
 170 413 170 413 170 314 c 0,0,1
EndSplineSet
EndChar

StartChar: O
Encoding: 79 79 58
Width: 655
Flags: W
HStem: -26 68<242.206 379.87> 650 97<394.995 493.453>
VStem: 61 75<200.269 427.378> 552 55<385.192 561.65>
LayerCount: 3
Back
SplineSet
404 734 m 0
 418 757 485 749 522 719 c 0
 635 626 636 359 524 129 c 0
 492 64 451 14 428 14 c 0
 419 14 410 7 407 -2 c 0
 404 -11 366 -20 322 -24 c 0
 249 -29 237 -26 194 7 c 0
 139 51 89 143 68 241 c 0
 39 371 105 553 206 624 c 0
 239 647 275 666 286 666 c 0
 296 666 315 678 327 693 c 0
 339 708 360 720 372 720 c 0
 386 720 399 726 404 734 c 0
484 642 m 0
 461 657 410 652 332 627 c 0
 233 596 168 507 146 374 c 0
 131 285 132 272 160 193 c 0
 206 64 272 18 363 54 c 0
 410 72 497 200 507 265 c 0
 511 295 525 359 537 410 c 0
 558 498 558 502 529 566 c 0
 512 603 492 637 484 642 c 0
EndSplineSet
Fore
SplineSet
607 473 m 0
 607 244 481 14 428 14 c 0
 419 14 410 7 407 -2 c 0
 403 -14 337 -26 279 -26 c 0
 242 -26 227 -18 194 7 c 1
 125 62 61 200 61 307 c 0
 61 427 121 564 206 624 c 0
 239 647 275 666 286 666 c 0
 314 666 339 720 372 720 c 0
 412 720 393 747 440 747 c 0
 540 747 607 640 607 473 c 0
552 492 m 0
 552 536 495 635 484 642 c 0
 475 648 463 650 446 650 c 0
 419 650 381 643 332 627 c 0
 233 596 168 507 146 374 c 0
 140 337 136 314 136 293 c 0
 136 263 144 240 160 193 c 0
 196 92 244 42 307 42 c 0
 324 42 343 46 363 54 c 0
 410 72 497 200 507 265 c 1
 518 348 552 452 552 492 c 0
EndSplineSet
Validated: 1
Layer: 2
SplineSet
607 473 m 0,0,1
 607 392 607 392 586.5 305.5 c 128,-1,2
 566 219 566 219 537.5 157 c 128,-1,3
 509 95 509 95 478.5 54.5 c 128,-1,4
 448 14 448 14 428 14 c 0,5,6
 412 14 412 14 407 -2 c 0,7,8
 404 -11 404 -11 363.5 -18.5 c 128,-1,9
 323 -26 323 -26 279 -26 c 0,10,11
 252 -26 252 -26 236 -19.5 c 128,-1,12
 220 -13 220 -13 194 7 c 0,13,14
 141 49 141 49 101 138.5 c 128,-1,15
 61 228 61 228 61 307 c 0,16,17
 61 398 61 398 102 488.5 c 128,-1,18
 143 579 143 579 206 624 c 0,19,20
 266 666 266 666 286 666 c 0,21,22
 299 666 299 666 327 693 c 128,-1,23
 355 720 355 720 372 720 c 0,24,25
 391 720 391 720 403.5 733.5 c 128,-1,26
 416 747 416 747 440 747 c 0,27,28
 515 747 515 747 561 672.5 c 128,-1,29
 607 598 607 598 607 473 c 0,0,1
552 492 m 0,30,31
 552 521 552 521 523.5 578 c 128,-1,32
 495 635 495 635 484 642 c 0,33,34
 472 650 472 650 446 650 c 0,35,36
 402 650 402 650 332 627 c 0,37,38
 180 579 180 579 146 374 c 0,39,40
 136 312 136 312 136 293 c 0,41,42
 136 264 136 264 160 193 c 0,43,44
 214 42 214 42 307 42 c 0,45,46
 333 42 333 42 363 54 c 0,47,48
 398 67 398 67 448.5 141.5 c 128,-1,49
 499 216 499 216 507 265 c 0,50,51
 512 306 512 306 532 389 c 128,-1,52
 552 472 552 472 552 492 c 0,30,31
EndSplineSet
EndChar

StartChar: P
Encoding: 80 80 59
Width: 651
Flags: W
HStem: 333 76<225.144 357.561> 732 80<252.185 479.816>
VStem: 131 72<420.393 663.141> 171 57<-66.3611 29.769> 538 61<590.439 688.126>
LayerCount: 3
Back
SplineSet
305 803 m 0
 337 810 380 814 402 811 c 0
 558 791 584 775 597 691 c 0
 605 638 582 527 563 527 c 0
 555 527 550 519 550 508 c 0
 550 477 442 378 396 368 c 0
 374 362 353 353 349 346 c 0
 345 339 316 333 284 333 c 2
 225 333 l 1
 235 153 l 2
 242 17 240 -32 228 -48 c 0
 201 -82 178 -72 171 -23 c 0
 157 80 131 459 131 558 c 2
 131 665 l 1
 101 644 l 2
 84 632 66 627 59 632 c 0
 34 649 48 684 104 742 c 0
 154 795 167 802 204 796 c 0
 228 793 273 795 305 803 c 0
447 720 m 0
 374 737 374 737 282 717 c 0
 226 706 213 697 206 669 c 0
 196 624 210 430 225 414 c 0
 240 397 364 424 421 456 c 0
 447 471 468 494 470 510 c 0
 472 526 488 555 506 576 c 0
 564 643 541 699 447 720 c 0
EndSplineSet
Fore
SplineSet
229 795 m 0xe8
 292 795 323 812 384 812 c 0
 391 812 397 812 402 811 c 0
 524 795 599 786 599 666 c 0
 599 609 579 527 563 527 c 0
 555 527 550 519 550 508 c 0
 550 477 442 378 396 368 c 1
 374 362 353 353 349 346 c 0
 345 339 316 333 284 333 c 2
 225 333 l 1
 235 153 l 2
 238 101 239 62 239 32 c 0
 239 -16 235 -38 228 -48 c 1
 217 -61 207 -68 199 -68 c 0
 185 -68 175 -53 171 -23 c 0xd8
 157 80 131 459 131 558 c 2
 131 665 l 1
 101 644 l 2
 88 635 75 630 66 630 c 0
 59 630 47 639 47 654 c 0
 47 673 66 702 104 742 c 0
 145 785 161 798 185 798 c 0
 199 798 203 795 229 795 c 0xe8
447 720 m 0
 412 728 394 732 374 732 c 0
 353 732 330 727 282 717 c 0
 211 703 203 694 203 617 c 0xe8
 203 543 214 426 225 414 c 0
 228 410 236 409 248 409 c 0
 290 409 376 431 421 456 c 0
 447 471 468 494 470 510 c 0
 476 557 538 593 538 644 c 0
 538 679 507 707 447 720 c 0
EndSplineSet
Validated: 1
Layer: 2
SplineSet
229 795 m 0,0,1
 261 795 261 795 307.5 803.5 c 128,-1,2
 354 812 354 812 384 812 c 0,3,4
 397 812 397 812 402 811 c 0,5,6
 437 806 437 806 452 804 c 128,-1,7
 467 802 467 802 493.5 796.5 c 128,-1,8
 520 791 520 791 531.5 785 c 128,-1,9
 543 779 543 779 559 768.5 c 128,-1,10
 575 758 575 758 582 744.5 c 128,-1,11
 589 731 589 731 594 711 c 128,-1,12
 599 691 599 691 599 666 c 0,13,14
 599 622 599 622 587 574.5 c 128,-1,15
 575 527 575 527 563 527 c 0,16,17
 550 527 550 527 550 508 c 0,18,19
 550 485 550 485 490 430 c 128,-1,20
 430 375 430 375 396 368 c 0,21,22
 355 357 355 357 349 346 c 0,23,24
 342 333 342 333 284 333 c 2,25,-1
 225 333 l 1,26,-1
 235 153 l 2,27,28
 239 84 239 84 239 32 c 0,29,30
 239 -32 239 -32 228 -48 c 0,31,32
 211 -68 211 -68 199 -68 c 0,33,34
 177 -68 177 -68 171 -23 c 0,35,36
 161 54 161 54 146 269 c 128,-1,37
 131 484 131 484 131 558 c 2,38,-1
 131 665 l 1,39,-1
 101 644 l 2,40,41
 81 630 81 630 66 630 c 0,42,43
 60 630 60 630 53.5 637 c 128,-1,44
 47 644 47 644 47 654 c 0,45,46
 47 682 47 682 104 742 c 0,47,48
 136 776 136 776 152 787 c 128,-1,49
 168 798 168 798 185 798 c 0,50,51
 190 798 190 798 202 796.5 c 128,-1,52
 214 795 214 795 229 795 c 0,0,1
447 720 m 0,53,54
 395 732 395 732 374 732 c 0,55,56
 354 732 354 732 282 717 c 0,57,58
 229 706 229 706 216 690 c 128,-1,59
 203 674 203 674 203 617 c 0,60,61
 203 559 203 559 210 491 c 128,-1,62
 217 423 217 423 225 414 c 0,63,64
 229 409 229 409 248 409 c 0,65,66
 280 409 280 409 334 423.5 c 128,-1,67
 388 438 388 438 421 456 c 0,68,69
 441 467 441 467 455 482.5 c 128,-1,70
 469 498 469 498 470 510 c 0,71,72
 473 532 473 532 505.5 574.5 c 128,-1,73
 538 617 538 617 538 644 c 0,74,75
 538 700 538 700 447 720 c 0,53,54
EndSplineSet
EndChar

StartChar: Q
Encoding: 81 81 60
Width: 761
Flags: W
HStem: -55 78<212.17 377.779> -18 21G<716.5 728.5> 661 98<377.422 524.344>
VStem: 50 78<147.402 423.569> 469 269<-10 146> 591 54<414.118 593.979>
DStem2: 571 177 528 106 0.814212 -0.580568<6.20924 181.233>
LayerCount: 3
Back
SplineSet
457 752 m 0
 481 755 514 758 528 759 c 0
 562 762 602 717 630 643 c 0
 657 569 647 425 602 279 c 2
 571 177 l 1
 606 151 l 2
 700 80 768 -18 724 -18 c 0
 709 -18 664 5 643 24 c 0
 635 31 606 51 578 71 c 2
 528 106 l 1
 508 74 l 2
 428 -57 263 -95 156 -8 c 0
 107 32 50 176 50 259 c 0
 50 353 76 467 116 547 c 0
 176 669 282 732 457 752 c 0
546 620 m 0
 514 653 498 658 423 660 c 0
 376 662 328 660 318 657 c 0
 273 641 165 526 165 494 c 0
 165 482 159 465 152 457 c 0
 145 450 136 392 131 328 c 0
 124 226 126 203 151 138 c 0
 184 52 220 23 292 23 c 0
 369 23 468 87 469 138 c 0
 469 154 418 207 349 260 c 0
 313 288 312 291 331 312 c 0
 350 332 357 331 423 286 c 0
 462 259 499 237 506 237 c 0
 512 237 527 267 537 302 c 0
 607 541 607 558 546 620 c 0
EndSplineSet
Fore
SplineSet
116 547 m 0xb8
 184 685 301 743 528 759 c 1
 531 759 l 2
 565 759 603 715 630 643 c 0
 640 616 645 579 645 536 c 0xb4
 645 463 630 371 602 279 c 2
 571 177 l 1
 606 151 l 2
 680 95 738 23 738 -6 c 0
 738 -14 733 -18 724 -18 c 0x78
 709 -18 664 5 643 24 c 0
 635 31 606 51 578 71 c 2
 528 106 l 1
 508 74 l 2
 457 -9 372 -55 289 -55 c 0
 242 -55 195 -40 156 -8 c 0
 107 32 50 176 50 259 c 0
 50 353 76 467 116 547 c 0xb8
506 237 m 0
 525 237 591 475 591 532 c 0xb4
 591 571 575 590 546 620 c 0
 515 652 503 661 384 661 c 0
 352 661 325 659 318 657 c 0
 273 641 165 526 165 494 c 0
 165 482 159 465 152 457 c 0
 143 448 128 334 128 252 c 0
 128 208 134 183 151 138 c 0
 184 52 220 23 292 23 c 0
 369 23 468 87 469 138 c 0xb8
 469 154 418 207 349 260 c 0
 328 276 319 284 319 292 c 0
 319 300 338 324 352 324 c 0
 380 324 485 237 506 237 c 0
EndSplineSet
Validated: 1
Layer: 2
SplineSet
116 547 m 0,0,1
 167 650 167 650 262 698.5 c 128,-1,2
 357 747 357 747 528 759 c 1,3,-1
 531 759 l 2,4,5
 557 759 557 759 583.5 728 c 128,-1,6
 610 697 610 697 630 643 c 0,7,8
 645 602 645 602 645 536 c 0,9,10
 645 420 645 420 602 279 c 2,11,-1
 571 177 l 1,12,-1
 606 151 l 2,13,14
 660 110 660 110 699 63 c 128,-1,15
 738 16 738 16 738 -6 c 0,16,17
 738 -18 738 -18 724 -18 c 0,18,19
 713 -18 713 -18 686 -4 c 128,-1,20
 659 10 659 10 643 24 c 0,21,22
 639 27 639 27 578 71 c 2,23,-1
 528 106 l 1,24,-1
 508 74 l 2,25,26
 470 13 470 13 411.5 -21 c 128,-1,27
 353 -55 353 -55 289 -55 c 0,28,29
 213 -55 213 -55 156 -8 c 0,30,31
 119 22 119 22 84.5 109.5 c 128,-1,32
 50 197 50 197 50 259 c 0,33,34
 50 330 50 330 68 408.5 c 128,-1,35
 86 487 86 487 116 547 c 0,0,1
506 237 m 0,36,37
 520 237 520 237 555.5 362.5 c 128,-1,38
 591 488 591 488 591 532 c 0,39,40
 591 559 591 559 581 576.5 c 128,-1,41
 571 594 571 594 546 620 c 128,-1,42
 521 646 521 646 494.5 653.5 c 128,-1,43
 468 661 468 661 384 661 c 0,44,45
 332 661 332 661 318 657 c 0,46,47
 284 645 284 645 224.5 581.5 c 128,-1,48
 165 518 165 518 165 494 c 0,49,50
 165 472 165 472 152 457 c 0,51,52
 145 450 145 450 136.5 380.5 c 128,-1,53
 128 311 128 311 128 252 c 0,54,55
 128 199 128 199 151 138 c 0,56,57
 176 74 176 74 207 48.5 c 128,-1,58
 238 23 238 23 292 23 c 0,59,60
 350 23 350 23 409 61.5 c 128,-1,61
 468 100 468 100 469 138 c 0,62,63
 469 150 469 150 434.5 185.5 c 128,-1,64
 400 221 400 221 349 260 c 0,65,66
 319 283 319 283 319 292 c 0,67,68
 319 299 319 299 330.5 311.5 c 128,-1,69
 342 324 342 324 352 324 c 0,70,71
 367 324 367 324 431.5 280.5 c 128,-1,72
 496 237 496 237 506 237 c 0,36,37
EndSplineSet
EndChar

StartChar: R
Encoding: 82 82 61
Width: 636
Flags: W
HStem: 607 134<116 184.5> 666 75<202 363.648>
VStem: 168 65<-16.75 211.92> 486 59<557.069 630.583>
LayerCount: 3
Back
SplineSet
103 691 m 0
 129 719 152 741 155 741 c 0
 195 743 444 712 478 701 c 0
 566 675 567 567 481 468 c 0
 458 442 439 417 439 413 c 0
 439 404 339 338 280 308 c 0
 258 296 241 285 244 282 c 0
 246 280 284 266 328 252 c 0
 372 237 429 211 454 194 c 0
 480 176 505 162 510 162 c 0
 529 161 587 100 587 82 c 0
 587 44 562 48 473 100 c 0
 424 129 348 166 306 182 c 2
 228 213 l 1
 232 96 l 2
 235 -15 234 -20 210 -24 c 0
 181 -28 168 10 168 98 c 0
 168 185 155 232 127 245 c 0
 88 263 87 298 126 316 c 2
 159 331 l 1
 151 445 l 2
 141 590 133 621 111 602 c 0
 89 584 57 595 57 622 c 0
 57 633 77 664 103 691 c 0
412 647 m 0
 376 657 314 666 274 666 c 2
 202 666 l 1
 209 612 l 2
 213 582 219 515 224 461 c 0
 228 407 234 364 236 364 c 0
 255 364 362 423 394 452 c 0
 433 486 497 609 484 623 c 0
 481 626 448 637 412 647 c 0
EndSplineSet
Fore
SplineSet
57 622 m 0xb0
 57 646 144 741 159 741 c 0
 210 741 445 711 478 701 c 0
 523 688 545 654 545 610 c 0
 545 512 439 431 439 413 c 0
 439 404 339 338 280 308 c 0
 260 297 244 287 244 283 c 0
 244 277 387 240 454 194 c 0
 480 176 505 162 510 162 c 0
 529 161 587 100 587 82 c 0
 587 65 582 57 569 57 c 0
 530 57 446 126 306 182 c 2
 228 213 l 1
 232 96 l 2
 233 70 233 45 233 21 c 0
 233 -6 231 -24 206 -24 c 0
 180 -24 168 14 168 98 c 0
 168 185 155 232 127 245 c 0
 107 254 97 268 97 281 c 0
 97 294 107 307 126 316 c 2
 159 331 l 1
 151 445 l 2
 143 565 136 607 121 607 c 0
 111 607 109 593 87 593 c 0
 71 593 57 604 57 622 c 0xb0
486 617 m 0
 486 623 484 627 412 647 c 0
 376 657 314 666 274 666 c 2
 202 666 l 1x70
 209 612 l 2
 216 560 231 364 236 364 c 0
 255 364 362 423 394 452 c 0
 429 483 486 588 486 617 c 0
EndSplineSet
Validated: 1
Layer: 2
SplineSet
57 622 m 0,0,1
 57 639 57 639 102 690 c 128,-1,2
 147 741 147 741 159 741 c 0,3,4
 197 741 197 741 325 725 c 128,-1,5
 453 709 453 709 478 701 c 0,6,7
 545 682 545 682 545 610 c 0,8,9
 545 576 545 576 528.5 540.5 c 128,-1,10
 512 505 512 505 492 481.5 c 128,-1,11
 472 458 472 458 455.5 438 c 128,-1,12
 439 418 439 418 439 413 c 0,13,14
 439 406 439 406 381.5 368.5 c 128,-1,15
 324 331 324 331 280 308 c 0,16,17
 244 288 244 288 244 283 c 0,18,19
 244 281 244 281 281.5 268.5 c 128,-1,20
 319 256 319 256 372 235 c 128,-1,21
 425 214 425 214 454 194 c 0,22,23
 500 162 500 162 510 162 c 0,24,25
 524 161 524 161 555.5 128.5 c 128,-1,26
 587 96 587 96 587 82 c 0,27,28
 587 57 587 57 569 57 c 0,29,30
 553 57 553 57 518.5 75.5 c 128,-1,31
 484 94 484 94 424 126.5 c 128,-1,32
 364 159 364 159 306 182 c 2,33,-1
 228 213 l 1,34,-1
 232 96 l 2,35,36
 233 70 233 70 233 21 c 0,37,38
 233 -3 233 -3 228 -13.5 c 128,-1,39
 223 -24 223 -24 206 -24 c 0,40,41
 168 -24 168 -24 168 98 c 0,42,43
 168 226 168 226 127 245 c 0,44,45
 97 258 97 258 97 281 c 0,46,47
 97 302 97 302 126 316 c 2,48,-1
 159 331 l 1,49,-1
 151 445 l 2,50,51
 145 536 145 536 138.5 571.5 c 128,-1,52
 132 607 132 607 121 607 c 0,53,54
 118 607 118 607 109 600 c 128,-1,55
 100 593 100 593 87 593 c 0,56,57
 75 593 75 593 66 601 c 128,-1,58
 57 609 57 609 57 622 c 0,0,1
486 617 m 0,59,60
 486 621 486 621 483 623.5 c 128,-1,61
 480 626 480 626 463 631.5 c 128,-1,62
 446 637 446 637 412 647 c 0,63,64
 344 666 344 666 274 666 c 2,65,-1
 202 666 l 1,66,-1
 209 612 l 2,67,68
 212 592 212 592 218 527.5 c 128,-1,69
 224 463 224 463 229 413.5 c 128,-1,70
 234 364 234 364 236 364 c 0,71,72
 250 364 250 364 310 397 c 128,-1,73
 370 430 370 430 394 452 c 0,74,75
 420 475 420 475 453 535 c 128,-1,76
 486 595 486 595 486 617 c 0,59,60
EndSplineSet
EndChar

StartChar: S
Encoding: 83 83 62
Width: 579
Flags: W
HStem: 681 54<270.399 444.526>
VStem: 61 79<453.374 562.087> 92 53<79.3962 160.608> 440 68<129.541 250.446>
LayerCount: 3
Back
SplineSet
236 718 m 0
 254 727 306 735 350 735 c 0
 418 736 438 731 473 703 c 0
 496 684 516 656 516 642 c 0
 516 609 509 610 460 649 c 0
 387 708 262 683 183 594 c 0
 148 554 129 486 146 463 c 0
 165 438 258 392 346 364 c 0
 478 323 528 254 500 154 c 0
 469 50 413 19 230 7 c 2
 140 1 l 1
 113 57 l 2
 72 138 92 215 153 215 c 0
 180 215 182 172 157 150 c 0
 142 136 141 126 152 101 c 0
 165 71 173 69 254 69 c 0
 323 69 350 75 382 99 c 0
 434 136 440 147 440 200 c 0
 440 240 434 247 370 277 c 0
 331 295 291 309 281 309 c 0
 223 309 61 447 61 496 c 0
 61 567 147 676 236 718 c 0
EndSplineSet
Fore
SplineSet
175 188 m 0xb0
 175 152 145 150 145 127 c 0xb0
 145 120 147 112 152 101 c 0
 165 71 173 69 254 69 c 0
 323 69 350 75 382 99 c 1
 434 136 440 147 440 200 c 0
 440 240 434 247 370 277 c 0
 331 295 291 309 281 309 c 0
 223 309 61 447 61 496 c 0
 61 567 147 676 236 718 c 0
 256 728 306 735 365 735 c 0
 421 735 441 729 473 703 c 0
 496 684 516 656 516 642 c 0
 516 626 514 618 508 618 c 0
 482 618 453 681 363 681 c 0
 250 681 140 581 140 488 c 0
 140 438 268 389 346 364 c 0
 454 330 508 278 508 205 c 0
 508 189 505 172 500 154 c 0
 469 50 413 19 230 7 c 2
 140 1 l 1xd0
 113 57 l 2
 98 86 92 114 92 139 c 0
 92 183 114 215 153 215 c 0
 167 215 175 203 175 188 c 0xb0
EndSplineSet
Validated: 1
Layer: 2
SplineSet
175 188 m 0,0,1
 175 168 175 168 160 152.5 c 128,-1,2
 145 137 145 137 145 127 c 0,3,4
 145 116 145 116 152 101 c 0,5,6
 162 79 162 79 177.5 74 c 128,-1,7
 193 69 193 69 254 69 c 0,8,9
 306 69 306 69 332 75 c 128,-1,10
 358 81 358 81 382 99 c 0,11,12
 421 127 421 127 430.5 143.5 c 128,-1,13
 440 160 440 160 440 200 c 0,14,15
 440 230 440 230 429 242.5 c 128,-1,16
 418 255 418 255 370 277 c 0,17,18
 301 309 301 309 281 309 c 0,19,20
 238 309 238 309 149.5 384 c 128,-1,21
 61 459 61 459 61 496 c 0,22,23
 61 549 61 549 115 617.5 c 128,-1,24
 169 686 169 686 236 718 c 0,25,26
 270 735 270 735 365 735 c 0,27,28
 407 735 407 735 428 729 c 128,-1,29
 449 723 449 723 473 703 c 0,30,31
 490 689 490 689 503 670.5 c 128,-1,32
 516 652 516 652 516 642 c 0,33,34
 516 618 516 618 508 618 c 128,-1,35
 500 618 500 618 487 628 c 128,-1,36
 474 638 474 638 460 649.5 c 128,-1,37
 446 661 446 661 420 671 c 128,-1,38
 394 681 394 681 363 681 c 0,39,40
 279 681 279 681 209.5 620 c 128,-1,41
 140 559 140 559 140 488 c 0,42,43
 140 430 140 430 346 364 c 0,44,45
 508 313 508 313 508 205 c 0,46,47
 508 183 508 183 500 154 c 0,48,49
 477 76 477 76 422 46 c 128,-1,50
 367 16 367 16 230 7 c 2,51,-1
 140 1 l 1,52,-1
 113 57 l 2,53,54
 92 98 92 98 92 139 c 0,55,56
 92 173 92 173 108 194 c 128,-1,57
 124 215 124 215 153 215 c 0,58,59
 175 215 175 215 175 188 c 0,0,1
EndSplineSet
EndChar

StartChar: T
Encoding: 84 84 63
Width: 832
Flags: W
HStem: 689 78<564.022 787.491>
LayerCount: 3
Back
SplineSet
564 746 m 0
 694 771 720 773 766 756 c 0
 837 731 801 689 708 689 c 0
 672 689 607 681 565 671 c 2
 488 653 l 1
 503 569 l 2
 510 523 522 395 529 285 c 0
 536 174 544 57 548 24 c 0
 554 -27 552 -38 536 -44 c 0
 492 -60 479 -3 462 274 c 0
 450 472 429 612 410 632 c 0
 399 643 380 643 332 633 c 0
 297 626 246 620 221 620 c 0
 195 620 159 615 138 609 c 0
 95 596 45 611 45 636 c 0
 45 657 70 666 158 677 c 0
 246 689 419 718 564 746 c 0
EndSplineSet
Fore
SplineSet
221 620 m 0
 163 620 134 604 105 604 c 0
 73 604 45 617 45 636 c 0
 45 676 117 660 564 746 c 0
 638 760 679 767 708 767 c 0
 747 767 803 748 803 725 c 0
 803 706 767 689 708 689 c 0
 672 689 607 681 565 671 c 2
 488 653 l 1
 503 569 l 1
 523 434 538 106 548 24 c 0
 550 7 551 -6 551 -15 c 0
 551 -24 551 -46 524 -46 c 0
 489 -46 477 25 462 274 c 0
 450 472 429 612 410 632 c 0
 404 638 397 640 384 640 c 0
 360 640 280 620 221 620 c 0
EndSplineSet
Validated: 1
Layer: 2
SplineSet
221 620 m 0,0,1
 188 620 188 620 152 612 c 128,-1,2
 116 604 116 604 105 604 c 0,3,4
 80 604 80 604 62.5 613 c 128,-1,5
 45 622 45 622 45 636 c 0,6,7
 45 653 45 653 67.5 659.5 c 128,-1,8
 90 666 90 666 186.819375765 681.437166241 c 0,9,10
 384 711 384 711 564 746 c 0,11,12
 675 767 675 767 708 767 c 0,13,14
 739 767 739 767 771 754 c 128,-1,15
 803 741 803 741 803 725 c 0,16,17
 803 710 803 710 777 699.5 c 128,-1,18
 751 689 751 689 708 689 c 0,19,20
 641 689 641 689 565 671 c 2,21,-1
 488 653 l 1,22,-1
 503 569 l 2,23,24
 514 491 514 491 529.5 270.5 c 128,-1,25
 545 50 545 50 548 24 c 0,26,27
 551 -1.5 551 -1.5 551 -15 c 0,28,29
 551 -46 551 -46 524 -46 c 0,30,31
 498 -46 498 -46 485.5 19 c 128,-1,32
 473 84 473 84 462 274 c 0,33,34
 442 598 442 598 410 632 c 0,35,36
 402 640 402 640 384 640 c 0,37,38
 376 640 376 640 315.5 630 c 128,-1,39
 255 620 255 620 221 620 c 0,0,1
EndSplineSet
EndChar

StartChar: U
Encoding: 85 85 64
Width: 677
Flags: W
HStem: -11 70<248.544 364.917>
VStem: 95 67<436.365 740.814> 560 68<339.372 627.794>
LayerCount: 3
Back
SplineSet
515 753 m 0
 551 775 571 758 591 689 c 0
 600 657 612 627 618 620 c 0
 624 614 628 568 628 519 c 0
 626 231 515 33 332 -10 c 0
 297 -18 220 9 186 42 c 0
 147 80 112 286 99 544 c 0
 92 697 94 723 111 737 c 0
 145 765 154 746 162 630 c 0
 178 415 221 121 242 90 c 0
 269 48 317 49 387 93 c 0
 466 143 507 210 539 341 c 0
 570 468 567 547 525 668 c 0
 503 729 502 744 515 753 c 0
EndSplineSet
Fore
SplineSet
628 519 m 0
 625 80 380 -11 318 -11 c 0
 279 -11 216 13 186 42 c 0
 120 106 95 556 95 663 c 0
 95 714 100 728 111 737 c 0
 120 744 127 748 133 748 c 0
 150 748 156 716 162 630 c 0
 178 415 221 121 242 90 c 1
 255 69 273 59 297 59 c 0
 321 59 351 70 387 93 c 0
 466 143 507 210 539 341 c 0
 553 397 560 444 560 489 c 0
 560 609 507 699 507 736 c 0
 507 758 536 762 541 762 c 0
 586 762 594 649 618 620 c 0
 624 614 628 568 628 519 c 0
EndSplineSet
Validated: 1
Layer: 2
SplineSet
628 519 m 0,0,1
 627 415 627 415 608.5 328 c 128,-1,2
 590 241 590 241 560 186 c 128,-1,3
 530 131 530 131 495.5 90 c 128,-1,4
 461 49 461 49 425 28.5 c 128,-1,5
 389 8 389 8 362.5 -1.5 c 128,-1,6
 336 -11 336 -11 318 -11 c 0,7,8
 288 -11 288 -11 248 5 c 128,-1,9
 208 21 208 21 186 42 c 0,10,11
 143 84 143 84 119 306 c 128,-1,12
 95 528 95 528 95 663 c 0,13,14
 95 724 95 724 111 737 c 0,15,16
 125 748 125 748 133 748 c 0,17,18
 145 748 145 748 151 722.5 c 128,-1,19
 157 697 157 697 162 630 c 0,20,21
 174 468 174 468 200 290.5 c 128,-1,22
 226 113 226 113 242 90 c 0,23,24
 261 59 261 59 297 59 c 0,25,26
 334 59 334 59 387 93 c 0,27,28
 446 130 446 130 480.5 186.5 c 128,-1,29
 515 243 515 243 539 341 c 0,30,31
 560 425 560 425 560 489 c 0,32,33
 560 559 560 559 533.5 643.5 c 128,-1,34
 507 728 507 728 507 736 c 0,35,36
 507 750 507 750 519.5 756 c 128,-1,37
 532 762 532 762 541 762 c 0,38,39
 561 762 561 762 574.5 733.5 c 128,-1,40
 588 705 588 705 598.5 667.5 c 128,-1,41
 609 630 609 630 618 620 c 0,42,43
 628 610 628 610 628 519 c 0,0,1
EndSplineSet
EndChar

StartChar: V
Encoding: 86 86 65
Width: 742
Flags: W
VStem: 114 55<613 685>
LayerCount: 3
Back
SplineSet
76 757 m 0
 99 780 119 772 135 735 c 0
 142 719 153 705 159 705 c 0
 164 705 169 696 169 685 c 0
 169 674 184 632 202 592 c 0
 220 552 256 458 282 382 c 0
 335 227 376 128 387 129 c 0
 398 129 481 334 509 430 c 0
 549 572 627 753 649 757 c 0
 660 759 677 752 687 741 c 0
 700 724 694 695 652 585 c 0
 624 511 587 411 571 362 c 0
 554 312 512 213 478 138 c 0
 428 30 410 5 387 5 c 0
 343 5 329 27 272 183 c 0
 243 263 196 388 167 464 c 0
 138 539 114 606 114 613 c 0
 114 620 102 640 87 660 c 0
 56 699 52 733 76 757 c 0
EndSplineSet
Fore
SplineSet
60 721 m 0
 60 748 85 770 101 770 c 0
 131 770 140 705 159 705 c 0
 164 705 169 696 169 685 c 0
 169 657 215 577 282 382 c 0
 335 228 376 129 387 129 c 0
 398 129 481 334 509 430 c 0
 545 557 624 757 653 757 c 0
 661 757 693 751 693 720 c 0
 693 672 626 529 571 362 c 0
 554 312 512 213 478 138 c 0
 428 30 410 5 387 5 c 0
 343 5 329 27 272 183 c 1
 167 464 l 2
 138 539 114 606 114 613 c 0
 114 635 60 678 60 721 c 0
EndSplineSet
Validated: 1
Layer: 2
SplineSet
60 721 m 0,0,1
 60 740 60 740 74 755 c 128,-1,2
 88 770 88 770 101 770 c 0,3,4
 117 770 117 770 134 737.5 c 128,-1,5
 151 705 151 705 159 705 c 0,6,7
 169 705 169 705 169 685 c 0,8,9
 169 673 169 673 182 641.5 c 128,-1,10
 195 610 195 610 224.5 536.5 c 128,-1,11
 254 463 254 463 282 382 c 0,12,13
 369 129 369 129 387 129 c 0,14,15
 395 129 395 129 441.5 243.5 c 128,-1,16
 488 358 488 358 509 430 c 0,17,18
 539 535 539 535 586 646 c 128,-1,19
 633 757 633 757 653 757 c 0,20,21
 659 757 659 757 667 754.5 c 128,-1,22
 675 752 675 752 684 743 c 128,-1,23
 693 734 693 734 693 720 c 0,24,25
 693 699 693 699 675.5 649 c 128,-1,26
 658 599 658 599 625 512.5 c 128,-1,27
 592 426 592 426 571 362 c 0,28,29
 545 287 545 287 478 138 c 0,30,31
 441 58 441 58 422.5 31.5 c 128,-1,32
 404 5 404 5 387 5 c 0,33,34
 354 5 354 5 334.5 35.5 c 128,-1,35
 315 66 315 66 272 183 c 2,36,-1
 167 464 l 2,37,38
 114 601 114 601 114 613 c 0,39,40
 114 621 114 621 87 659 c 128,-1,41
 60 697 60 697 60 721 c 0,0,1
EndSplineSet
EndChar

StartChar: W
Encoding: 87 87 66
Width: 878
Flags: W
LayerCount: 3
Back
SplineSet
734 589 m 0
 756 702 779 794 784 794 c 0
 841 794 844 767 808 591 c 0
 794 522 771 406 756 331 c 0
 741 256 724 179 718 158 c 0
 711 138 706 105 706 85 c 0
 706 18 644 19 617 86 c 0
 608 108 596 125 590 125 c 0
 585 125 576 144 571 167 c 0
 558 230 493 360 459 392 c 2
 429 421 l 1
 399 346 l 2
 346 210 323 145 295 50 c 0
 271 -30 263 -42 237 -42 c 0
 213 -42 205 -32 194 19 c 0
 177 95 143 265 128 350 c 0
 121 386 110 434 103 460 c 0
 96 484 89 520 89 539 c 0
 89 558 84 575 77 577 c 0
 71 580 63 614 61 653 c 0
 58 708 62 724 77 724 c 0
 111 724 141 630 203 322 c 0
 222 228 243 152 249 155 c 0
 256 157 283 225 309 305 c 0
 335 384 364 464 373 480 c 0
 421 571 550 453 615 258 c 0
 626 224 641 195 648 193 c 0
 662 189 693 301 693 354 c 0
 693 370 711 476 734 589 c 0
EndSplineSet
Fore
SplineSet
693 354 m 0
 693 389 771 794 784 794 c 0
 817 794 832 785 832 744 c 0
 832 714 823 666 808 591 c 2
 756 331 l 2
 713 114 706 134 706 85 c 0
 706 52 691 35 672 35 c 0
 622 35 610 125 590 125 c 0
 585 125 576 144 571 167 c 0
 558 230 493 360 459 392 c 2
 429 421 l 1
 399 346 l 1
 261 -9 286 -42 237 -42 c 0
 213 -42 205 -32 194 19 c 0
 142 250 132 351 103 460 c 0
 96 484 89 520 89 539 c 0
 89 599 60 545 60 682 c 0
 60 714 65 724 77 724 c 0
 111 724 141 630 203 322 c 0
 222 230 242 155 249 155 c 0
 265 155 347 433 373 480 c 0
 384 501 400 511 418 511 c 0
 478 511 565 407 615 258 c 0
 623 233 640 193 649 193 c 0
 663 193 693 302 693 354 c 0
EndSplineSet
Validated: 1
Layer: 2
SplineSet
693 354 m 0,0,1
 693 384 693 384 734 589 c 128,-1,2
 775 794 775 794 784 794 c 0,3,4
 810 794 810 794 821 783.5 c 128,-1,5
 832 773 832 773 832 744 c 0,6,7
 832 711 832 711 808 591 c 2,8,-1
 756 331 l 2,9,10
 742 260 742 260 730.5 209.5 c 128,-1,11
 719 159 719 159 714.5 143.5 c 128,-1,12
 710 128 710 128 708 115 c 128,-1,13
 706 102 706 102 706 85 c 0,14,15
 706 61 706 61 696.5 48 c 128,-1,16
 687 35 687 35 672 35 c 0,17,18
 650 35 650 35 634 57.5 c 128,-1,19
 618 80 618 80 608 102.5 c 128,-1,20
 598 125 598 125 590 125 c 0,21,22
 580 125 580 125 571 167 c 0,23,24
 561 214 561 214 523 291 c 128,-1,25
 485 368 485 368 459 392 c 2,26,-1
 429 421 l 1,27,-1
 399 346 l 2,28,29
 341 197 341 197 293.854314632 47.7970334544 c 0,30,31
 274 -14 274 -14 266 -28 c 128,-1,32
 258 -42 258 -42 237 -42 c 0,33,34
 219 -42 219 -42 210.5 -30.5 c 128,-1,35
 202 -19 202 -19 194 19 c 0,36,37
 168 135 168 135 142.5 270.5 c 128,-1,38
 117 406 117 406 103 460 c 0,39,40
 89 508 89 508 89 539 c 0,41,42
 89 558 89 558 84.5 567.5 c 128,-1,43
 80 577 80 577 74.5 581.5 c 128,-1,44
 69 586 69 586 64.5 611 c 128,-1,45
 60 636 60 636 60 682 c 0,46,47
 60 724 60 724 77 724 c 0,48,49
 103 724 103 724 130 638 c 128,-1,50
 157 552 157 552 203 322 c 0,51,52
 237 155 237 155 249 155 c 0,53,54
 256 155 256 155 281 225.5 c 128,-1,55
 306 296 306 296 334.5 378.5 c 128,-1,56
 363 461 363 461 373 480 c 0,57,58
 389 511 389 511 418 511 c 0,59,60
 464 511 464 511 521 439 c 128,-1,61
 578 367 578 367 615 258 c 0,62,63
 636 193 636 193 649 193 c 0,64,65
 660 193 660 193 676.5 254 c 128,-1,66
 693 315 693 315 693 354 c 0,0,1
EndSplineSet
EndChar

StartChar: X
Encoding: 88 88 67
Width: 761
Flags: W
DStem2: 459 374 418 297 0.692532 -0.721387<27.153 313.09>
LayerCount: 3
Back
SplineSet
43 748 m 0
 61 778 94 756 242 612 c 0
 328 529 399 461 400 461 c 0
 401 461 421 493 445 532 c 0
 495 614 593 721 619 721 c 0
 664 721 650 672 583 602 c 0
 567 585 533 527 507 473 c 2
 459 374 l 1
 503 326 l 2
 527 300 572 256 601 230 c 0
 726 116 747 75 688 56 c 0
 663 48 639 67 538 172 c 2
 418 297 l 1
 386 246 l 2
 368 217 340 167 323 133 c 0
 305 99 288 68 283 65 c 0
 279 61 266 40 254 17 c 0
 231 -30 178 -46 165 -11 c 0
 160 3 191 71 246 167 c 0
 295 253 338 337 343 354 c 0
 349 380 325 412 213 530 c 0
 59 691 31 728 43 748 c 0
EndSplineSet
Fore
SplineSet
41 739 m 0
 41 747 49 760 61 760 c 0
 84 760 131 720 242 612 c 0
 328 529 399 461 400 461 c 0
 401 461 421 493 445 532 c 0
 495 614 593 721 619 721 c 0
 637 721 645 714 645 700 c 0
 645 680 624 645 583 602 c 0
 567 585 533 527 507 473 c 2
 459 374 l 1
 503 326 l 2
 587 234 720 136 720 86 c 0
 720 61 683 54 678 54 c 0
 655 54 626 81 538 172 c 2
 418 297 l 1
 386 246 l 1
 332 158 295 72 283 65 c 1
 264 46 244 -30 192 -30 c 0
 170 -30 164 -12 164 -7 c 0
 164 45 344 323 344 361 c 0
 344 426 41 680 41 739 c 0
EndSplineSet
Validated: 1
Layer: 2
SplineSet
41 739 m 0,0,1
 41 746 41 746 47 753 c 128,-1,2
 53 760 53 760 61 760 c 0,3,4
 78 760 78 760 117.5 727.5 c 128,-1,5
 157 695 157 695 242 612 c 0,6,7
 398 461 398 461 400 461 c 0,8,9
 401 461 401 461 445 532 c 0,10,11
 483 594 483 594 541.5 657.5 c 128,-1,12
 600 721 600 721 619 721 c 0,13,14
 645 721 645 721 645 700 c 0,15,16
 645 667 645 667 583 602 c 0,17,18
 555 572 555 572 507 473 c 2,19,-1
 459 374 l 1,20,-1
 503 326 l 2,21,22
 532 294 532 294 592.5 238.5 c 128,-1,23
 653 183 653 183 686.5 145.5 c 128,-1,24
 720 108 720 108 720 86 c 0,25,26
 720 70 720 70 703.5 62 c 128,-1,27
 687 54 687 54 678 54 c 0,28,29
 661 54 661 54 634 77.5 c 128,-1,30
 607 101 607 101 538 172 c 2,31,-1
 418 297 l 1,32,-1
 386 246 l 2,33,34
 364 210 364 210 339.5 164 c 128,-1,35
 315 118 315 118 301.5 93 c 128,-1,36
 288 68 288 68 283 65 c 0,37,38
 278 60 278 60 264.5 33.5 c 128,-1,39
 251 7 251 7 233 -11.5 c 128,-1,40
 215 -30 215 -30 192 -30 c 0,41,42
 178 -30 178 -30 171 -21.5 c 128,-1,43
 164 -13 164 -13 164 -7 c 0,44,45
 164 21 164 21 254 182.5 c 128,-1,46
 344 344 344 344 344 361 c 0,47,48
 344 383 344 383 296.5 439.5 c 128,-1,49
 249 496 249 496 192.5 552.5 c 128,-1,50
 136 609 136 609 88.5 664 c 128,-1,51
 41 719 41 719 41 739 c 0,0,1
EndSplineSet
EndChar

StartChar: Y
Encoding: 89 89 68
Width: 730
Flags: W
VStem: 251 72<-99.6332 -72> 614 74<649.977 770.419>
DStem2: 362 210 323 -72 0.385291 0.922795<-237.662 139.004>
LayerCount: 3
Back
SplineSet
622 776 m 0
 633 787 636 787 667 770 c 0
 689 757 691 747 684 702 c 0
 675 638 577 441 523 376 c 0
 503 352 483 320 479 306 c 0
 474 291 441 209 404 122 c 0
 367 36 331 -52 323 -72 c 0
 307 -111 276 -116 255 -81 c 0
 241 -59 261 -4 362 210 c 2
 421 336 l 1
 256 504 l 2
 72 690 57 711 79 740 c 0
 97 762 122 742 310 553 c 0
 378 486 442 430 452 430 c 0
 475 430 486 445 539 546 c 0
 563 591 589 641 598 657 c 0
 606 673 614 704 614 726 c 0
 614 749 618 771 622 776 c 0
EndSplineSet
Fore
SplineSet
614 726 m 0
 614 757 618 784 635 784 c 0
 641 784 650 779 667 770 c 0
 682 761 688 754 688 736 c 0
 688 642 564 426 523 376 c 0
 478 322 492 328 404 122 c 1
 323 -72 l 2
 314 -93 301 -104 287 -104 c 0
 271 -104 251 -86 251 -65 c 0
 251 -34 279 35 362 210 c 2
 421 336 l 1
 256 504 l 2
 112 650 71 694 71 721 c 0
 71 732 80 747 92 747 c 0
 114 747 160 704 310 553 c 1
 378 486 442 430 452 430 c 0
 491 430 513 506 598 657 c 0
 606 673 614 704 614 726 c 0
EndSplineSet
Validated: 1
Layer: 2
SplineSet
614 726 m 0,0,1
 614 784 614 784 635 784 c 0,2,3
 641 784 641 784 667 770 c 0,4,5
 688 757 688 757 688 736 c 0,6,7
 688 673 688 673 626 549.5 c 128,-1,8
 564 426 564 426 523 376 c 0,9,10
 506 355 506 355 496.5 339.5 c 128,-1,11
 487 324 487 324 480.5 308.5 c 128,-1,12
 474 293 474 293 452 238 c 128,-1,13
 430 183 430 183 404 122 c 2,14,-1
 323 -72 l 2,15,16
 309 -104 309 -104 287 -104 c 0,17,18
 274 -104 274 -104 262.5 -92 c 128,-1,19
 251 -80 251 -80 251 -65 c 0,20,21
 251 -24 251 -24 362 210 c 2,22,-1
 421 336 l 1,23,-1
 256 504 l 2,24,25
 142 620 142 620 106.5 661 c 128,-1,26
 71 702 71 702 71 721 c 0,27,28
 71 730 71 730 77 738.5 c 128,-1,29
 83 747 83 747 92 747 c 0,30,31
 108 747 108 747 151 708.5 c 128,-1,32
 194 670 194 670 310 553 c 0,33,34
 435 430 435 430 452 430 c 0,35,36
 463 430 463 430 473.5 438 c 128,-1,37
 484 446 484 446 496.5 467 c 128,-1,38
 509 488 509 488 520.5 510.5 c 128,-1,39
 532 533 532 533 554.5 576 c 128,-1,40
 577 619 577 619 598 657 c 0,41,42
 614 689 614 689 614 726 c 0,0,1
EndSplineSet
EndChar

StartChar: Z
Encoding: 90 90 69
Width: 932
Flags: W
HStem: -3 71<329.861 568.646> 33 74<555.82 794.727> 68 70<778.736 894.743> 559 21G<80.5 95.5> 641 71<330.138 594.63>
VStem: 248 75<81.7793 146.115> 595 74<561.147 637.323>
LayerCount: 3
Back
SplineSet
391 701 m 0
 605 726 669 710 669 634 c 0
 669 590 619 487 577 444 c 0
 476 342 323 136 323 102 c 0
 323 66 465 56 555 86 c 0
 585 96 646 105 692 107 c 0
 737 108 778 113 781 118 c 0
 785 123 812 130 840 135 c 0
 882 141 894 139 900 123 c 0
 911 95 884 68 844 68 c 0
 825 68 800 60 786 50 c 0
 772 40 735 33 698 33 c 0
 663 32 596 24 552 14 c 0
 439 -12 250 -7 231 22 c 0
 221 38 221 50 233 68 c 0
 241 81 248 98 248 105 c 0
 248 120 338 264 351 269 c 0
 356 272 360 279 360 288 c 0
 360 301 436 390 506 460 c 0
 541 494 595 591 595 620 c 0
 595 639 582 641 485 641 c 0
 421 641 355 634 325 624 c 0
 297 614 238 600 196 593 c 0
 154 585 115 574 111 567 c 0
 98 547 36 568 41 591 c 0
 47 621 251 685 391 701 c 0
EndSplineSet
Fore
SplineSet
41 588 m 0x9e
 41 628 332 712 540 712 c 0
 636 712 669 688 669 634 c 0
 669 590 619 487 577 444 c 0
 476 342 323 136 323 102 c 0
 323 81 374 68 433 68 c 0x9e
 547 68 553 101 692 107 c 1x5e
 808 110 750 119 840 135 c 0
 854 137 865 138 873 138 c 0
 889 138 902 133 902 110 c 0
 902 87 878 68 844 68 c 0x3e
 787 68 798 33 698 33 c 1x5e
 576 30 536 -3 379 -3 c 0
 248 -3 224 16 224 43 c 0
 224 61 248 86 248 105 c 0
 248 120 338 264 351 269 c 1
 356 272 360 279 360 288 c 0
 360 301 436 390 506 460 c 0
 541 494 595 591 595 620 c 0
 595 639 582 641 485 641 c 0
 326 641 331 616 196 593 c 0
 154 585 115 574 111 567 c 0
 107 561 100 559 91 559 c 0
 70 559 41 573 41 588 c 0x9e
EndSplineSet
Validated: 1
Layer: 2
SplineSet
41 588 m 0,0,1
 41 608 41 608 121 637.5 c 128,-1,2
 201 667 201 667 321.5 689.5 c 128,-1,3
 442 712 442 712 540 712 c 0,4,5
 611 712 611 712 640 693.5 c 128,-1,6
 669 675 669 675 669 634 c 0,7,8
 669 601 669 601 639 538.5 c 128,-1,9
 609 476 609 476 577 444 c 0,10,11
 501 367 501 367 412 247 c 128,-1,12
 323 127 323 127 323 102 c 0,13,14
 323 87 323 87 355 77.5 c 128,-1,15
 387 68 387 68 433 68 c 0,16,17
 490 68 490 68 556 86 c 128,-1,18
 622 104 622 104 692 107 c 0,19,20
 743 108 743 108 759 111.5 c 128,-1,21
 775 115 775 115 790 122 c 128,-1,22
 805 129 805 129 840 135 c 0,23,24
 861 138 861 138 873 138 c 0,25,26
 902 138 902 138 902 110 c 0,27,28
 902 92 902 92 885.5 80 c 128,-1,29
 869 68 869 68 844 68 c 0,30,31
 821 68 821 68 787 50.5 c 128,-1,32
 753 33 753 33 698 33 c 0,33,34
 644 32 644 32 554 14.5 c 128,-1,35
 464 -3 464 -3 379 -3 c 0,36,37
 316 -3 316 -3 281 3 c 128,-1,38
 246 9 246 9 235 18.5 c 128,-1,39
 224 28 224 28 224 43 c 0,40,41
 224 52 224 52 236 73.5 c 128,-1,42
 248 95 248 95 248 105 c 0,43,44
 248 116 248 116 294.5 190.5 c 128,-1,45
 341 265 341 265 351 269 c 0,46,47
 360 274 360 274 360 288 c 0,48,49
 360 298 360 298 406.5 352.5 c 128,-1,50
 453 407 453 407 506 460 c 0,51,52
 532 486 532 486 563.5 542 c 128,-1,53
 595 598 595 598 595 620 c 0,54,55
 595 634 595 634 576.5 637.5 c 128,-1,56
 558 641 558 641 485 641 c 0,57,58
 414 641 414 641 374.5 634.5 c 128,-1,59
 335 628 335 628 290 614.5 c 128,-1,60
 245 601 245 601 196 593 c 0,61,62
 117 578 117 578 111 567 c 0,63,64
 106 559 106 559 91 559 c 0,65,66
 74 559 74 559 57.5 568 c 128,-1,67
 41 577 41 577 41 588 c 0,0,1
EndSplineSet
EndChar

StartChar: bracketleft
Encoding: 91 91 70
Width: 485
Flags: W
HStem: -65 65<221.229 374.513> 618 84<185.007 249.533> 644 54<291.374 333.528>
VStem: 123 257
LayerCount: 3
Back
SplineSet
253 698 m 0
 292 704 294 704 317 698 c 0
 332 694 337 686 335 672 c 0
 333 655 324 650 277 644 c 0
 246 640 217 633 212 627 c 0
 207 622 192 618 179 618 c 0
 166 618 160 615 165 611 c 0
 176 603 190 459 207 189 c 0
 220 -24 211 -7 298 -2 c 0
 362 2 373 0 378 -14 c 0
 382 -24 380 -37 374 -44 c 0
 361 -61 201 -73 184 -58 c 0
 167 -44 161 -2 150 209 c 0
 145 309 136 441 130 503 c 0
 116 650 119 660 180 679 c 0
 207 687 240 696 253 698 c 0
EndSplineSet
Fore
SplineSet
342 -0 m 0xd0
 365 0 380 -2 380 -25 c 0
 380 -32 378 -39 374 -44 c 0
 365 -56 288 -65 235 -65 c 0
 209 -65 189 -63 184 -58 c 0
 149 -29 158 215 130 503 c 0
 126 547 123 579 123 603 c 0
 123 657 137 666 180 679 c 0
 234 695 269 702 291 702 c 0xd0
 299 702 306 701 317 698 c 0
 330 695 335 688 335 677 c 0
 335 655 325 650 277 644 c 0xb0
 190 633 221 618 179 618 c 0
 166 618 160 615 165 611 c 0
 176 603 190 459 207 189 c 0
 217 19 214 -5 256 -5 c 0
 273 -5 307 0 342 -0 c 0xd0
EndSplineSet
Validated: 1
Layer: 2
SplineSet
342 -0 m 128,-1,1
 362 0 362 0 371 -4.5 c 128,-1,2
 380 -9 380 -9 380 -25 c 0,3,4
 380 -36 380 -36 374 -44 c 0,5,6
 368 -53 368 -53 323 -59 c 128,-1,7
 278 -65 278 -65 235 -65 c 0,8,9
 191 -65 191 -65 184 -58 c 0,10,11
 168 -45 168 -45 161.5 26 c 128,-1,12
 155 97 155 97 147.5 246 c 128,-1,13
 140 395 140 395 130 503 c 0,14,15
 123 580 123 580 123 603 c 0,16,17
 123 642 123 642 134.5 655.5 c 128,-1,18
 146 669 146 669 180 679 c 0,19,20
 258 702 258 702 291 702 c 0,21,22
 302 702 302 702 317 698 c 0,23,24
 335 694 335 694 335 677 c 0,25,26
 335 661 335 661 324 655 c 128,-1,27
 313 649 313 649 277 644 c 0,28,29
 229 638 229 638 213 628 c 128,-1,30
 197 618 197 618 179 618 c 0,31,32
 162.643021725 618 162.643021725 618 163.261661808 613.413994169 c 0,33,34
 163.416405024 612.266875981 163.416405024 612.266875981 165 611 c 0,35,36
 181 599 181 599 207 189 c 0,37,38
 215.761598245 40.0528298321 215.761598245 40.0528298321 221.413831679 20.4829985658 c 0,39,40
 233.08892856 -3.78177112791 233.08892856 -3.78177112791 256 -5 c 0,41,42
 262 -5 262 -5 292 -2.5 c 128,-1,0
 322 0 322 0 342 -0 c 128,-1,1
EndSplineSet
EndChar

StartChar: backslash
Encoding: 92 92 71
Width: 693
Flags: W
VStem: 52 65<612.083 666.72>
LayerCount: 3
Back
SplineSet
53 662 m 0
 64 681 113 668 117 646 c 0
 118 635 154 586 197 536 c 0
 297 419 352 347 386 289 c 0
 401 263 419 236 426 229 c 0
 448 207 520 108 541 71 c 0
 551 51 569 24 579 11 c 0
 594 -10 595 -16 583 -27 c 0
 559 -50 530 -34 501 19 c 0
 486 46 445 106 411 152 c 0
 376 198 334 256 317 281 c 0
 282 335 205 431 150 491 c 0
 127 516 106 544 103 554 c 0
 100 564 94 571 90 571 c 0
 78 571 45 650 53 662 c 0
EndSplineSet
Fore
SplineSet
52 656 m 0
 52 668 65 671 74 671 c 0
 92 671 114 661 117 646 c 1
 120 612 306 425 386 289 c 0
 401 263 419 236 426 229 c 0
 448 207 520 108 541 71 c 1
 566 22 591 1 591 -13 c 0
 591 -23 575 -37 560 -37 c 0
 542 -37 521 -18 501 19 c 0
 463 87 360 218 317 281 c 1
 236 406 112 524 103 554 c 0
 100 564 94 571 90 571 c 0
 79 571 52 634 52 656 c 0
EndSplineSet
Validated: 1
Layer: 2
SplineSet
52 656 m 0,0,1
 52 671 52 671 74 671 c 0,2,3
 88 671 88 671 101.5 664 c 128,-1,4
 115 657 115 657 117 646 c 0,5,6
 118 632 118 632 167 573 c 128,-1,7
 216 514 216 514 284 430 c 128,-1,8
 352 346 352 346 386 289 c 0,9,10
 413 242 413 242 426 229 c 0,11,12
 442 213 442 213 483.5 156 c 128,-1,13
 525 99 525 99 541 71 c 0,14,15
 551 51 551 51 564.5 32 c 128,-1,16
 578 13 578 13 584.5 3 c 128,-1,17
 591 -7 591 -7 591 -13 c 0,18,19
 591 -21 591 -21 581 -29 c 128,-1,20
 571 -37 571 -37 560 -37 c 0,21,22
 531 -37 531 -37 501 19 c 0,23,24
 478 59 478 59 400.5 165.5 c 128,-1,25
 323 272 323 272 317 281 c 0,26,27
 283 334 283 334 230 397 c 128,-1,28
 177 460 177 460 142 501 c 128,-1,29
 107 542 107 542 103 554 c 0,30,31
 98 571 98 571 90 571 c 128,-1,32
 82 571 82 571 67 605 c 128,-1,33
 52 639 52 639 52 656 c 0,0,1
EndSplineSet
EndChar

StartChar: bracketright
Encoding: 93 93 72
Width: 538
Flags: W
HStem: 609 58<165.265 264.447> 627 45<189.31 301.91>
VStem: 331 53<32 345.448>
LayerCount: 3
Back
SplineSet
205 667 m 0
 238 674 328 673 339 666 c 0
 363 650 384 396 384 127 c 2
 384 -9 l 1
 361 -20 l 2
 328 -34 182 -36 177 -22 c 0
 173 -9 189 -3 266 17 c 2
 328 32 l 1
 330 143 l 2
 334 276 318 559 305 599 c 0
 294 631 273 635 205 616 c 0
 174 607 164 607 155 617 c 0
 146 626 149 632 166 646 c 0
 178 656 196 665 205 667 c 0
EndSplineSet
Fore
SplineSet
172 609 m 0xa0
 156 609 150 623 150 626 c 0
 150 636 183 662 205 667 c 0xa0
 220 670 248 672 274 672 c 0
 305 672 333 670 339 666 c 0
 363 650 384 396 384 127 c 2
 384 -9 l 1
 361 -20 l 1
 343 -27 293 -32 250 -32 c 0
 187 -32 176 -26 176 -19 c 0
 176 -8 196 -1 266 17 c 1
 328 32 l 1
 330 143 l 2
 330 157 331 173 331 190 c 0
 331 334 317 563 305 599 c 0
 298 618 288 627 266 627 c 0x60
 233 627 191 609 172 609 c 0xa0
EndSplineSet
Validated: 1
Layer: 2
SplineSet
172 609 m 0,0,1
 162 609 162 609 156 615.5 c 128,-1,2
 150 622 150 622 150 626 c 0,3,4
 150 634 150 634 169.5 648.5 c 128,-1,5
 189 663 189 663 205 667 c 0,6,7
 230 672 230 672 274 672 c 0,8,9
 330 672 330 672 339 666 c 0,10,11
 357 654 357 654 370.5 491.5 c 128,-1,12
 384 329 384 329 384 127 c 2,13,-1
 384 -9 l 1,14,-1
 361 -20 l 2,15,16
 330 -32 330 -32 250 -32 c 0,17,18
 176 -32 176 -32 176 -19 c 0,19,20
 176 -11 176 -11 194 -4 c 128,-1,21
 212 3 212 3 266 17 c 2,22,-1
 328 32 l 1,23,-1
 330 143 l 2,24,25
 330 150 330 150 330.5 165.5 c 128,-1,26
 331 181 331 181 331 190 c 0,27,28
 331 299 331 299 322.5 435.5 c 128,-1,29
 314 572 314 572 305 599 c 0,30,31
 295 627 295 627 266 627 c 0,32,33
 248 627 248 627 214 618 c 128,-1,34
 180 609 180 609 172 609 c 0,0,1
EndSplineSet
EndChar

StartChar: asciicircum
Encoding: 94 94 73
Width: 447
Flags: W
HStem: 718 77<181.109 236.088>
VStem: 70 296<587 616>
LayerCount: 3
Back
SplineSet
146 724 m 0
 173 767 196 795 205 795 c 0
 219 795 266 750 333 673 c 0
 357 645 368 625 366 613 c 0
 362 574 338 586 273 658 c 0
 200 740 207 740 149 644 c 0
 117 589 107 579 89 579 c 0
 68 579 67 581 74 603 c 0
 78 616 86 634 91 640 c 0
 97 647 121 684 146 724 c 0
EndSplineSet
Fore
SplineSet
205 795 m 0
 225 795 366 651 366 616 c 0
 366 610 364 591 352 591 c 0
 317 591 235 718 207 718 c 0
 192 718 179 694 149 644 c 0
 117 589 107 579 89 579 c 0
 75 579 70 580 70 587 c 0
 70 597 84 632 91 640 c 0
 114 667 183 795 205 795 c 0
EndSplineSet
Validated: 1
Layer: 2
SplineSet
205 795 m 0,0,1
 222 795 222 795 294 718 c 128,-1,2
 366 641 366 641 366 616 c 128,-1,3
 366 591 366 591 352 591 c 0,4,5
 334 591 334 591 277 654.5 c 128,-1,6
 220 718 220 718 207 718 c 0,7,8
 198 718 198 718 187.5 704.5 c 128,-1,9
 177 691 177 691 156.058934159 655.79567728 c 0,10,11
 151 648 151 648 149 644 c 0,12,13
 125 603 125 603 114 591 c 128,-1,14
 103 579 103 579 89 579 c 0,15,16
 70 579 70 579 70 587 c 0,17,18
 70 594 70 594 78 614 c 128,-1,19
 86 634 86 634 91 640 c 0,20,21
 99 649 99 649 124.5 690 c 128,-1,22
 150 731 150 731 172.5 763 c 128,-1,23
 195 795 195 795 205 795 c 0,0,1
EndSplineSet
EndChar

StartChar: underscore
Encoding: 95 95 74
Width: 598
Flags: W
HStem: -22 36<53.2395 260.173>
LayerCount: 3
Back
SplineSet
401 51 m 0
 403 54 435 55 472 54 c 0
 539 51 539 51 539 34 c 0
 539 16 539 16 459 11 c 0
 415 9 338 2 287 -4 c 0
 122 -24 65 -27 53 -14 c 0
 36 4 41 12 68 14 c 0
 81 14 97 15 102 16 c 0
 108 17 138 20 169 23 c 0
 306 36 397 47 401 51 c 0
EndSplineSet
Fore
SplineSet
446 54 m 0
 536 54 539 50 539 37 c 0
 539 3 532 24 287 -4 c 0
 188 -16 128 -22 93 -22 c 0
 70 -22 58 -19 53 -14 c 0
 46 -7 43 -2 43 3 c 0
 43 9 51 13 68 14 c 1
 86 14 393 43 401 51 c 0
 402 53 421 54 446 54 c 0
EndSplineSet
Validated: 1
Layer: 2
SplineSet
446 54 m 0,0,1
 480 54 480 54 498.5 53.5 c 128,-1,2
 517 53 517 53 526 50.5 c 128,-1,3
 535 48 535 48 537 45.5 c 128,-1,4
 539 43 539 43 539 37 c 0,5,6
 539 22 539 22 531.5 19 c 128,-1,7
 524 16 524 16 477.739493901 12.5104214966 c 0,8,9
 382 7 382 7 287 -4 c 0,10,11
 138 -22 138 -22 93 -22 c 0,12,13
 61 -22 61 -22 53 -14 c 0,14,15
 43 -4 43 -4 43 3 c 0,16,17
 43 13 43 13 68 14 c 0,18,19
 88 14 88 14 242 30 c 128,-1,20
 396 46 396 46 401 51 c 0,21,22
 402 54 402 54 446 54 c 0,0,1
EndSplineSet
EndChar

StartChar: grave
Encoding: 96 96 75
Width: 420
Flags: W
HStem: 545 152
VStem: 112 147
LayerCount: 3
Back
SplineSet
118 685 m 0
 125 692 133 697 137 697 c 0
 141 697 171 670 204 636 c 0
 253 586 262 573 258 559 c 0
 254 546 249 543 237 547 c 0
 220 553 173 596 132 643 c 0
 109 670 108 673 118 685 c 0
EndSplineSet
Fore
SplineSet
112 673 m 0
 112 683 130 697 137 697 c 0
 142 697 259 592 259 565 c 0
 259 561 256 545 245 545 c 0
 217 545 112 659 112 673 c 0
EndSplineSet
Validated: 1
Layer: 2
SplineSet
112 673 m 0,0,1
 112 680 112 680 121.5 688.5 c 128,-1,2
 131 697 131 697 137 697 c 0,3,4
 144 697 144 697 201.5 639.5 c 128,-1,5
 259 582 259 582 259 565 c 0,6,7
 259 545 259 545 245 545 c 0,8,9
 226 545 226 545 169 603 c 128,-1,10
 112 661 112 661 112 673 c 0,0,1
EndSplineSet
EndChar

